Auvaiyar-BoldItalic.ufo
<glyph name="quotedbl" format="2">
  <advance width="405"/>
  <unicode hex="0022"/>
  <outline>
    <contour>
      <point x="394" y="614" type="line"/>
      <point x="373" y="628" type="line"/>
      <point x="360" y="625"/>
      <point x="277" y="597"/>
      <point x="264" y="589" type="curve"/>
      <point x="271" y="363" type="line"/>
      <point x="284" y="363"/>
      <point x="312" y="367"/>
      <point x="321" y="373" type="curve"/>
    </contour>
    <contour>
      <point x="222" y="614" type="line"/>
      <point x="202" y="628" type="line"/>
      <point x="189" y="625"/>
      <point x="106" y="597"/>
      <point x="92" y="589" type="curve"/>
      <point x="100" y="363" type="line"/>
      <point x="112" y="363"/>
      <point x="140" y="367"/>
      <point x="150" y="373" type="curve"/>
    </contour>
  </outline>
</glyph>
<glyph name="numbersign" format="2">
  <advance width="667"/>
  <unicode hex="0023"/>
  <outline>
    <contour>
      <point x="611" y="372" type="line"/>
      <point x="611" y="431" type="line"/>
      <point x="493" y="431" type="line"/>
      <point x="560" y="621" type="line"/>
      <point x="498" y="638" type="line"/>
      <point x="431" y="431" type="line"/>
      <point x="315" y="431" type="line"/>
      <point x="381" y="622" type="line"/>
      <point x="321" y="638" type="line"/>
      <point x="251" y="431" type="line"/>
      <point x="99" y="431" type="line"/>
      <point x="99" y="372" type="line"/>
      <point x="232" y="372" type="line"/>
      <point x="194" y="254" type="line"/>
      <point x="55" y="254" type="line"/>
      <point x="55" y="197" type="line"/>
      <point x="176" y="197" type="line"/>
      <point x="108" y="-5" type="line"/>
      <point x="169" y="-21" type="line"/>
      <point x="239" y="197" type="line"/>
      <point x="352" y="197" type="line"/>
      <point x="285" y="-6" type="line"/>
      <point x="347" y="-21" type="line"/>
      <point x="415" y="197" type="line"/>
      <point x="575" y="197" type="line"/>
      <point x="575" y="254" type="line"/>
      <point x="435" y="254" type="line"/>
      <point x="474" y="372" type="line"/>
    </contour>
    <contour>
      <point x="411" y="372" type="line"/>
      <point x="370" y="254" type="line"/>
      <point x="258" y="254" type="line"/>
      <point x="297" y="372" type="line"/>
    </contour>
  </outline>
</glyph>
<glyph name="dollar" format="2">
  <advance width="425"/>
  <unicode hex="0024"/>
  <outline>
    <contour>
      <point x="287" y="599" type="line"/>
      <point x="273" y="613" type="line"/>
      <point x="257" y="608"/>
      <point x="245" y="597"/>
      <point x="230" y="587" type="curve"/>
      <point x="137" y="-64" type="line"/>
      <point x="151" y="-78" type="line"/>
      <point x="165" y="-74"/>
      <point x="185" y="-65"/>
      <point x="195" y="-56" type="curve"/>
    </contour>
    <contour>
      <point x="414" y="502" type="curve" smooth="yes"/>
      <point x="383" y="522"/>
      <point x="332" y="540"/>
      <point x="280" y="540" type="curve" smooth="yes"/>
      <point x="109" y="540"/>
      <point x="45" y="458"/>
      <point x="45" y="384" type="curve" smooth="yes"/>
      <point x="45" y="316"/>
      <point x="90" y="283"/>
      <point x="164" y="255" type="curve" smooth="yes"/>
      <point x="251" y="221"/>
      <point x="287" y="196"/>
      <point x="287" y="150" type="curve" smooth="yes"/>
      <point x="287" y="88"/>
      <point x="251" y="52"/>
      <point x="183" y="52" type="curve" smooth="yes"/>
      <point x="93" y="52"/>
      <point x="75" y="163"/>
      <point x="56" y="163" type="curve" smooth="yes"/>
      <point x="38" y="163"/>
      <point x="-2" y="80"/>
      <point x="-2" y="60" type="curve" smooth="yes"/>
      <point x="-2" y="29"/>
      <point x="83" y="-13"/>
      <point x="141" y="-13" type="curve" smooth="yes"/>
      <point x="309" y="-13"/>
      <point x="386" y="79"/>
      <point x="386" y="183" type="curve" smooth="yes"/>
      <point x="386" y="259"/>
      <point x="327" y="295"/>
      <point x="234" y="331" type="curve" smooth="yes"/>
      <point x="159" y="360"/>
      <point x="144" y="382"/>
      <point x="144" y="417" type="curve" smooth="yes"/>
      <point x="144" y="454"/>
      <point x="182" y="484"/>
      <point x="233" y="484" type="curve" smooth="yes"/>
      <point x="298" y="484"/>
      <point x="328" y="446"/>
      <point x="337" y="400" type="curve"/>
      <point x="367" y="395" type="line"/>
      <point x="378" y="402"/>
      <point x="421" y="498"/>
    </contour>
  </outline>
</glyph>
<glyph name="percent" format="2">
  <advance width="809"/>
  <unicode hex="0025"/>
  <outline>
    <contour>
      <point x="774" y="235" type="curve" smooth="yes"/>
      <point x="774" y="315"/>
      <point x="733" y="361"/>
      <point x="651" y="361" type="curve" smooth="yes"/>
      <point x="516" y="361"/>
      <point x="454" y="230"/>
      <point x="454" y="111" type="curve" smooth="yes"/>
      <point x="454" y="30"/>
      <point x="494" y="-14"/>
      <point x="577" y="-14" type="curve" smooth="yes"/>
      <point x="711" y="-14"/>
      <point x="774" y="115"/>
    </contour>
    <contour>
      <point x="697" y="603" type="line"/>
      <point x="631" y="603" type="line"/>
      <point x="138" y="0" type="line"/>
      <point x="203" y="0" type="line"/>
    </contour>
    <contour>
      <point x="381" y="491" type="curve" smooth="yes"/>
      <point x="381" y="572"/>
      <point x="340" y="618"/>
      <point x="258" y="618" type="curve" smooth="yes"/>
      <point x="124" y="618"/>
      <point x="60" y="487"/>
      <point x="60" y="369" type="curve" smooth="yes"/>
      <point x="60" y="287"/>
      <point x="101" y="241"/>
      <point x="184" y="241" type="curve" smooth="yes"/>
      <point x="318" y="241"/>
      <point x="381" y="372"/>
    </contour>
    <contour>
      <point x="680" y="256" type="curve" smooth="yes"/>
      <point x="680" y="205"/>
      <point x="655" y="27"/>
      <point x="584" y="27" type="curve" smooth="yes"/>
      <point x="548" y="27"/>
      <point x="543" y="70"/>
      <point x="543" y="97" type="curve" smooth="yes"/>
      <point x="543" y="152"/>
      <point x="569" y="319"/>
      <point x="642" y="319" type="curve" smooth="yes"/>
      <point x="675" y="319"/>
      <point x="680" y="281"/>
    </contour>
    <contour>
      <point x="287" y="511" type="curve" smooth="yes"/>
      <point x="287" y="461"/>
      <point x="261" y="283"/>
      <point x="192" y="283" type="curve" smooth="yes"/>
      <point x="155" y="283"/>
      <point x="150" y="327"/>
      <point x="150" y="356" type="curve" smooth="yes"/>
      <point x="150" y="409"/>
      <point x="176" y="576"/>
      <point x="250" y="576" type="curve" smooth="yes"/>
      <point x="283" y="576"/>
      <point x="287" y="538"/>
    </contour>
  </outline>
</glyph>
<glyph name="ampersand" format="2">
  <advance width="505"/>
  <unicode hex="0026"/>
  <outline>
    <contour>
      <point x="356" y="112" type="curve"/>
      <point x="384" y="139"/>
      <point x="410" y="168"/>
      <point x="434" y="199" type="curve" smooth="yes"/>
      <point x="477" y="255"/>
      <point x="486" y="263"/>
      <point x="529" y="263" type="curve"/>
      <point x="535" y="293" type="line"/>
      <point x="383" y="293" type="line"/>
      <point x="377" y="263" type="line"/>
      <point x="438" y="253"/>
      <point x="361" y="170"/>
      <point x="336" y="145" type="curve"/>
      <point x="319" y="174"/>
      <point x="302" y="210"/>
      <point x="287" y="251" type="curve"/>
      <point x="322" y="267"/>
      <point x="415" y="310"/>
      <point x="415" y="381" type="curve" smooth="yes"/>
      <point x="415" y="447"/>
      <point x="338" y="448"/>
      <point x="335" y="448" type="curve" smooth="yes"/>
      <point x="269" y="448"/>
      <point x="188" y="403"/>
      <point x="188" y="308" type="curve" smooth="yes"/>
      <point x="188" y="292"/>
      <point x="189" y="287"/>
      <point x="196" y="252" type="curve"/>
      <point x="158" y="234"/>
      <point x="33" y="173"/>
      <point x="33" y="81" type="curve" smooth="yes"/>
      <point x="33" y="34"/>
      <point x="73" y="-2"/>
      <point x="135" y="-2" type="curve" smooth="yes"/>
      <point x="181" y="-2"/>
      <point x="232" y="17"/>
      <point x="287" y="55" type="curve"/>
      <point x="316" y="15"/>
      <point x="349" y="-2"/>
      <point x="388" y="-2" type="curve" smooth="yes"/>
      <point x="453" y="-2"/>
      <point x="494" y="51"/>
      <point x="517" y="95" type="curve"/>
      <point x="491" y="116" type="line"/>
      <point x="475" y="83"/>
      <point x="453" y="66"/>
      <point x="426" y="66" type="curve" smooth="yes"/>
      <point x="394" y="66"/>
      <point x="371" y="89"/>
    </contour>
    <contour>
      <point x="325" y="408" type="curve" smooth="yes"/>
      <point x="372" y="402"/>
      <point x="377" y="334"/>
      <point x="276" y="289" type="curve"/>
      <point x="271" y="312"/>
      <point x="268" y="329"/>
      <point x="268" y="338" type="curve" smooth="yes"/>
      <point x="268" y="408"/>
      <point x="324" y="408"/>
    </contour>
    <contour>
      <point x="125" y="110" type="curve" smooth="yes"/>
      <point x="125" y="166"/>
      <point x="171" y="193"/>
      <point x="206" y="214" type="curve"/>
      <point x="223" y="167"/>
      <point x="234" y="141"/>
      <point x="262" y="86" type="curve"/>
      <point x="224" y="61"/>
      <point x="202" y="52"/>
      <point x="179" y="52" type="curve" smooth="yes"/>
      <point x="153" y="52"/>
      <point x="125" y="71"/>
    </contour>
  </outline>
</glyph>
<glyph name="quotesingle" format="2">
  <advance width="157"/>
  <unicode hex="0027"/>
  <outline>
    <contour>
      <point x="202" y="602" type="curve" smooth="yes"/>
      <point x="202" y="630"/>
      <point x="185" y="642"/>
      <point x="159" y="642" type="curve" smooth="yes"/>
      <point x="128" y="642"/>
      <point x="97" y="618"/>
      <point x="96" y="585" type="curve"/>
      <point x="90" y="375" type="line"/>
      <point x="123" y="375" type="line"/>
      <point x="136" y="413"/>
      <point x="202" y="573"/>
    </contour>
  </outline>
</glyph>
<glyph name="parenleft" format="2">
  <advance width="280"/>
  <unicode hex="0028"/>
  <outline>
    <contour>
      <point x="164" y="53" type="curve" smooth="yes"/>
      <point x="164" y="253"/>
      <point x="264" y="493"/>
      <point x="447" y="614" type="curve"/>
      <point x="431" y="632" type="line"/>
      <point x="86" y="462"/>
      <point x="68" y="138"/>
      <point x="68" y="74" type="curve" smooth="yes"/>
      <point x="68" y="-108"/>
      <point x="166" y="-205"/>
      <point x="244" y="-253" type="curve"/>
      <point x="267" y="-232" type="line"/>
      <point x="229" y="-195"/>
      <point x="164" y="-116"/>
    </contour>
  </outline>
</glyph>
<glyph name="plus" format="2">
  <advance width="420"/>
  <unicode hex="002B"/>
  <outline>
    <contour>
      <point x="394" y="240" type="curve" smooth="yes"/>
      <point x="394" y="265"/>
      <point x="381" y="267"/>
      <point x="376" y="267" type="curve" smooth="yes"/>
      <point x="311" y="267" type="line"/>
      <point x="324" y="329" type="line" smooth="yes"/>
      <point x="330" y="354"/>
      <point x="286" y="354"/>
      <point x="285" y="354" type="curve" smooth="yes"/>
      <point x="264" y="354"/>
      <point x="240" y="345"/>
      <point x="236" y="329" type="curve" smooth="yes"/>
      <point x="223" y="267" type="line"/>
      <point x="158" y="267" type="line" smooth="yes"/>
      <point x="136" y="267"/>
      <point x="122" y="232"/>
      <point x="122" y="210" type="curve" smooth="yes"/>
      <point x="122" y="185"/>
      <point x="135" y="183"/>
      <point x="140" y="183" type="curve" smooth="yes"/>
      <point x="205" y="183" type="line"/>
      <point x="192" y="121" type="line" smooth="yes"/>
      <point x="189" y="104"/>
      <point x="202" y="96"/>
      <point x="231" y="96" type="curve" smooth="yes"/>
      <point x="251" y="96"/>
      <point x="277" y="102"/>
      <point x="280" y="121" type="curve" smooth="yes"/>
      <point x="293" y="183" type="line"/>
      <point x="358" y="183" type="line" smooth="yes"/>
      <point x="380" y="183"/>
      <point x="394" y="218"/>
    </contour>
  </outline>
</glyph>
<glyph name="comma" format="2">
  <advance width="220"/>
  <unicode hex="002C"/>
  <outline>
    <contour>
      <point x="100" y="126" type="curve" smooth="yes"/>
      <point x="58" y="126"/>
      <point x="17" y="86"/>
      <point x="17" y="53" type="curve" smooth="yes"/>
      <point x="17" y="22"/>
      <point x="40" y="-3"/>
      <point x="62" y="-3" type="curve" smooth="yes"/>
      <point x="79" y="-3"/>
      <point x="99" y="15"/>
      <point x="110" y="15" type="curve"/>
      <point x="112" y="13" type="line"/>
      <point x="102" y="-36"/>
      <point x="24" y="-77"/>
      <point x="-3" y="-77" type="curve"/>
      <point x="-13" y="-120" type="line"/>
      <point x="55" y="-120"/>
      <point x="173" y="-35"/>
      <point x="173" y="49" type="curve" smooth="yes"/>
      <point x="173" y="81"/>
      <point x="156" y="126"/>
    </contour>
  </outline>
</glyph>
<glyph name="period" format="2">
  <advance width="220"/>
  <unicode hex="002E"/>
  <outline>
    <contour>
      <point x="177" y="72" type="curve" smooth="yes"/>
      <point x="177" y="102"/>
      <point x="150" y="124"/>
      <point x="115" y="124" type="curve" smooth="yes"/>
      <point x="72" y="124"/>
      <point x="29" y="90"/>
      <point x="29" y="52" type="curve" smooth="yes"/>
      <point x="29" y="17"/>
      <point x="57" y="0"/>
      <point x="89" y="0" type="curve" smooth="yes"/>
      <point x="133" y="0"/>
      <point x="177" y="32"/>
    </contour>
  </outline>
</glyph>
<glyph name="slash" format="2">
  <advance width="450"/>
  <unicode hex="002F"/>
  <outline>
    <contour>
      <point x="450" y="603" type="line"/>
      <point x="379" y="603" type="line"/>
      <point x="0" y="-83" type="line"/>
      <point x="70" y="-83" type="line"/>
    </contour>
  </outline>
</glyph>
<glyph name="zero" format="2">
  <advance width="534"/>
  <unicode hex="0030"/>
  <outline>
    <contour>
      <point x="479" y="284" type="curve" smooth="yes"/>
      <point x="479" y="434"/>
      <point x="348" y="448"/>
      <point x="298" y="448" type="curve" smooth="yes"/>
      <point x="203" y="448"/>
      <point x="144" y="417"/>
      <point x="107" y="377" type="curve" smooth="yes"/>
      <point x="40" y="304"/>
      <point x="28" y="173"/>
      <point x="28" y="145" type="curve" smooth="yes"/>
      <point x="28" y="34"/>
      <point x="107" y="0"/>
      <point x="204" y="0" type="curve" smooth="yes"/>
      <point x="411" y="0"/>
      <point x="479" y="183"/>
    </contour>
    <contour>
      <point x="176" y="65" type="curve" smooth="yes"/>
      <point x="107" y="65"/>
      <point x="92" y="121"/>
      <point x="92" y="170" type="curve" smooth="yes"/>
      <point x="92" y="240"/>
      <point x="131" y="386"/>
      <point x="244" y="386" type="curve" smooth="yes"/>
      <point x="272" y="386"/>
      <point x="339" y="383"/>
      <point x="339" y="285" type="curve" smooth="yes"/>
      <point x="339" y="214"/>
      <point x="302" y="65"/>
    </contour>
  </outline>
</glyph>
<glyph name="one" format="2">
  <advance width="347"/>
  <unicode hex="0031"/>
  <outline>
    <contour>
      <point x="171" y="320" type="curve"/>
      <point x="170" y="318"/>
      <point x="111" y="165"/>
      <point x="106" y="139" type="curve" smooth="yes"/>
      <point x="87" y="56"/>
      <point x="45" y="30"/>
      <point x="45" y="12" type="curve" smooth="yes"/>
      <point x="45" y="1"/>
      <point x="55" y="-4"/>
      <point x="74" y="-4" type="curve" smooth="yes"/>
      <point x="109" y="-4"/>
      <point x="140" y="7"/>
      <point x="169" y="28" type="curve" smooth="yes"/>
      <point x="202" y="53"/>
      <point x="224" y="89"/>
      <point x="234" y="136" type="curve" smooth="yes"/>
      <point x="234" y="137"/>
      <point x="275" y="305"/>
      <point x="275" y="307" type="curve" smooth="yes"/>
      <point x="296" y="399"/>
      <point x="334" y="414"/>
      <point x="334" y="435" type="curve" smooth="yes"/>
      <point x="334" y="445"/>
      <point x="325" y="450"/>
      <point x="307" y="450" type="curve" smooth="yes"/>
      <point x="215" y="450"/>
      <point x="180" y="406"/>
      <point x="162" y="381" type="curve" smooth="yes"/>
      <point x="102" y="296"/>
      <point x="102" y="296"/>
      <point x="63" y="273" type="curve" smooth="yes"/>
      <point x="49" y="264"/>
      <point x="42" y="251"/>
      <point x="42" y="236" type="curve" smooth="yes"/>
      <point x="44" y="225"/>
      <point x="51" y="220"/>
      <point x="63" y="220" type="curve" smooth="yes"/>
      <point x="97" y="220"/>
      <point x="150" y="283"/>
    </contour>
  </outline>
</glyph>
<glyph name="two" format="2">
  <advance width="538"/>
  <unicode hex="0032"/>
  <outline>
    <contour>
      <point x="519" y="481" type="curve" smooth="yes"/>
      <point x="519" y="574"/>
      <point x="450" y="618"/>
      <point x="333" y="618" type="curve" smooth="yes"/>
      <point x="191" y="618"/>
      <point x="92" y="565"/>
      <point x="92" y="482" type="curve" smooth="yes"/>
      <point x="92" y="451"/>
      <point x="119" y="425"/>
      <point x="161" y="425" type="curve" smooth="yes"/>
      <point x="201" y="425"/>
      <point x="210" y="442"/>
      <point x="222" y="450" type="curve"/>
      <point x="240" y="543" type="line"/>
      <point x="251" y="548"/>
      <point x="279" y="560"/>
      <point x="304" y="560" type="curve" smooth="yes"/>
      <point x="333" y="560"/>
      <point x="377" y="540"/>
      <point x="377" y="470" type="curve" smooth="yes"/>
      <point x="377" y="341"/>
      <point x="254" y="246"/>
      <point x="-7" y="63" type="curve"/>
      <point x="-18" y="0" type="line"/>
      <point x="450" y="0" type="line"/>
      <point x="479" y="158" type="line"/>
      <point x="410" y="158" type="line"/>
      <point x="379" y="83" type="line"/>
      <point x="150" y="83" type="line"/>
      <point x="231" y="139"/>
      <point x="315" y="195"/>
      <point x="380" y="251" type="curve" smooth="yes"/>
      <point x="457" y="320"/>
      <point x="519" y="399"/>
    </contour>
  </outline>
</glyph>
<glyph name="four" format="2">
  <advance width="538"/>
  <unicode hex="0034"/>
  <outline>
    <contour>
      <point x="508" y="249" type="line"/>
      <point x="426" y="249" type="line"/>
      <point x="498" y="618" type="line"/>
      <point x="396" y="618" type="line"/>
      <point x="30" y="243" type="line"/>
      <point x="18" y="179" type="line"/>
      <point x="289" y="179" type="line"/>
      <point x="249" y="-24" type="line"/>
      <point x="371" y="-24" type="line"/>
      <point x="411" y="179" type="line"/>
      <point x="494" y="179" type="line"/>
    </contour>
    <contour>
      <point x="340" y="431" type="line"/>
      <point x="304" y="249" type="line"/>
      <point x="163" y="249" type="line"/>
    </contour>
  </outline>
</glyph>
<glyph name="six" format="2">
  <advance width="374"/>
  <unicode hex="0036"/>
  <outline>
    <contour>
      <point x="207" y="291" type="curve" smooth="yes"/>
      <point x="180" y="291"/>
      <point x="156" y="287"/>
      <point x="137" y="280" type="curve"/>
      <point x="179" y="383"/>
      <point x="285" y="393"/>
      <point x="325" y="393" type="curve" smooth="yes"/>
      <point x="374" y="393"/>
      <point x="375" y="423"/>
      <point x="375" y="425" type="curve" smooth="yes"/>
      <point x="375" y="442"/>
      <point x="363" y="450"/>
      <point x="339" y="450" type="curve" smooth="yes"/>
      <point x="48" y="450"/>
      <point x="35" y="159"/>
      <point x="35" y="106" type="curve" smooth="yes"/>
      <point x="35" y="17"/>
      <point x="95" y="0"/>
      <point x="166" y="0" type="curve" smooth="yes"/>
      <point x="223" y="0"/>
      <point x="266" y="17"/>
      <point x="297" y="51" type="curve" smooth="yes"/>
      <point x="341" y="99"/>
      <point x="353" y="179"/>
      <point x="353" y="192" type="curve" smooth="yes"/>
      <point x="353" y="253"/>
      <point x="291" y="291"/>
    </contour>
    <contour>
      <point x="103" y="111" type="curve" smooth="yes"/>
      <point x="103" y="187"/>
      <point x="128" y="220"/>
      <point x="170" y="220" type="curve" smooth="yes"/>
      <point x="203" y="220"/>
      <point x="219" y="205"/>
      <point x="219" y="174" type="curve" smooth="yes"/>
      <point x="219" y="167"/>
      <point x="218" y="158"/>
      <point x="216" y="149" type="curve" smooth="yes"/>
      <point x="200" y="74"/>
      <point x="182" y="57"/>
      <point x="134" y="57" type="curve" smooth="yes"/>
      <point x="112" y="57"/>
      <point x="103" y="78"/>
    </contour>
  </outline>
</glyph>
<glyph name="seven" format="2">
  <advance width="538"/>
  <unicode hex="0037"/>
  <outline>
    <contour>
      <point x="582" y="603" type="line"/>
      <point x="116" y="603" type="line"/>
      <point x="83" y="442" type="line"/>
      <point x="156" y="442" type="line"/>
      <point x="185" y="522" type="line"/>
      <point x="430" y="522" type="line"/>
      <point x="29" y="-33" type="line"/>
      <point x="158" y="-33" type="line"/>
      <point x="164" y="-7" type="line"/>
      <point x="574" y="560" type="line"/>
    </contour>
  </outline>
</glyph>
<glyph name="eight" format="2">
  <advance width="538"/>
  <unicode hex="0038"/>
  <outline>
    <contour>
      <point x="514" y="488" type="curve" smooth="yes"/>
      <point x="514" y="556"/>
      <point x="463" y="618"/>
      <point x="331" y="618" type="curve" smooth="yes"/>
      <point x="171" y="618"/>
      <point x="92" y="522"/>
      <point x="92" y="428" type="curve" smooth="yes"/>
      <point x="92" y="394"/>
      <point x="104" y="352"/>
      <point x="163" y="318" type="curve"/>
      <point x="49" y="267"/>
      <point x="13" y="192"/>
      <point x="13" y="135" type="curve" smooth="yes"/>
      <point x="13" y="51"/>
      <point x="78" y="-14"/>
      <point x="224" y="-14" type="curve" smooth="yes"/>
      <point x="388" y="-14"/>
      <point x="492" y="82"/>
      <point x="492" y="189" type="curve" smooth="yes"/>
      <point x="492" y="261"/>
      <point x="430" y="298"/>
      <point x="382" y="320" type="curve"/>
      <point x="454" y="353"/>
      <point x="514" y="396"/>
    </contour>
    <contour>
      <point x="391" y="480" type="curve" smooth="yes"/>
      <point x="391" y="423"/>
      <point x="360" y="378"/>
      <point x="314" y="350" type="curve"/>
      <point x="256" y="377"/>
      <point x="220" y="405"/>
      <point x="220" y="448" type="curve" smooth="yes"/>
      <point x="220" y="518"/>
      <point x="279" y="566"/>
      <point x="322" y="566" type="curve" smooth="yes"/>
      <point x="373" y="566"/>
      <point x="391" y="530"/>
    </contour>
    <contour>
      <point x="358" y="165" type="curve" smooth="yes"/>
      <point x="358" y="98"/>
      <point x="293" y="43"/>
      <point x="240" y="43" type="curve" smooth="yes"/>
      <point x="169" y="43"/>
      <point x="141" y="91"/>
      <point x="141" y="151" type="curve" smooth="yes"/>
      <point x="141" y="210"/>
      <point x="177" y="254"/>
      <point x="226" y="283" type="curve"/>
      <point x="296" y="251"/>
      <point x="358" y="214"/>
    </contour>
  </outline>
</glyph>
<glyph name="nine" format="2">
  <advance width="435"/>
  <unicode hex="0039"/>
  <outline>
    <contour>
      <point x="389" y="327" type="curve" smooth="yes"/>
      <point x="389" y="419"/>
      <point x="332" y="447"/>
      <point x="234" y="447" type="curve" smooth="yes"/>
      <point x="177" y="447"/>
      <point x="133" y="430"/>
      <point x="103" y="397" type="curve" smooth="yes"/>
      <point x="59" y="349"/>
      <point x="47" y="267"/>
      <point x="47" y="255" type="curve" smooth="yes"/>
      <point x="47" y="189"/>
      <point x="110" y="142"/>
      <point x="185" y="142" type="curve" smooth="yes"/>
      <point x="220" y="142"/>
      <point x="253" y="152"/>
      <point x="284" y="171" type="curve"/>
      <point x="236" y="66"/>
      <point x="120" y="55"/>
      <point x="76" y="55" type="curve" smooth="yes"/>
      <point x="27" y="55"/>
      <point x="26" y="25"/>
      <point x="26" y="23" type="curve" smooth="yes"/>
      <point x="26" y="6"/>
      <point x="38" y="-2"/>
      <point x="62" y="-2" type="curve" smooth="yes"/>
      <point x="381" y="-2"/>
      <point x="389" y="296"/>
    </contour>
    <contour>
      <point x="232" y="212" type="curve"/>
      <point x="180" y="216"/>
      <point x="177" y="261"/>
      <point x="177" y="272" type="curve" smooth="yes"/>
      <point x="177" y="281"/>
      <point x="178" y="289"/>
      <point x="179" y="294" type="curve" smooth="yes"/>
      <point x="196" y="373"/>
      <point x="224" y="390"/>
      <point x="266" y="390" type="curve" smooth="yes"/>
      <point x="290" y="390"/>
      <point x="322" y="370"/>
      <point x="322" y="324" type="curve" smooth="yes"/>
      <point x="322" y="302"/>
      <point x="305" y="212"/>
    </contour>
  </outline>
</glyph>
<glyph name="semicolon" format="2">
  <advance width="235"/>
  <unicode hex="003B"/>
  <outline>
    <contour>
      <point x="234" y="337" type="curve" smooth="yes"/>
      <point x="234" y="371"/>
      <point x="208" y="394"/>
      <point x="174" y="394" type="curve" smooth="yes"/>
      <point x="136" y="394"/>
      <point x="86" y="359"/>
      <point x="86" y="312" type="curve" smooth="yes"/>
      <point x="86" y="258"/>
      <point x="133" y="255"/>
      <point x="144" y="255" type="curve" smooth="yes"/>
      <point x="188" y="255"/>
      <point x="234" y="293"/>
    </contour>
    <contour>
      <point x="102" y="136" type="curve" smooth="yes"/>
      <point x="63" y="136"/>
      <point x="19" y="100"/>
      <point x="19" y="59" type="curve" smooth="yes"/>
      <point x="19" y="28"/>
      <point x="42" y="2"/>
      <point x="63" y="2" type="curve" smooth="yes"/>
      <point x="78" y="2"/>
      <point x="98" y="21"/>
      <point x="111" y="21" type="curve"/>
      <point x="113" y="19" type="line"/>
      <point x="103" y="-32"/>
      <point x="21" y="-83"/>
      <point x="-5" y="-85" type="curve"/>
      <point x="-13" y="-120" type="line"/>
      <point x="52" y="-120"/>
      <point x="174" y="-36"/>
      <point x="174" y="58" type="curve" smooth="yes"/>
      <point x="174" y="92"/>
      <point x="155" y="136"/>
    </contour>
  </outline>
</glyph>
<glyph name="less" format="2">
  <advance width="527"/>
  <unicode hex="003C"/>
  <outline>
    <contour>
      <point x="436" y="-6" type="line"/>
      <point x="451" y="64" type="line"/>
      <point x="156" y="202" type="line"/>
      <point x="509" y="340" type="line"/>
      <point x="524" y="410" type="line"/>
      <point x="62" y="231" type="line"/>
      <point x="50" y="174" type="line"/>
    </contour>
  </outline>
</glyph>
<glyph name="equal" format="2">
  <advance width="564"/>
  <unicode hex="003D"/>
  <outline>
    <contour>
      <point x="556" y="293" type="line"/>
      <point x="570" y="359" type="line"/>
      <point x="146" y="359" type="line"/>
      <point x="132" y="293" type="line"/>
    </contour>
    <contour>
      <point x="525" y="147" type="line"/>
      <point x="539" y="213" type="line"/>
      <point x="115" y="213" type="line"/>
      <point x="101" y="147" type="line"/>
    </contour>
  </outline>
</glyph>
<glyph name="at" format="2">
  <advance width="759"/>
  <unicode hex="0040"/>
  <outline>
    <contour>
      <point x="729" y="241" type="curve"/>
      <point x="760" y="460"/>
      <point x="625" y="585"/>
      <point x="456" y="585" type="curve" smooth="yes"/>
      <point x="232" y="585"/>
      <point x="54" y="402"/>
      <point x="26" y="204" type="curve" smooth="yes"/>
      <point x="-5" y="-20"/>
      <point x="152" y="-164"/>
      <point x="355" y="-164" type="curve" smooth="yes"/>
      <point x="490" y="-164"/>
      <point x="595" y="-91"/>
      <point x="640" y="-47" type="curve"/>
      <point x="624" y="0" type="line"/>
      <point x="587" y="-30"/>
      <point x="489" y="-90"/>
      <point x="392" y="-90" type="curve" smooth="yes"/>
      <point x="255" y="-90"/>
      <point x="114" y="8"/>
      <point x="143" y="221" type="curve"/>
      <point x="166" y="379"/>
      <point x="279" y="515"/>
      <point x="419" y="515" type="curve" smooth="yes"/>
      <point x="549" y="515"/>
      <point x="653" y="422"/>
      <point x="624" y="224" type="curve" smooth="yes"/>
      <point x="609" y="124"/>
      <point x="586" y="80"/>
      <point x="556" y="80" type="curve" smooth="yes"/>
      <point x="542" y="80"/>
      <point x="531" y="99"/>
      <point x="531" y="135" type="curve" smooth="yes"/>
      <point x="531" y="161"/>
      <point x="540" y="232"/>
      <point x="558" y="316" type="curve"/>
      <point x="566" y="355"/>
      <point x="573" y="362"/>
      <point x="593" y="378" type="curve"/>
      <point x="577" y="411" type="line"/>
      <point x="538" y="392"/>
      <point x="453" y="365"/>
      <point x="447" y="338" type="curve"/>
      <point x="441" y="304"/>
      <point x="414" y="157"/>
      <point x="414" y="123" type="curve" smooth="yes"/>
      <point x="414" y="6"/>
      <point x="460" y="-18"/>
      <point x="480" y="-18" type="curve" smooth="yes"/>
      <point x="550" y="-18"/>
      <point x="708" y="89"/>
    </contour>
    <contour>
      <point x="553" y="372" type="curve"/>
      <point x="532" y="374"/>
      <point x="492" y="411"/>
      <point x="452" y="411" type="curve" smooth="yes"/>
      <point x="415" y="411"/>
      <point x="356" y="391"/>
      <point x="325" y="370" type="curve" smooth="yes"/>
      <point x="242" y="313"/>
      <point x="194" y="226"/>
      <point x="194" y="134" type="curve" smooth="yes"/>
      <point x="194" y="24"/>
      <point x="257" y="-18"/>
      <point x="296" y="-18" type="curve" smooth="yes"/>
      <point x="338" y="-18"/>
      <point x="396" y="29"/>
      <point x="425" y="83" type="curve"/>
      <point x="432" y="170" type="line"/>
      <point x="386" y="98"/>
      <point x="355" y="77"/>
      <point x="337" y="77" type="curve" smooth="yes"/>
      <point x="325" y="77"/>
      <point x="307" y="104"/>
      <point x="307" y="166" type="curve" smooth="yes"/>
      <point x="307" y="235"/>
      <point x="336" y="343"/>
      <point x="403" y="343" type="curve" smooth="yes"/>
      <point x="442" y="343"/>
      <point x="486" y="268"/>
      <point x="503" y="268" type="curve" smooth="yes"/>
      <point x="517" y="268"/>
      <point x="528" y="355"/>
    </contour>
  </outline>
</glyph>
<glyph name="A" format="2">
  <advance width="643"/>
  <unicode hex="0041"/>
  <outline>
    <contour>
      <point x="601" y="0" type="line"/>
      <point x="601" y="44" type="line"/>
      <point x="581" y="46"/>
      <point x="559" y="48"/>
      <point x="559" y="48" type="curve"/>
      <point x="546" y="50"/>
      <point x="543" y="52"/>
      <point x="541" y="63" type="curve" smooth="yes"/>
      <point x="443" y="618" type="line"/>
      <point x="337" y="618" type="line"/>
      <point x="4" y="50" type="line"/>
      <point x="-47" y="44" type="line"/>
      <point x="-47" y="0" type="line"/>
      <point x="183" y="0" type="line"/>
      <point x="183" y="44" type="line"/>
      <point x="161" y="46"/>
      <point x="136" y="49"/>
      <point x="136" y="49" type="curve"/>
      <point x="125" y="50"/>
      <point x="119" y="54"/>
      <point x="125" y="62" type="curve" smooth="yes"/>
      <point x="214" y="227" type="line"/>
      <point x="384" y="227" type="line"/>
      <point x="410" y="62" type="line" smooth="yes"/>
      <point x="412" y="52"/>
      <point x="405" y="50"/>
      <point x="393" y="49" type="curve"/>
      <point x="393" y="49"/>
      <point x="370" y="46"/>
      <point x="352" y="44" type="curve"/>
      <point x="352" y="0" type="line"/>
    </contour>
    <contour>
      <point x="374" y="279" type="line"/>
      <point x="243" y="279" type="line"/>
      <point x="344" y="453" type="line"/>
    </contour>
  </outline>
</glyph>
<glyph name="B" format="2">
  <advance width="584"/>
  <unicode hex="0042"/>
  <outline>
    <contour>
      <point x="554" y="486" type="curve" smooth="yes"/>
      <point x="554" y="551"/>
      <point x="510" y="603"/>
      <point x="357" y="603" type="curve" smooth="yes"/>
      <point x="85" y="603" type="line"/>
      <point x="85" y="558" type="line"/>
      <point x="112" y="556"/>
      <point x="139" y="554"/>
      <point x="139" y="554" type="curve"/>
      <point x="150" y="553"/>
      <point x="155" y="550"/>
      <point x="153" y="540" type="curve" smooth="yes"/>
      <point x="60" y="63" type="line"/>
      <point x="58" y="51"/>
      <point x="53" y="49"/>
      <point x="43" y="49" type="curve" smooth="yes"/>
      <point x="43" y="49"/>
      <point x="15" y="47"/>
      <point x="-13" y="44" type="curve"/>
      <point x="-13" y="0" type="line"/>
      <point x="251" y="0" type="line" smooth="yes"/>
      <point x="424" y="0"/>
      <point x="536" y="60"/>
      <point x="536" y="203" type="curve" smooth="yes"/>
      <point x="536" y="274"/>
      <point x="490" y="307"/>
      <point x="412" y="322" type="curve"/>
      <point x="493" y="351"/>
      <point x="554" y="398"/>
    </contour>
    <contour>
      <point x="416" y="479" type="curve" smooth="yes"/>
      <point x="416" y="396"/>
      <point x="354" y="336"/>
      <point x="265" y="336" type="curve" smooth="yes"/>
      <point x="261" y="336"/>
      <point x="252" y="336"/>
      <point x="243" y="337" type="curve"/>
      <point x="285" y="555" type="line"/>
      <point x="293" y="555"/>
      <point x="303" y="556"/>
      <point x="313" y="556" type="curve" smooth="yes"/>
      <point x="367" y="556"/>
      <point x="416" y="537"/>
    </contour>
    <contour>
      <point x="400" y="194" type="curve" smooth="yes"/>
      <point x="400" y="97"/>
      <point x="328" y="49"/>
      <point x="222" y="49" type="curve" smooth="yes"/>
      <point x="213" y="49"/>
      <point x="199" y="49"/>
      <point x="186" y="50" type="curve"/>
      <point x="232" y="285" type="line"/>
      <point x="249" y="286"/>
      <point x="266" y="287"/>
      <point x="281" y="287" type="curve" smooth="yes"/>
      <point x="344" y="287"/>
      <point x="400" y="268"/>
    </contour>
  </outline>
</glyph>
<glyph name="C" format="2">
  <advance width="604"/>
  <unicode hex="0043"/>
  <anchor x="290" y="0" name="H"/>
  <anchor x="418" y="659" name="U"/>
  <outline>
    <contour>
      <point x="618" y="580" type="line"/>
      <point x="547" y="602"/>
      <point x="493" y="618"/>
      <point x="424" y="618" type="curve" smooth="yes"/>
      <point x="185" y="618"/>
      <point x="43" y="426"/>
      <point x="43" y="241" type="curve" smooth="yes"/>
      <point x="43" y="118"/>
      <point x="109" y="-14"/>
      <point x="312" y="-14" type="curve" smooth="yes"/>
      <point x="396" y="-14"/>
      <point x="469" y="7"/>
      <point x="515" y="24" type="curve"/>
      <point x="543" y="187" type="line"/>
      <point x="475" y="187" type="line"/>
      <point x="432" y="68" type="line" smooth="yes"/>
      <point x="430" y="61"/>
      <point x="425" y="55"/>
      <point x="417" y="53" type="curve" smooth="yes"/>
      <point x="405" y="49"/>
      <point x="369" y="40"/>
      <point x="341" y="40" type="curve" smooth="yes"/>
      <point x="264" y="40"/>
      <point x="176" y="94"/>
      <point x="176" y="231" type="curve" smooth="yes"/>
      <point x="176" y="439"/>
      <point x="314" y="563"/>
      <point x="428" y="563" type="curve" smooth="yes"/>
      <point x="455" y="563"/>
      <point x="500" y="548"/>
      <point x="511" y="544" type="curve" smooth="yes"/>
      <point x="522" y="538"/>
      <point x="524" y="529"/>
      <point x="524" y="522" type="curve"/>
      <point x="523" y="422" type="line"/>
      <point x="590" y="422" type="line"/>
    </contour>
  </outline>
</glyph>
<glyph name="D" format="2">
  <advance width="641"/>
  <unicode hex="0044"/>
  <outline>
    <contour>
      <point x="625" y="372" type="curve" smooth="yes"/>
      <point x="625" y="538"/>
      <point x="505" y="603"/>
      <point x="319" y="603" type="curve" smooth="yes"/>
      <point x="85" y="603" type="line"/>
      <point x="85" y="558" type="line"/>
      <point x="110" y="556"/>
      <point x="137" y="554"/>
      <point x="137" y="554" type="curve"/>
      <point x="148" y="553"/>
      <point x="155" y="551"/>
      <point x="153" y="540" type="curve" smooth="yes"/>
      <point x="60" y="63" type="line" smooth="yes"/>
      <point x="57" y="51"/>
      <point x="54" y="49"/>
      <point x="40" y="48" type="curve"/>
      <point x="40" y="48"/>
      <point x="12" y="47"/>
      <point x="-13" y="44" type="curve"/>
      <point x="-13" y="0" type="line"/>
      <point x="217" y="0" type="line" smooth="yes"/>
      <point x="470" y="0"/>
      <point x="625" y="158"/>
    </contour>
    <contour>
      <point x="490" y="380" type="curve" smooth="yes"/>
      <point x="490" y="208"/>
      <point x="391" y="57"/>
      <point x="232" y="55" type="curve" smooth="yes"/>
      <point x="187" y="55" type="line"/>
      <point x="284" y="549" type="line"/>
      <point x="297" y="549" type="line" smooth="yes"/>
      <point x="389" y="547"/>
      <point x="490" y="529"/>
    </contour>
  </outline>
</glyph>
<glyph name="E" format="2">
  <advance width="540"/>
  <unicode hex="0045"/>
  <anchor x="223" y="0" name="H"/>
  <anchor x="341" y="659" name="U"/>
  <outline>
    <contour>
      <point x="560" y="603" type="line"/>
      <point x="86" y="603" type="line"/>
      <point x="86" y="558" type="line"/>
      <point x="110" y="556"/>
      <point x="137" y="554"/>
      <point x="137" y="554" type="curve"/>
      <point x="149" y="553"/>
      <point x="156" y="551"/>
      <point x="153" y="540" type="curve"/>
      <point x="60" y="63" type="line" smooth="yes"/>
      <point x="58" y="52"/>
      <point x="54" y="50"/>
      <point x="40" y="49" type="curve"/>
      <point x="40" y="49"/>
      <point x="13" y="47"/>
      <point x="-13" y="44" type="curve"/>
      <point x="-13" y="0" type="line"/>
      <point x="473" y="0" type="line"/>
      <point x="504" y="156" type="line"/>
      <point x="433" y="156" type="line"/>
      <point x="405" y="66" type="line" smooth="yes"/>
      <point x="402" y="59"/>
      <point x="388" y="54"/>
      <point x="379" y="54" type="curve" smooth="yes"/>
      <point x="188" y="54" type="line"/>
      <point x="232" y="286" type="line"/>
      <point x="336" y="286" type="line" smooth="yes"/>
      <point x="344" y="286"/>
      <point x="358" y="280"/>
      <point x="356" y="273" type="curve"/>
      <point x="347" y="206" type="line"/>
      <point x="413" y="206" type="line"/>
      <point x="455" y="417" type="line"/>
      <point x="389" y="417" type="line"/>
      <point x="370" y="354" type="line" smooth="yes"/>
      <point x="368" y="345"/>
      <point x="354" y="341"/>
      <point x="345" y="341" type="curve" smooth="yes"/>
      <point x="243" y="341" type="line"/>
      <point x="284" y="549" type="line"/>
      <point x="439" y="549" type="line" smooth="yes"/>
      <point x="449" y="549"/>
      <point x="460" y="547"/>
      <point x="460" y="538" type="curve" smooth="yes"/>
      <point x="460" y="461" type="line"/>
      <point x="531" y="461" type="line"/>
    </contour>
  </outline>
</glyph>
<glyph name="F" format="2">
  <advance width="428"/>
  <unicode hex="0046"/>
  <anchor x="264" y="580" name="U"/>
  <outline>
    <contour>
      <point x="460" y="538" type="curve"/>
      <point x="445" y="553" type="line"/>
      <point x="231" y="553" type="line"/>
      <point x="211" y="496" type="line"/>
      <point x="369" y="496" type="line" smooth="yes"/>
      <point x="390" y="496"/>
      <point x="396" y="462"/>
      <point x="391" y="408" type="curve"/>
      <point x="426" y="408" type="line"/>
      <point x="436" y="431"/>
      <point x="455" y="508"/>
    </contour>
    <contour>
      <point x="371" y="306" type="curve"/>
      <point x="358" y="322" type="line"/>
      <point x="179" y="322" type="line"/>
      <point x="113" y="270" type="line"/>
      <point x="247" y="270" type="line" smooth="yes"/>
      <point x="293" y="270"/>
      <point x="311" y="263"/>
      <point x="325" y="246" type="curve"/>
      <point x="337" y="255"/>
      <point x="359" y="285"/>
    </contour>
    <contour>
      <point x="300" y="553" type="line"/>
      <point x="71" y="553" type="line"/>
      <point x="66" y="517" type="line"/>
      <point x="104" y="508"/>
      <point x="118" y="497"/>
      <point x="117" y="489" type="curve" smooth="yes"/>
      <point x="59" y="63" type="line" smooth="yes"/>
      <point x="58" y="55"/>
      <point x="38" y="44"/>
      <point x="0" y="36" type="curve"/>
      <point x="-4" y="0" type="line"/>
      <point x="232" y="0" type="line"/>
      <point x="237" y="36" type="line"/>
      <point x="185" y="47"/>
      <point x="172" y="56"/>
      <point x="173" y="63" type="curve" smooth="yes"/>
      <point x="233" y="499" type="line" smooth="yes"/>
      <point x="234" y="507"/>
      <point x="257" y="513"/>
      <point x="295" y="517" type="curve"/>
    </contour>
  </outline>
</glyph>
<glyph name="G" format="2">
  <advance width="656"/>
  <unicode hex="0047"/>
  <outline>
    <contour>
      <point x="645" y="250" type="line"/>
      <point x="645" y="297" type="line"/>
      <point x="375" y="297" type="line"/>
      <point x="375" y="250" type="line"/>
      <point x="399" y="249"/>
      <point x="425" y="247"/>
      <point x="425" y="247" type="curve"/>
      <point x="439" y="246"/>
      <point x="444" y="243"/>
      <point x="442" y="232" type="curve" smooth="yes"/>
      <point x="407" y="54" type="line"/>
      <point x="391" y="50"/>
      <point x="359" y="42"/>
      <point x="335" y="42" type="curve" smooth="yes"/>
      <point x="294" y="42"/>
      <point x="180" y="82"/>
      <point x="180" y="228" type="curve" smooth="yes"/>
      <point x="180" y="436"/>
      <point x="328" y="560"/>
      <point x="439" y="560" type="curve" smooth="yes"/>
      <point x="467" y="560"/>
      <point x="499" y="547"/>
      <point x="511" y="543" type="curve"/>
      <point x="523" y="539"/>
      <point x="535" y="533"/>
      <point x="534" y="522" type="curve" smooth="yes"/>
      <point x="526" y="420" type="line"/>
      <point x="602" y="420" type="line"/>
      <point x="636" y="584" type="line"/>
      <point x="563" y="607"/>
      <point x="518" y="618"/>
      <point x="450" y="618" type="curve" smooth="yes"/>
      <point x="232" y="618"/>
      <point x="43" y="466"/>
      <point x="43" y="242" type="curve" smooth="yes"/>
      <point x="43" y="146"/>
      <point x="88" y="-14"/>
      <point x="317" y="-14" type="curve" smooth="yes"/>
      <point x="394" y="-14"/>
      <point x="479" y="8"/>
      <point x="529" y="23" type="curve"/>
      <point x="571" y="232" type="line" smooth="yes"/>
      <point x="573" y="241"/>
      <point x="576" y="245"/>
      <point x="584" y="246" type="curve" smooth="yes"/>
    </contour>
  </outline>
</glyph>
<glyph name="H" format="2">
  <advance width="584"/>
  <unicode hex="0048"/>
  <anchor x="107" y="0" name="H"/>
  <anchor x="346" y="580" name="U"/>
  <outline>
    <contour>
      <point x="610" y="553" type="line"/>
      <point x="385" y="553" type="line"/>
      <point x="380" y="517" type="line"/>
      <point x="418" y="508"/>
      <point x="432" y="497"/>
      <point x="431" y="489" type="curve" smooth="yes"/>
      <point x="373" y="63" type="line" smooth="yes"/>
      <point x="372" y="55"/>
      <point x="352" y="44"/>
      <point x="314" y="36" type="curve"/>
      <point x="309" y="0" type="line"/>
      <point x="534" y="0" type="line"/>
      <point x="539" y="36" type="line"/>
      <point x="501" y="44"/>
      <point x="486" y="56"/>
      <point x="487" y="63" type="curve" smooth="yes"/>
      <point x="546" y="489" type="line" smooth="yes"/>
      <point x="547" y="498"/>
      <point x="567" y="508"/>
      <point x="605" y="517" type="curve"/>
    </contour>
    <contour>
      <point x="416" y="318" type="line"/>
      <point x="196" y="318" type="line"/>
      <point x="188" y="261" type="line"/>
      <point x="408" y="261" type="line"/>
    </contour>
    <contour>
      <point x="295" y="553" type="line"/>
      <point x="70" y="553" type="line"/>
      <point x="65" y="517" type="line"/>
      <point x="103" y="508"/>
      <point x="118" y="497"/>
      <point x="117" y="489" type="curve" smooth="yes"/>
      <point x="58" y="63" type="line" smooth="yes"/>
      <point x="58" y="55"/>
      <point x="37" y="44"/>
      <point x="0" y="36" type="curve"/>
      <point x="-4" y="0" type="line"/>
      <point x="220" y="0" type="line"/>
      <point x="225" y="36" type="line"/>
      <point x="185" y="44"/>
      <point x="172" y="56"/>
      <point x="173" y="63" type="curve" smooth="yes"/>
      <point x="231" y="489" type="line" smooth="yes"/>
      <point x="232" y="498"/>
      <point x="252" y="508"/>
      <point x="290" y="517" type="curve"/>
    </contour>
  </outline>
</glyph>
<glyph name="I" format="2">
  <advance width="286"/>
  <unicode hex="0049"/>
  <anchor x="118" y="0" name="H"/>
  <anchor x="191" y="580" name="U"/>
  <outline>
    <contour>
      <point x="304" y="553" type="line"/>
      <point x="79" y="553" type="line"/>
      <point x="75" y="517" type="line"/>
      <point x="112" y="508"/>
      <point x="127" y="497"/>
      <point x="126" y="489" type="curve" smooth="yes"/>
      <point x="67" y="63" type="line" smooth="yes"/>
      <point x="66" y="55"/>
      <point x="46" y="44"/>
      <point x="9" y="36" type="curve"/>
      <point x="4" y="0" type="line"/>
      <point x="228" y="0" type="line"/>
      <point x="233" y="36" type="line"/>
      <point x="195" y="44"/>
      <point x="181" y="56"/>
      <point x="182" y="63" type="curve" smooth="yes"/>
      <point x="240" y="489" type="line" smooth="yes"/>
      <point x="242" y="498"/>
      <point x="261" y="508"/>
      <point x="299" y="517" type="curve"/>
    </contour>
  </outline>
</glyph>
<glyph name="J" format="2">
  <advance width="458"/>
  <unicode hex="004A"/>
  <outline>
    <contour>
      <point x="493" y="558" type="line"/>
      <point x="493" y="603" type="line"/>
      <point x="222" y="603" type="line"/>
      <point x="222" y="558" type="line"/>
      <point x="247" y="556"/>
      <point x="275" y="554"/>
      <point x="275" y="554" type="curve"/>
      <point x="286" y="553"/>
      <point x="293" y="551"/>
      <point x="291" y="540" type="curve" smooth="yes"/>
      <point x="232" y="224" type="line" smooth="yes"/>
      <point x="209" y="100"/>
      <point x="178" y="41"/>
      <point x="126" y="41" type="curve" smooth="yes"/>
      <point x="112" y="41"/>
      <point x="86" y="49"/>
      <point x="86" y="59" type="curve" smooth="yes"/>
      <point x="86" y="172" type="line"/>
      <point x="12" y="172" type="line"/>
      <point x="-18" y="16" type="line"/>
      <point x="-5" y="10"/>
      <point x="39" y="-14"/>
      <point x="119" y="-14" type="curve" smooth="yes"/>
      <point x="297" y="-14"/>
      <point x="336" y="89"/>
      <point x="362" y="231" type="curve" smooth="yes"/>
      <point x="420" y="540" type="line" smooth="yes"/>
      <point x="422" y="547"/>
      <point x="424" y="553"/>
      <point x="432" y="553" type="curve"/>
    </contour>
  </outline>
</glyph>
<glyph name="K" format="2">
  <advance width="628"/>
  <unicode hex="004B"/>
  <anchor x="108" y="0" name="H"/>
  <anchor x="397" y="659" name="U"/>
  <outline>
    <contour>
      <point x="660" y="558" type="line"/>
      <point x="660" y="603" type="line"/>
      <point x="398" y="603" type="line"/>
      <point x="398" y="558" type="line"/>
      <point x="419" y="557"/>
      <point x="445" y="555"/>
      <point x="445" y="555" type="curve"/>
      <point x="457" y="554"/>
      <point x="462" y="549"/>
      <point x="453" y="541" type="curve" smooth="yes"/>
      <point x="250" y="344" type="line"/>
      <point x="243" y="344" type="line"/>
      <point x="282" y="540" type="line" smooth="yes"/>
      <point x="285" y="551"/>
      <point x="290" y="554"/>
      <point x="299" y="555" type="curve"/>
      <point x="299" y="555"/>
      <point x="324" y="556"/>
      <point x="349" y="558" type="curve"/>
      <point x="349" y="603" type="line"/>
      <point x="94" y="603" type="line"/>
      <point x="94" y="558" type="line"/>
      <point x="117" y="556"/>
      <point x="142" y="555"/>
      <point x="142" y="555" type="curve"/>
      <point x="151" y="554"/>
      <point x="156" y="551"/>
      <point x="153" y="540" type="curve"/>
      <point x="59" y="63" type="line" smooth="yes"/>
      <point x="57" y="52"/>
      <point x="51" y="48"/>
      <point x="42" y="48" type="curve" smooth="yes"/>
      <point x="42" y="48"/>
      <point x="8" y="46"/>
      <point x="-14" y="44" type="curve"/>
      <point x="-14" y="0" type="line"/>
      <point x="249" y="0" type="line"/>
      <point x="249" y="44" type="line"/>
      <point x="227" y="46"/>
      <point x="202" y="48"/>
      <point x="202" y="48" type="curve"/>
      <point x="192" y="49"/>
      <point x="186" y="51"/>
      <point x="188" y="62" type="curve" smooth="yes"/>
      <point x="227" y="261" type="line"/>
      <point x="248" y="261" type="line"/>
      <point x="356" y="55" type="line" smooth="yes"/>
      <point x="382" y="6"/>
      <point x="406" y="-14"/>
      <point x="479" y="-14" type="curve" smooth="yes"/>
      <point x="512" y="-14"/>
      <point x="550" y="-7"/>
      <point x="583" y="2" type="curve"/>
      <point x="583" y="47" type="line"/>
      <point x="580" y="47"/>
      <point x="535" y="43"/>
      <point x="526" y="43" type="curve" smooth="yes"/>
      <point x="498" y="44"/>
      <point x="494" y="53"/>
      <point x="474" y="92" type="curve" smooth="yes"/>
      <point x="349" y="330" type="line"/>
      <point x="581" y="551" type="line"/>
    </contour>
  </outline>
</glyph>
<glyph name="L" format="2">
  <advance width="504"/>
  <unicode hex="004C"/>
  <outline>
    <contour>
      <point x="475" y="181" type="line"/>
      <point x="407" y="181" type="line"/>
      <point x="370" y="66" type="line" smooth="yes"/>
      <point x="368" y="59"/>
      <point x="354" y="54"/>
      <point x="345" y="54" type="curve" smooth="yes"/>
      <point x="187" y="54" type="line"/>
      <point x="282" y="540" type="line"/>
      <point x="285" y="550"/>
      <point x="291" y="553"/>
      <point x="299" y="554" type="curve"/>
      <point x="299" y="554"/>
      <point x="328" y="556"/>
      <point x="358" y="558" type="curve"/>
      <point x="358" y="603" type="line"/>
      <point x="86" y="603" type="line"/>
      <point x="86" y="558" type="line"/>
      <point x="112" y="556"/>
      <point x="139" y="554"/>
      <point x="139" y="554" type="curve"/>
      <point x="149" y="553"/>
      <point x="156" y="550"/>
      <point x="153" y="540" type="curve"/>
      <point x="60" y="63" type="line" smooth="yes"/>
      <point x="58" y="52"/>
      <point x="54" y="50"/>
      <point x="37" y="48" type="curve"/>
      <point x="37" y="48"/>
      <point x="10" y="47"/>
      <point x="-13" y="44" type="curve"/>
      <point x="-13" y="0" type="line"/>
      <point x="439" y="0" type="line"/>
    </contour>
  </outline>
</glyph>
<glyph name="M" format="2">
  <advance width="813"/>
  <unicode hex="004D"/>
  <outline>
    <contour>
      <point x="850" y="558" type="line"/>
      <point x="850" y="603" type="line"/>
      <point x="604" y="603" type="line"/>
      <point x="604" y="570" type="line"/>
      <point x="393" y="195" type="line"/>
      <point x="324" y="574" type="line"/>
      <point x="324" y="603" type="line"/>
      <point x="85" y="603" type="line"/>
      <point x="85" y="558" type="line"/>
      <point x="110" y="556"/>
      <point x="137" y="554"/>
      <point x="137" y="554" type="curve"/>
      <point x="149" y="553"/>
      <point x="155" y="551"/>
      <point x="153" y="540" type="curve" smooth="yes"/>
      <point x="61" y="63" type="line" smooth="yes"/>
      <point x="58" y="52"/>
      <point x="50" y="50"/>
      <point x="37" y="49" type="curve"/>
      <point x="37" y="49"/>
      <point x="11" y="47"/>
      <point x="-12" y="44" type="curve"/>
      <point x="-12" y="0" type="line"/>
      <point x="231" y="0" type="line"/>
      <point x="231" y="44" type="line"/>
      <point x="203" y="47"/>
      <point x="176" y="49"/>
      <point x="176" y="49" type="curve"/>
      <point x="168" y="50"/>
      <point x="161" y="53"/>
      <point x="163" y="62" type="curve"/>
      <point x="227" y="405" type="line"/>
      <point x="300" y="0" type="line"/>
      <point x="388" y="0" type="line"/>
      <point x="622" y="411" type="line"/>
      <point x="555" y="63" type="line" smooth="yes"/>
      <point x="553" y="53"/>
      <point x="545" y="49"/>
      <point x="535" y="49" type="curve" smooth="yes"/>
      <point x="535" y="49"/>
      <point x="507" y="47"/>
      <point x="480" y="44" type="curve"/>
      <point x="480" y="0" type="line"/>
      <point x="752" y="0" type="line"/>
      <point x="752" y="44" type="line"/>
      <point x="727" y="47"/>
      <point x="700" y="49"/>
      <point x="700" y="49" type="curve"/>
      <point x="688" y="50"/>
      <point x="682" y="52"/>
      <point x="683" y="62" type="curve" smooth="yes"/>
      <point x="776" y="540" type="line" smooth="yes"/>
      <point x="778" y="547"/>
      <point x="781" y="551"/>
      <point x="789" y="552" type="curve" smooth="yes"/>
    </contour>
  </outline>
</glyph>
<glyph name="N" format="2">
  <advance width="677"/>
  <unicode hex="004E"/>
  <outline>
    <contour>
      <point x="717" y="558" type="line"/>
      <point x="717" y="603" type="line"/>
      <point x="470" y="603" type="line"/>
      <point x="470" y="558" type="line"/>
      <point x="494" y="556"/>
      <point x="522" y="554"/>
      <point x="522" y="554" type="curve"/>
      <point x="532" y="553"/>
      <point x="541" y="551"/>
      <point x="539" y="540" type="curve"/>
      <point x="473" y="209" type="line"/>
      <point x="297" y="576" type="line"/>
      <point x="297" y="603" type="line"/>
      <point x="86" y="603" type="line"/>
      <point x="86" y="558" type="line"/>
      <point x="111" y="556"/>
      <point x="137" y="554"/>
      <point x="137" y="554" type="curve"/>
      <point x="149" y="553"/>
      <point x="156" y="551"/>
      <point x="153" y="540" type="curve"/>
      <point x="61" y="63" type="line" smooth="yes"/>
      <point x="58" y="52"/>
      <point x="51" y="50"/>
      <point x="38" y="49" type="curve"/>
      <point x="38" y="49"/>
      <point x="12" y="47"/>
      <point x="-12" y="44" type="curve"/>
      <point x="-12" y="0" type="line"/>
      <point x="233" y="0" type="line"/>
      <point x="233" y="44" type="line"/>
      <point x="207" y="47"/>
      <point x="181" y="49"/>
      <point x="181" y="49" type="curve"/>
      <point x="169" y="50"/>
      <point x="163" y="52"/>
      <point x="165" y="62" type="curve" smooth="yes"/>
      <point x="235" y="418" type="line"/>
      <point x="436" y="0" type="line"/>
      <point x="536" y="0" type="line"/>
      <point x="643" y="540" type="line" smooth="yes"/>
      <point x="645" y="547"/>
      <point x="650" y="552"/>
      <point x="658" y="553" type="curve" smooth="yes"/>
    </contour>
  </outline>
</glyph>
<glyph name="O" format="2">
  <advance width="676"/>
  <unicode hex="004F"/>
  <anchor x="293" y="0" name="H"/>
  <anchor x="411" y="659" name="U"/>
  <outline>
    <contour>
      <point x="659" y="375" type="curve" smooth="yes"/>
      <point x="659" y="503"/>
      <point x="570" y="618"/>
      <point x="396" y="618" type="curve" smooth="yes"/>
      <point x="174" y="618"/>
      <point x="43" y="424"/>
      <point x="43" y="236" type="curve" smooth="yes"/>
      <point x="43" y="90"/>
      <point x="139" y="-14"/>
      <point x="306" y="-14" type="curve" smooth="yes"/>
      <point x="542" y="-14"/>
      <point x="659" y="190"/>
    </contour>
    <contour>
      <point x="519" y="375" type="curve" smooth="yes"/>
      <point x="519" y="218"/>
      <point x="419" y="41"/>
      <point x="313" y="41" type="curve" smooth="yes"/>
      <point x="254" y="41"/>
      <point x="182" y="105"/>
      <point x="182" y="229" type="curve" smooth="yes"/>
      <point x="182" y="391"/>
      <point x="281" y="564"/>
      <point x="388" y="564" type="curve" smooth="yes"/>
      <point x="450" y="564"/>
      <point x="519" y="495"/>
    </contour>
  </outline>
</glyph>
<glyph name="P" format="2">
  <advance width="481"/>
  <unicode hex="0050"/>
  <anchor x="286" y="580" name="U"/>
  <outline>
    <contour>
      <point x="494" y="413" type="curve" smooth="yes"/>
      <point x="494" y="514"/>
      <point x="412" y="566"/>
      <point x="267" y="566" type="curve" smooth="yes"/>
      <point x="205" y="566"/>
      <point x="118" y="555"/>
      <point x="57" y="538" type="curve"/>
      <point x="57" y="494" type="line"/>
      <point x="129" y="509"/>
      <point x="205" y="516"/>
      <point x="248" y="516" type="curve" smooth="yes"/>
      <point x="312" y="516"/>
      <point x="373" y="495"/>
      <point x="373" y="397" type="curve" smooth="yes"/>
      <point x="373" y="321"/>
      <point x="335" y="276"/>
      <point x="268" y="276" type="curve" smooth="yes"/>
      <point x="247" y="276"/>
      <point x="235" y="282"/>
      <point x="215" y="291" type="curve"/>
      <point x="224" y="241" type="line"/>
      <point x="239" y="232"/>
      <point x="264" y="226"/>
      <point x="286" y="226" type="curve" smooth="yes"/>
      <point x="399" y="226"/>
      <point x="494" y="314"/>
    </contour>
    <contour>
      <point x="240" y="536" type="line"/>
      <point x="123" y="536" type="line"/>
      <point x="57" y="63" type="line" smooth="yes"/>
      <point x="56" y="54"/>
      <point x="36" y="44"/>
      <point x="0" y="36" type="curve"/>
      <point x="-4" y="0" type="line"/>
      <point x="236" y="0" type="line"/>
      <point x="240" y="36" type="line"/>
      <point x="185" y="46"/>
      <point x="173" y="56"/>
      <point x="174" y="63" type="curve" smooth="yes"/>
    </contour>
  </outline>
</glyph>
<glyph name="Q" format="2">
  <advance width="536"/>
  <unicode hex="0051"/>
  <anchor x="333" y="580" name="U"/>
  <outline>
    <contour>
      <point x="518" y="340" type="curve" smooth="yes"/>
      <point x="518" y="463"/>
      <point x="455" y="566"/>
      <point x="327" y="566" type="curve" smooth="yes"/>
      <point x="231" y="566"/>
      <point x="157" y="512"/>
      <point x="108" y="447" type="curve"/>
      <point x="62" y="383"/>
      <point x="30" y="304"/>
      <point x="30" y="213" type="curve" smooth="yes"/>
      <point x="30" y="90"/>
      <point x="103" y="-13"/>
      <point x="224" y="-13" type="curve" smooth="yes"/>
      <point x="302" y="-13"/>
      <point x="381" y="36"/>
      <point x="431" y="98" type="curve" smooth="yes"/>
      <point x="484" y="165"/>
      <point x="518" y="257"/>
    </contour>
    <contour>
      <point x="572" y="-55" type="curve"/>
      <point x="553" y="-22" type="line"/>
      <point x="517" y="-48"/>
      <point x="506" y="-52"/>
      <point x="493" y="-52" type="curve" smooth="yes"/>
      <point x="434" y="-52"/>
      <point x="382" y="3"/>
      <point x="305" y="21" type="curve" smooth="yes"/>
      <point x="291" y="24"/>
      <point x="199" y="8"/>
      <point x="199" y="8" type="curve"/>
      <point x="296" y="-7"/>
      <point x="381" y="-147"/>
      <point x="478" y="-147" type="curve" smooth="yes"/>
      <point x="494" y="-147"/>
      <point x="539" y="-106"/>
    </contour>
    <contour>
      <point x="400" y="332" type="curve" smooth="yes"/>
      <point x="400" y="220"/>
      <point x="357" y="48"/>
      <point x="253" y="48" type="curve" smooth="yes"/>
      <point x="185" y="48"/>
      <point x="150" y="124"/>
      <point x="150" y="233" type="curve" smooth="yes"/>
      <point x="150" y="344"/>
      <point x="196" y="507"/>
      <point x="295" y="507" type="curve" smooth="yes"/>
      <point x="363" y="507"/>
      <point x="400" y="431"/>
    </contour>
  </outline>
</glyph>
<glyph name="R" format="2">
  <advance width="512"/>
  <unicode hex="0052"/>
  <anchor x="109" y="0" name="H"/>
  <anchor x="289" y="580" name="U"/>
  <outline>
    <contour>
      <point x="478" y="426" type="curve" smooth="yes"/>
      <point x="478" y="517"/>
      <point x="406" y="566"/>
      <point x="276" y="566" type="curve" smooth="yes"/>
      <point x="196" y="566"/>
      <point x="110" y="554"/>
      <point x="57" y="539" type="curve"/>
      <point x="57" y="494" type="line"/>
      <point x="110" y="506"/>
      <point x="194" y="516"/>
      <point x="254" y="516" type="curve" smooth="yes"/>
      <point x="300" y="516"/>
      <point x="358" y="500"/>
      <point x="358" y="413" type="curve" smooth="yes"/>
      <point x="358" y="347"/>
      <point x="305" y="308"/>
      <point x="248" y="308" type="curve" smooth="yes"/>
      <point x="230" y="308"/>
      <point x="215" y="309"/>
      <point x="197" y="317" type="curve"/>
      <point x="189" y="262" type="line"/>
      <point x="208" y="255"/>
      <point x="238" y="254"/>
      <point x="259" y="254" type="curve" smooth="yes"/>
      <point x="390" y="254"/>
      <point x="478" y="350"/>
    </contour>
    <contour>
      <point x="521" y="52" type="curve"/>
      <point x="509" y="86" type="line"/>
      <point x="466" y="73"/>
      <point x="448" y="71"/>
      <point x="433" y="98" type="curve" smooth="yes"/>
      <point x="324" y="291" type="line"/>
      <point x="248" y="268" type="line"/>
      <point x="326" y="51" type="line" smooth="yes"/>
      <point x="344" y="1"/>
      <point x="363" y="-6"/>
      <point x="384" y="-6" type="curve" smooth="yes"/>
      <point x="399" y="-6"/>
      <point x="475" y="21"/>
    </contour>
    <contour>
      <point x="239" y="540" type="line"/>
      <point x="122" y="540" type="line"/>
      <point x="58" y="63" type="line" smooth="yes"/>
      <point x="57" y="55"/>
      <point x="37" y="44"/>
      <point x="0" y="36" type="curve"/>
      <point x="-4" y="0" type="line"/>
      <point x="224" y="0" type="line"/>
      <point x="228" y="36" type="line"/>
      <point x="192" y="44"/>
      <point x="173" y="56"/>
      <point x="174" y="63" type="curve"/>
    </contour>
  </outline>
</glyph>
<glyph name="S" format="2">
  <advance width="506"/>
  <unicode hex="0053"/>
  <anchor x="211" y="0" name="H"/>
  <anchor x="338" y="659" name="U"/>
  <outline>
    <contour>
      <point x="500" y="582" type="line"/>
      <point x="464" y="598"/>
      <point x="409" y="618"/>
      <point x="328" y="618" type="curve" smooth="yes"/>
      <point x="170" y="618"/>
      <point x="75" y="534"/>
      <point x="75" y="419" type="curve" smooth="yes"/>
      <point x="75" y="347"/>
      <point x="137" y="311"/>
      <point x="201" y="279" type="curve" smooth="yes"/>
      <point x="280" y="239"/>
      <point x="326" y="215"/>
      <point x="326" y="166" type="curve" smooth="yes"/>
      <point x="326" y="82"/>
      <point x="254" y="41"/>
      <point x="199" y="41" type="curve" smooth="yes"/>
      <point x="169" y="41"/>
      <point x="92" y="69"/>
      <point x="93" y="76" type="curve" smooth="yes"/>
      <point x="103" y="183" type="line"/>
      <point x="26" y="183" type="line"/>
      <point x="-4" y="36" type="line"/>
      <point x="11" y="25"/>
      <point x="88" y="-14"/>
      <point x="187" y="-14" type="curve" smooth="yes"/>
      <point x="395" y="-14"/>
      <point x="457" y="104"/>
      <point x="457" y="186" type="curve" smooth="yes"/>
      <point x="457" y="264"/>
      <point x="388" y="307"/>
      <point x="330" y="333" type="curve" smooth="yes"/>
      <point x="265" y="362"/>
      <point x="205" y="393"/>
      <point x="205" y="449" type="curve" smooth="yes"/>
      <point x="205" y="522"/>
      <point x="274" y="565"/>
      <point x="321" y="565" type="curve" smooth="yes"/>
      <point x="354" y="565"/>
      <point x="405" y="541"/>
      <point x="405" y="535" type="curve" smooth="yes"/>
      <point x="401" y="442" type="line"/>
      <point x="469" y="442" type="line"/>
    </contour>
  </outline>
</glyph>
<glyph name="T" format="2">
  <advance width="565"/>
  <unicode hex="0054"/>
  <outline>
    <contour>
      <point x="622" y="603" type="line"/>
      <point x="86" y="603" type="line"/>
      <point x="55" y="446" type="line"/>
      <point x="126" y="446" type="line"/>
      <point x="160" y="541" type="line" smooth="yes"/>
      <point x="163" y="549"/>
      <point x="177" y="554"/>
      <point x="185" y="554" type="curve" smooth="yes"/>
      <point x="278" y="554" type="line"/>
      <point x="185" y="63" type="line" smooth="yes"/>
      <point x="183" y="52"/>
      <point x="173" y="49"/>
      <point x="161" y="48" type="curve"/>
      <point x="161" y="48"/>
      <point x="134" y="46"/>
      <point x="111" y="44" type="curve"/>
      <point x="111" y="0" type="line"/>
      <point x="383" y="0" type="line"/>
      <point x="383" y="44" type="line"/>
      <point x="359" y="47"/>
      <point x="331" y="49"/>
      <point x="331" y="49" type="curve"/>
      <point x="320" y="50"/>
      <point x="312" y="52"/>
      <point x="314" y="62" type="curve" smooth="yes"/>
      <point x="406" y="554" type="line"/>
      <point x="504" y="554" type="line" smooth="yes"/>
      <point x="513" y="554"/>
      <point x="525" y="550"/>
      <point x="524" y="542" type="curve"/>
      <point x="520" y="446" type="line"/>
      <point x="590" y="446" type="line"/>
    </contour>
  </outline>
</glyph>
<glyph name="U" format="2">
  <advance width="674"/>
  <unicode hex="0055"/>
  <outline>
    <contour>
      <point x="711" y="558" type="line"/>
      <point x="711" y="603" type="line"/>
      <point x="470" y="603" type="line"/>
      <point x="470" y="558" type="line"/>
      <point x="494" y="556"/>
      <point x="522" y="554"/>
      <point x="522" y="554" type="curve"/>
      <point x="536" y="553"/>
      <point x="540" y="551"/>
      <point x="539" y="540" type="curve" smooth="yes"/>
      <point x="475" y="225" type="line" smooth="yes"/>
      <point x="456" y="126"/>
      <point x="415" y="53"/>
      <point x="322" y="53" type="curve" smooth="yes"/>
      <point x="268" y="53"/>
      <point x="214" y="82"/>
      <point x="214" y="159" type="curve" smooth="yes"/>
      <point x="214" y="175"/>
      <point x="217" y="204"/>
      <point x="224" y="238" type="curve" smooth="yes"/>
      <point x="286" y="540" type="line" smooth="yes"/>
      <point x="287" y="550"/>
      <point x="294" y="553"/>
      <point x="304" y="554" type="curve"/>
      <point x="304" y="554"/>
      <point x="333" y="556"/>
      <point x="360" y="558" type="curve"/>
      <point x="360" y="603" type="line"/>
      <point x="89" y="603" type="line"/>
      <point x="89" y="558" type="line"/>
      <point x="113" y="556"/>
      <point x="139" y="554"/>
      <point x="139" y="554" type="curve"/>
      <point x="152" y="553"/>
      <point x="159" y="551"/>
      <point x="157" y="540" type="curve" smooth="yes"/>
      <point x="94" y="238" type="line" smooth="yes"/>
      <point x="86" y="198"/>
      <point x="82" y="163"/>
      <point x="82" y="145" type="curve" smooth="yes"/>
      <point x="82" y="34"/>
      <point x="165" y="-14"/>
      <point x="298" y="-14" type="curve" smooth="yes"/>
      <point x="464" y="-14"/>
      <point x="544" y="68"/>
      <point x="568" y="193" type="curve" smooth="yes"/>
      <point x="638" y="540" type="line" smooth="yes"/>
      <point x="639" y="547"/>
      <point x="644" y="553"/>
      <point x="652" y="554" type="curve" smooth="yes"/>
    </contour>
  </outline>
</glyph>
<glyph name="V" format="2">
  <advance width="616"/>
  <unicode hex="0056"/>
  <anchor x="278" y="0" name="H"/>
  <anchor x="395" y="659" name="U"/>
  <outline>
    <contour>
      <point x="682" y="558" type="line"/>
      <point x="682" y="603" type="line"/>
      <point x="460" y="603" type="line"/>
      <point x="460" y="558" type="line"/>
      <point x="481" y="557"/>
      <point x="505" y="557"/>
      <point x="505" y="557" type="curve"/>
      <point x="512" y="556"/>
      <point x="523" y="555"/>
      <point x="518" y="543" type="curve"/>
      <point x="318" y="168" type="line"/>
      <point x="260" y="543" type="line" smooth="yes"/>
      <point x="258" y="554"/>
      <point x="266" y="557"/>
      <point x="276" y="557" type="curve" smooth="yes"/>
      <point x="276" y="557"/>
      <point x="297" y="557"/>
      <point x="316" y="558" type="curve"/>
      <point x="316" y="603" type="line"/>
      <point x="74" y="603" type="line"/>
      <point x="74" y="558" type="line"/>
      <point x="90" y="557"/>
      <point x="109" y="556"/>
      <point x="109" y="556" type="curve"/>
      <point x="119" y="556"/>
      <point x="128" y="554"/>
      <point x="130" y="542" type="curve" smooth="yes"/>
      <point x="218" y="-14" type="line"/>
      <point x="322" y="-14" type="line"/>
      <point x="632" y="553" type="line"/>
    </contour>
  </outline>
</glyph>
<glyph name="W" format="2">
  <advance width="872"/>
  <unicode hex="0057"/>
  <anchor x="526" y="659" name="U"/>
  <outline>
    <contour>
      <point x="937" y="558" type="line"/>
      <point x="937" y="603" type="line"/>
      <point x="711" y="603" type="line"/>
      <point x="711" y="558" type="line"/>
      <point x="729" y="557"/>
      <point x="752" y="557"/>
      <point x="752" y="557" type="curve"/>
      <point x="765" y="556"/>
      <point x="774" y="555"/>
      <point x="769" y="543" type="curve" smooth="yes"/>
      <point x="617" y="217" type="line"/>
      <point x="577" y="603" type="line"/>
      <point x="469" y="603" type="line"/>
      <point x="288" y="225" type="line"/>
      <point x="262" y="543" type="line" smooth="yes"/>
      <point x="261" y="554"/>
      <point x="269" y="556"/>
      <point x="277" y="556" type="curve" smooth="yes"/>
      <point x="277" y="556"/>
      <point x="299" y="557"/>
      <point x="320" y="558" type="curve"/>
      <point x="320" y="603" type="line"/>
      <point x="74" y="603" type="line"/>
      <point x="74" y="558" type="line"/>
      <point x="91" y="557"/>
      <point x="112" y="556"/>
      <point x="112" y="556" type="curve"/>
      <point x="127" y="555"/>
      <point x="133" y="554"/>
      <point x="134" y="542" type="curve" smooth="yes"/>
      <point x="180" y="-14" type="line"/>
      <point x="278" y="-14" type="line"/>
      <point x="474" y="398" type="line"/>
      <point x="520" y="-14" type="line"/>
      <point x="612" y="-14" type="line"/>
      <point x="882" y="553" type="line"/>
    </contour>
  </outline>
</glyph>
<glyph name="X" format="2">
  <advance width="538"/>
  <unicode hex="0058"/>
  <anchor x="316" y="580" name="U"/>
  <outline>
    <contour>
      <point x="551" y="553" type="line"/>
      <point x="366" y="553" type="line"/>
      <point x="362" y="517" type="line"/>
      <point x="409" y="513"/>
      <point x="413" y="507"/>
      <point x="393" y="480" type="curve" smooth="yes"/>
      <point x="294" y="343" type="line"/>
      <point x="318" y="279" type="line"/>
      <point x="467" y="480" type="line" smooth="yes"/>
      <point x="485" y="504"/>
      <point x="506" y="512"/>
      <point x="547" y="517" type="curve"/>
    </contour>
    <contour>
      <point x="500" y="36" type="line"/>
      <point x="469" y="40"/>
      <point x="458" y="48"/>
      <point x="445" y="73" type="curve" smooth="yes"/>
      <point x="241" y="480" type="line" smooth="yes"/>
      <point x="228" y="505"/>
      <point x="243" y="512"/>
      <point x="290" y="517" type="curve"/>
      <point x="295" y="553" type="line"/>
      <point x="61" y="553" type="line"/>
      <point x="57" y="517" type="line"/>
      <point x="92" y="511"/>
      <point x="102" y="506"/>
      <point x="115" y="480" type="curve" smooth="yes"/>
      <point x="319" y="73" type="line"/>
      <point x="331" y="50"/>
      <point x="320" y="41"/>
      <point x="272" y="36" type="curve"/>
      <point x="267" y="0" type="line"/>
      <point x="496" y="0" type="line"/>
    </contour>
    <contour>
      <point x="258" y="227" type="line"/>
      <point x="231" y="290" type="line"/>
      <point x="66" y="73" type="line" smooth="yes"/>
      <point x="48" y="50"/>
      <point x="22" y="39"/>
      <point x="-12" y="36" type="curve"/>
      <point x="-17" y="0" type="line"/>
      <point x="166" y="0" type="line"/>
      <point x="170" y="36" type="line"/>
      <point x="121" y="39"/>
      <point x="119" y="47"/>
      <point x="139" y="73" type="curve" smooth="yes"/>
    </contour>
  </outline>
</glyph>
<glyph name="Y" format="2">
  <advance width="613"/>
  <unicode hex="0059"/>
  <anchor x="383" y="659" name="U"/>
  <outline>
    <contour>
      <point x="677" y="558" type="line"/>
      <point x="677" y="603" type="line"/>
      <point x="423" y="603" type="line"/>
      <point x="423" y="558" type="line"/>
      <point x="475" y="555" type="line" smooth="yes"/>
      <point x="489" y="554"/>
      <point x="490" y="546"/>
      <point x="486" y="541" type="curve" smooth="yes"/>
      <point x="338" y="345" type="line"/>
      <point x="276" y="540" type="line"/>
      <point x="271" y="552"/>
      <point x="280" y="555"/>
      <point x="290" y="555" type="curve" smooth="yes"/>
      <point x="290" y="555"/>
      <point x="319" y="557"/>
      <point x="346" y="558" type="curve"/>
      <point x="346" y="603" type="line"/>
      <point x="75" y="603" type="line"/>
      <point x="75" y="558" type="line"/>
      <point x="96" y="557"/>
      <point x="120" y="555"/>
      <point x="120" y="555" type="curve"/>
      <point x="131" y="554"/>
      <point x="140" y="554"/>
      <point x="143" y="544" type="curve"/>
      <point x="243" y="245" type="line"/>
      <point x="206" y="63" type="line" smooth="yes"/>
      <point x="204" y="52"/>
      <point x="195" y="50"/>
      <point x="184" y="49" type="curve"/>
      <point x="184" y="49"/>
      <point x="157" y="47"/>
      <point x="133" y="44" type="curve"/>
      <point x="133" y="0" type="line"/>
      <point x="405" y="0" type="line"/>
      <point x="405" y="44" type="line"/>
      <point x="379" y="47"/>
      <point x="353" y="49"/>
      <point x="353" y="49" type="curve"/>
      <point x="341" y="50"/>
      <point x="334" y="52"/>
      <point x="337" y="62" type="curve" smooth="yes"/>
      <point x="375" y="252" type="line"/>
      <point x="603" y="543" type="line" smooth="yes"/>
      <point x="606" y="547"/>
      <point x="613" y="553"/>
      <point x="620" y="554" type="curve" smooth="yes"/>
    </contour>
  </outline>
</glyph>
<glyph name="Z" format="2">
  <advance width="543"/>
  <unicode hex="005A"/>
  <outline>
    <contour>
      <point x="574" y="603" type="line"/>
      <point x="123" y="603" type="line"/>
      <point x="90" y="439" type="line"/>
      <point x="166" y="439" type="line"/>
      <point x="195" y="535" type="line" smooth="yes"/>
      <point x="198" y="544"/>
      <point x="211" y="547"/>
      <point x="220" y="547" type="curve" smooth="yes"/>
      <point x="407" y="547" type="line"/>
      <point x="-10" y="43" type="line"/>
      <point x="-18" y="0" type="line"/>
      <point x="464" y="0" type="line"/>
      <point x="500" y="186" type="line"/>
      <point x="424" y="186" type="line"/>
      <point x="392" y="69" type="line" smooth="yes"/>
      <point x="389" y="61"/>
      <point x="376" y="55"/>
      <point x="367" y="55" type="curve" smooth="yes"/>
      <point x="145" y="55" type="line"/>
      <point x="565" y="558" type="line"/>
    </contour>
  </outline>
</glyph>
<glyph name="bracketleft" format="2">
  <advance width="338"/>
  <unicode hex="005B"/>
  <outline>
    <contour>
      <point x="382" y="686" type="curve"/>
      <point x="366" y="702" type="line"/>
      <point x="148" y="702" type="line"/>
      <point x="29" y="-147" type="line"/>
      <point x="250" y="-147" type="line"/>
      <point x="255" y="-137"/>
      <point x="270" y="-108"/>
      <point x="274" y="-96" type="curve"/>
      <point x="257" y="-79" type="line"/>
      <point x="144" y="-79" type="line"/>
      <point x="242" y="635" type="line"/>
      <point x="357" y="635" type="line"/>
      <point x="362" y="642"/>
      <point x="378" y="672"/>
    </contour>
  </outline>
</glyph>
<glyph name="backslash" format="2">
  <advance width="381"/>
  <unicode hex="005C"/>
  <outline>
    <contour>
      <point x="326" y="-132" type="line"/>
      <point x="157" y="672" type="line"/>
      <point x="142" y="682"/>
      <point x="96" y="698"/>
      <point x="79" y="702" type="curve"/>
      <point x="59" y="688" type="line"/>
      <point x="228" y="-116" type="line"/>
      <point x="237" y="-124"/>
      <point x="293" y="-143"/>
      <point x="306" y="-147" type="curve"/>
    </contour>
  </outline>
</glyph>
<glyph name="bracketright" format="2">
  <advance width="310"/>
  <unicode hex="005D"/>
  <outline>
    <contour>
      <point x="315" y="702" type="line"/>
      <point x="95" y="702" type="line"/>
      <point x="90" y="693"/>
      <point x="76" y="664"/>
      <point x="72" y="651" type="curve"/>
      <point x="90" y="635" type="line"/>
      <point x="201" y="635" type="line"/>
      <point x="101" y="-79" type="line"/>
      <point x="-14" y="-79" type="line"/>
      <point x="-18" y="-87"/>
      <point x="-33" y="-116"/>
      <point x="-37" y="-130" type="curve"/>
      <point x="-20" y="-147" type="line"/>
      <point x="196" y="-147" type="line"/>
    </contour>
  </outline>
</glyph>
<glyph name="underscore" format="2">
  <advance width="307"/>
  <unicode hex="005F"/>
  <outline>
    <contour>
      <point x="250" y="-76" type="line"/>
      <point x="-57" y="-76" type="line"/>
      <point x="-71" y="-149" type="line"/>
      <point x="235" y="-149" type="line"/>
    </contour>
  </outline>
</glyph>
<glyph name="a" format="2">
  <advance width="511"/>
  <unicode hex="0061"/>
  <outline>
    <contour>
      <point x="508" y="26" type="curve"/>
      <point x="508" y="70" type="line"/>
      <point x="499" y="68"/>
      <point x="434" y="51"/>
      <point x="430" y="51" type="curve" smooth="yes"/>
      <point x="408" y="51"/>
      <point x="406" y="60"/>
      <point x="406" y="87" type="curve"/>
      <point x="464" y="384" type="line" smooth="yes"/>
      <point x="466" y="392"/>
      <point x="480" y="420"/>
      <point x="486" y="439" type="curve"/>
      <point x="390" y="439" type="line"/>
      <point x="384" y="431" type="line"/>
      <point x="363" y="442"/>
      <point x="335" y="450"/>
      <point x="309" y="450" type="curve" smooth="yes"/>
      <point x="116" y="450"/>
      <point x="29" y="287"/>
      <point x="29" y="153" type="curve" smooth="yes"/>
      <point x="29" y="86"/>
      <point x="68" y="-10"/>
      <point x="179" y="-10" type="curve" smooth="yes"/>
      <point x="222" y="-10"/>
      <point x="264" y="8"/>
      <point x="296" y="29" type="curve"/>
      <point x="307" y="3"/>
      <point x="333" y="-10"/>
      <point x="371" y="-10" type="curve" smooth="yes"/>
      <point x="417" y="-10"/>
      <point x="467" y="10"/>
    </contour>
    <contour>
      <point x="337" y="354" type="curve"/>
      <point x="295" y="134"/>
      <point x="304" y="181"/>
      <point x="290" y="108" type="curve"/>
      <point x="278" y="97"/>
      <point x="246" y="56"/>
      <point x="207" y="56" type="curve" smooth="yes"/>
      <point x="153" y="56"/>
      <point x="155" y="111"/>
      <point x="155" y="159" type="curve" smooth="yes"/>
      <point x="155" y="261"/>
      <point x="207" y="397"/>
      <point x="322" y="397" type="curve" smooth="yes"/>
      <point x="333" y="397"/>
      <point x="339" y="359"/>
    </contour>
  </outline>
</glyph>
<glyph name="b" format="2">
  <advance width="479"/>
  <unicode hex="0062"/>
  <outline>
    <contour>
      <point x="450" y="279" type="curve" smooth="yes"/>
      <point x="450" y="355"/>
      <point x="405" y="450"/>
      <point x="308" y="450" type="curve" smooth="yes"/>
      <point x="277" y="450"/>
      <point x="241" y="438"/>
      <point x="208" y="420" type="curve"/>
      <point x="255" y="663" type="line"/>
      <point x="194" y="663" type="line"/>
      <point x="42" y="634" type="line"/>
      <point x="42" y="602" type="line"/>
      <point x="121" y="595" type="line"/>
      <point x="16" y="34" type="line"/>
      <point x="59" y="6"/>
      <point x="114" y="-10"/>
      <point x="179" y="-10" type="curve" smooth="yes"/>
      <point x="385" y="-10"/>
      <point x="450" y="172"/>
    </contour>
    <contour>
      <point x="325" y="276" type="curve" smooth="yes"/>
      <point x="325" y="164"/>
      <point x="257" y="39"/>
      <point x="198" y="39" type="curve" smooth="yes"/>
      <point x="170" y="39"/>
      <point x="152" y="55"/>
      <point x="143" y="71" type="curve"/>
      <point x="193" y="340" type="line"/>
      <point x="220" y="363"/>
      <point x="254" y="381"/>
      <point x="279" y="381" type="curve" smooth="yes"/>
      <point x="299" y="381"/>
      <point x="325" y="352"/>
    </contour>
  </outline>
</glyph>
<glyph name="c" format="2">
  <advance width="395"/>
  <unicode hex="0063"/>
  <anchor x="187" y="0" name="H"/>
  <anchor x="265" y="439" name="U"/>
  <outline>
    <contour>
      <point x="411" y="362" type="curve"/>
      <point x="375" y="374"/>
      <point x="347" y="411"/>
      <point x="296" y="411" type="curve" smooth="yes"/>
      <point x="242" y="411"/>
      <point x="183" y="382"/>
      <point x="150" y="361" type="curve" smooth="yes"/>
      <point x="64" y="303"/>
      <point x="33" y="220"/>
      <point x="33" y="141" type="curve" smooth="yes"/>
      <point x="33" y="18"/>
      <point x="110" y="-18"/>
      <point x="163" y="-18" type="curve" smooth="yes"/>
      <point x="219" y="-18"/>
      <point x="279" y="13"/>
      <point x="371" y="96" type="curve"/>
      <point x="368" y="101"/>
      <point x="351" y="126"/>
      <point x="347" y="132" type="curve"/>
      <point x="284" y="80"/>
      <point x="240" y="55"/>
      <point x="206" y="55" type="curve" smooth="yes"/>
      <point x="173" y="55"/>
      <point x="150" y="99"/>
      <point x="150" y="174" type="curve" smooth="yes"/>
      <point x="150" y="257"/>
      <point x="184" y="343"/>
      <point x="242" y="343" type="curve" smooth="yes"/>
      <point x="275" y="343"/>
      <point x="292" y="286"/>
      <point x="313" y="286" type="curve" smooth="yes"/>
      <point x="333" y="286"/>
      <point x="387" y="335"/>
    </contour>
  </outline>
</glyph>
<glyph name="d" format="2">
  <advance width="454"/>
  <unicode hex="0064"/>
  <anchor x="173" y="0" name="H"/>
  <anchor x="279" y="720" name="U"/>
  <outline>
    <contour>
      <point x="443" y="50" type="curve"/>
      <point x="435" y="85" type="line"/>
      <point x="414" y="76"/>
      <point x="403" y="73"/>
      <point x="388" y="73" type="curve" smooth="yes"/>
      <point x="375" y="73"/>
      <point x="364" y="96"/>
      <point x="364" y="140" type="curve" smooth="yes"/>
      <point x="364" y="219"/>
      <point x="436" y="540"/>
      <point x="436" y="631" type="curve" smooth="yes"/>
      <point x="436" y="658"/>
      <point x="424" y="667"/>
      <point x="403" y="667" type="curve" smooth="yes"/>
      <point x="380" y="667"/>
      <point x="301" y="639"/>
      <point x="239" y="608" type="curve"/>
      <point x="246" y="573" type="line"/>
      <point x="261" y="579"/>
      <point x="282" y="585"/>
      <point x="289" y="585" type="curve" smooth="yes"/>
      <point x="300" y="585"/>
      <point x="309" y="583"/>
      <point x="309" y="556" type="curve" smooth="yes"/>
      <point x="309" y="474"/>
      <point x="249" y="163"/>
      <point x="249" y="109" type="curve" smooth="yes"/>
      <point x="249" y="12"/>
      <point x="292" y="-18"/>
      <point x="314" y="-18" type="curve" smooth="yes"/>
      <point x="338" y="-18"/>
      <point x="393" y="17"/>
    </contour>
    <contour>
      <point x="388" y="347" type="line"/>
      <point x="354" y="347"/>
      <point x="306" y="411"/>
      <point x="273" y="411" type="curve" smooth="yes"/>
      <point x="228" y="411"/>
      <point x="177" y="391"/>
      <point x="145" y="370" type="curve" smooth="yes"/>
      <point x="62" y="315"/>
      <point x="14" y="231"/>
      <point x="14" y="138" type="curve" smooth="yes"/>
      <point x="14" y="29"/>
      <point x="68" y="-18"/>
      <point x="116" y="-18" type="curve" smooth="yes"/>
      <point x="155" y="-18"/>
      <point x="203" y="11"/>
      <point x="253" y="81" type="curve"/>
      <point x="262" y="172" type="line"/>
      <point x="208" y="92"/>
      <point x="177" y="77"/>
      <point x="165" y="77" type="curve" smooth="yes"/>
      <point x="144" y="77"/>
      <point x="127" y="104"/>
      <point x="127" y="166" type="curve" smooth="yes"/>
      <point x="127" y="235"/>
      <point x="156" y="343"/>
      <point x="228" y="343" type="curve" smooth="yes"/>
      <point x="270" y="343"/>
      <point x="305" y="267"/>
      <point x="327" y="267" type="curve"/>
    </contour>
  </outline>
</glyph>
<glyph name="e" format="2">
  <advance width="431"/>
  <unicode hex="0065"/>
  <outline>
    <contour>
      <point x="416" y="355" type="curve" smooth="yes"/>
      <point x="416" y="382"/>
      <point x="377" y="450"/>
      <point x="288" y="450" type="curve" smooth="yes"/>
      <point x="134" y="450"/>
      <point x="29" y="293"/>
      <point x="29" y="156" type="curve" smooth="yes"/>
      <point x="29" y="23"/>
      <point x="114" y="-10"/>
      <point x="192" y="-10" type="curve" smooth="yes"/>
      <point x="279" y="-10"/>
      <point x="360" y="46"/>
      <point x="395" y="80" type="curve"/>
      <point x="395" y="166" type="line"/>
      <point x="297" y="80"/>
      <point x="261" y="52"/>
      <point x="222" y="52" type="curve" smooth="yes"/>
      <point x="171" y="52"/>
      <point x="154" y="97"/>
      <point x="154" y="160" type="curve" smooth="yes"/>
      <point x="154" y="170"/>
      <point x="156" y="186"/>
      <point x="157" y="197" type="curve"/>
      <point x="277" y="206"/>
      <point x="416" y="261"/>
    </contour>
    <contour>
      <point x="299" y="356" type="curve" smooth="yes"/>
      <point x="299" y="301"/>
      <point x="225" y="258"/>
      <point x="163" y="243" type="curve"/>
      <point x="180" y="309"/>
      <point x="212" y="399"/>
      <point x="268" y="399" type="curve" smooth="yes"/>
      <point x="295" y="399"/>
      <point x="299" y="377"/>
    </contour>
  </outline>
</glyph>
<glyph name="f" format="2">
  <advance width="302"/>
  <unicode hex="0066"/>
  <anchor x="-21" y="-197" name="H"/>
  <anchor x="275" y="720" name="U"/>
  <outline>
    <contour>
      <point x="339" y="381" type="curve"/>
      <point x="326" y="397" type="line"/>
      <point x="85" y="397" type="line"/>
      <point x="23" y="358" type="line"/>
      <point x="34" y="340" type="line"/>
      <point x="216" y="340" type="line" smooth="yes"/>
      <point x="251" y="340"/>
      <point x="268" y="337"/>
      <point x="275" y="320" type="curve"/>
      <point x="286" y="326"/>
      <point x="328" y="364"/>
    </contour>
    <contour>
      <point x="462" y="612" type="curve"/>
      <point x="444" y="618"/>
      <point x="382" y="667"/>
      <point x="322" y="667" type="curve" smooth="yes"/>
      <point x="286" y="667"/>
      <point x="250" y="649"/>
      <point x="219" y="627" type="curve" smooth="yes"/>
      <point x="144" y="571"/>
      <point x="112" y="490"/>
      <point x="100" y="395" type="curve"/>
      <point x="61" y="61" type="line"/>
      <point x="51" y="-35"/>
      <point x="14" y="-139"/>
      <point x="-43" y="-172" type="curve"/>
      <point x="-23" y="-213" type="line"/>
      <point x="62" y="-160"/>
      <point x="166" y="-43"/>
      <point x="182" y="84" type="curve"/>
      <point x="221" y="418" type="line"/>
      <point x="228" y="493"/>
      <point x="244" y="587"/>
      <point x="288" y="587" type="curve" smooth="yes"/>
      <point x="317" y="587"/>
      <point x="334" y="533"/>
      <point x="354" y="533" type="curve" smooth="yes"/>
      <point x="369" y="533"/>
      <point x="437" y="594"/>
    </contour>
  </outline>
</glyph>
<glyph name="g" format="2">
  <advance width="437"/>
  <unicode hex="0067"/>
  <anchor x="146" y="-189" name="H"/>
  <anchor x="263" y="483" name="U"/>
  <outline>
    <contour>
      <point x="479" y="375" type="line"/>
      <point x="479" y="427" type="line"/>
      <point x="348" y="427" type="line"/>
      <point x="331" y="434"/>
      <point x="291" y="450"/>
      <point x="246" y="450" type="curve" smooth="yes"/>
      <point x="107" y="450"/>
      <point x="43" y="351"/>
      <point x="43" y="267" type="curve" smooth="yes"/>
      <point x="43" y="210"/>
      <point x="79" y="177"/>
      <point x="127" y="154" type="curve"/>
      <point x="103" y="130"/>
      <point x="88" y="82"/>
      <point x="92" y="54" type="curve"/>
      <point x="25" y="31"/>
      <point x="-27" y="-10"/>
      <point x="-27" y="-71" type="curve" smooth="yes"/>
      <point x="-27" y="-135"/>
      <point x="23" y="-206"/>
      <point x="165" y="-206" type="curve" smooth="yes"/>
      <point x="301" y="-206"/>
      <point x="413" y="-132"/>
      <point x="413" y="-56" type="curve" smooth="yes"/>
      <point x="413" y="-4"/>
      <point x="376" y="18"/>
      <point x="318" y="43" type="curve" smooth="yes"/>
      <point x="199" y="97" type="line"/>
      <point x="197" y="107"/>
      <point x="200" y="126"/>
      <point x="206" y="143" type="curve"/>
      <point x="337" y="144"/>
      <point x="406" y="230"/>
      <point x="406" y="319" type="curve" smooth="yes"/>
      <point x="406" y="341"/>
      <point x="402" y="361"/>
      <point x="396" y="375" type="curve"/>
    </contour>
    <contour>
      <point x="282" y="323" type="curve" smooth="yes"/>
      <point x="282" y="268"/>
      <point x="261" y="185"/>
      <point x="201" y="185" type="curve" smooth="yes"/>
      <point x="171" y="185"/>
      <point x="168" y="214"/>
      <point x="168" y="256" type="curve" smooth="yes"/>
      <point x="168" y="344"/>
      <point x="228" y="403"/>
      <point x="248" y="403" type="curve" smooth="yes"/>
      <point x="282" y="403"/>
      <point x="282" y="366"/>
    </contour>
    <contour>
      <point x="292" y="-74" type="curve" smooth="yes"/>
      <point x="292" y="-102"/>
      <point x="270" y="-155"/>
      <point x="188" y="-155" type="curve" smooth="yes"/>
      <point x="115" y="-155"/>
      <point x="94" y="-94"/>
      <point x="94" y="-55" type="curve" smooth="yes"/>
      <point x="94" y="-22"/>
      <point x="108" y="7"/>
      <point x="147" y="23" type="curve"/>
      <point x="248" y="-20" type="line" smooth="yes"/>
      <point x="281" y="-36"/>
      <point x="292" y="-54"/>
    </contour>
  </outline>
</glyph>
<glyph name="h" format="2">
  <advance width="508"/>
  <unicode hex="0068"/>
  <anchor x="75" y="0" name="H"/>
  <anchor x="346" y="676" name="U"/>
  <outline>
    <contour>
      <point x="506" y="25" type="curve"/>
      <point x="505" y="70" type="line"/>
      <point x="479" y="54"/>
      <point x="457" y="44"/>
      <point x="431" y="44" type="curve" smooth="yes"/>
      <point x="420" y="44"/>
      <point x="404" y="54"/>
      <point x="410" y="84" type="curve" smooth="yes"/>
      <point x="460" y="322" type="line" smooth="yes"/>
      <point x="475" y="398"/>
      <point x="447" y="450"/>
      <point x="357" y="450" type="curve" smooth="yes"/>
      <point x="304" y="450"/>
      <point x="256" y="431"/>
      <point x="220" y="408" type="curve"/>
      <point x="274" y="663" type="line"/>
      <point x="212" y="663" type="line"/>
      <point x="60" y="634" type="line"/>
      <point x="60" y="602" type="line"/>
      <point x="139" y="595" type="line"/>
      <point x="15" y="0" type="line"/>
      <point x="134" y="0" type="line"/>
      <point x="200" y="315" type="line"/>
      <point x="237" y="352"/>
      <point x="280" y="381"/>
      <point x="307" y="381" type="curve" smooth="yes"/>
      <point x="325" y="381"/>
      <point x="347" y="357"/>
      <point x="338" y="314" type="curve" smooth="yes"/>
      <point x="284" y="52" type="line" smooth="yes"/>
      <point x="274" y="5"/>
      <point x="325" y="-10"/>
      <point x="368" y="-10" type="curve" smooth="yes"/>
      <point x="415" y="-10"/>
      <point x="461" y="3"/>
    </contour>
  </outline>
</glyph>
<glyph name="i" format="2">
  <advance width="279"/>
  <unicode hex="0069"/>
  <anchor x="105" y="0" name="H"/>
  <anchor x="203" y="483" name="U"/>
  <outline>
    <contour>
      <point x="265" y="596" type="curve" smooth="yes"/>
      <point x="265" y="635"/>
      <point x="233" y="666"/>
      <point x="195" y="666" type="curve" smooth="yes"/>
      <point x="156" y="666"/>
      <point x="126" y="635"/>
      <point x="126" y="596" type="curve" smooth="yes"/>
      <point x="126" y="558"/>
      <point x="156" y="526"/>
      <point x="195" y="526" type="curve" smooth="yes"/>
      <point x="233" y="526"/>
      <point x="265" y="558"/>
    </contour>
    <contour>
      <point x="277" y="29" type="curve"/>
      <point x="277" y="78" type="line"/>
      <point x="243" y="60"/>
      <point x="193" y="47"/>
      <point x="183" y="47" type="curve" smooth="yes"/>
      <point x="162" y="47"/>
      <point x="162" y="67"/>
      <point x="166" y="89" type="curve" smooth="yes"/>
      <point x="235" y="450" type="line"/>
      <point x="172" y="450" type="line"/>
      <point x="24" y="420" type="line"/>
      <point x="24" y="388" type="line"/>
      <point x="101" y="380" type="line"/>
      <point x="44" y="81" type="line"/>
      <point x="36" y="37"/>
      <point x="59" y="-10"/>
      <point x="125" y="-10" type="curve" smooth="yes"/>
      <point x="177" y="-10"/>
      <point x="223" y="0"/>
    </contour>
  </outline>
</glyph>
<glyph name="j" format="2">
  <advance width="286"/>
  <unicode hex="006A"/>
  <outline>
    <contour>
      <point x="279" y="596" type="curve" smooth="yes"/>
      <point x="279" y="635"/>
      <point x="247" y="666"/>
      <point x="208" y="666" type="curve" smooth="yes"/>
      <point x="170" y="666"/>
      <point x="139" y="635"/>
      <point x="139" y="596" type="curve" smooth="yes"/>
      <point x="139" y="558"/>
      <point x="170" y="526"/>
      <point x="208" y="526" type="curve" smooth="yes"/>
      <point x="247" y="526"/>
      <point x="279" y="558"/>
    </contour>
    <contour>
      <point x="247" y="450" type="line"/>
      <point x="188" y="450" type="line"/>
      <point x="38" y="420" type="line"/>
      <point x="38" y="388" type="line"/>
      <point x="116" y="379" type="line"/>
      <point x="49" y="-5" type="line" smooth="yes"/>
      <point x="41" y="-49"/>
      <point x="22" y="-102"/>
      <point x="6" y="-127" type="curve"/>
      <point x="-79" y="-105" type="line"/>
      <point x="-99" y="-118"/>
      <point x="-116" y="-131"/>
      <point x="-116" y="-153" type="curve" smooth="yes"/>
      <point x="-116" y="-183"/>
      <point x="-79" y="-206"/>
      <point x="-37" y="-206" type="curve" smooth="yes"/>
      <point x="86" y="-206"/>
      <point x="167" y="-15"/>
      <point x="183" y="75" type="curve"/>
    </contour>
  </outline>
</glyph>
<glyph name="k" format="2">
  <advance width="494"/>
  <unicode hex="006B"/>
  <anchor x="67" y="0" name="H"/>
  <anchor x="331" y="676" name="U"/>
  <outline>
    <contour>
      <point x="484" y="23" type="curve"/>
      <point x="484" y="71" type="line"/>
      <point x="439" y="53"/>
      <point x="420" y="45"/>
      <point x="410" y="45" type="curve" smooth="yes"/>
      <point x="381" y="45"/>
      <point x="358" y="90"/>
      <point x="334" y="136" type="curve" smooth="yes"/>
      <point x="309" y="185"/>
      <point x="286" y="254"/>
      <point x="269" y="284" type="curve"/>
      <point x="292" y="304"/>
      <point x="331" y="344"/>
      <point x="359" y="369" type="curve"/>
      <point x="395" y="310" type="line"/>
      <point x="456" y="330"/>
      <point x="471" y="362"/>
      <point x="471" y="389" type="curve" smooth="yes"/>
      <point x="471" y="427"/>
      <point x="439" y="450"/>
      <point x="398" y="450" type="curve" smooth="yes"/>
      <point x="359" y="450"/>
      <point x="328" y="434"/>
      <point x="297" y="403" type="curve" smooth="yes"/>
      <point x="189" y="293" type="line"/>
      <point x="265" y="663" type="line"/>
      <point x="204" y="663" type="line"/>
      <point x="52" y="634" type="line"/>
      <point x="52" y="602" type="line"/>
      <point x="131" y="595" type="line"/>
      <point x="10" y="0" type="line"/>
      <point x="130" y="0" type="line"/>
      <point x="168" y="184" type="line"/>
      <point x="187" y="201" type="line"/>
      <point x="209" y="152"/>
      <point x="246" y="69"/>
      <point x="267" y="38" type="curve" smooth="yes"/>
      <point x="283" y="14"/>
      <point x="322" y="-10"/>
      <point x="354" y="-10" type="curve" smooth="yes"/>
      <point x="395" y="-10"/>
      <point x="454" y="7"/>
    </contour>
  </outline>
</glyph>
<glyph name="l" format="2">
  <advance width="275"/>
  <unicode hex="006C"/>
  <outline>
    <contour>
      <point x="273" y="25" type="curve"/>
      <point x="273" y="74" type="line"/>
      <point x="231" y="55"/>
      <point x="195" y="47"/>
      <point x="181" y="47" type="curve" smooth="yes"/>
      <point x="163" y="47"/>
      <point x="156" y="62"/>
      <point x="156" y="75" type="curve" smooth="yes"/>
      <point x="156" y="81"/>
      <point x="156" y="86"/>
      <point x="158" y="91" type="curve" smooth="yes"/>
      <point x="268" y="663" type="line"/>
      <point x="209" y="663" type="line"/>
      <point x="57" y="634" type="line"/>
      <point x="57" y="602" type="line"/>
      <point x="136" y="595" type="line"/>
      <point x="38" y="90" type="line" smooth="yes"/>
      <point x="36" y="78"/>
      <point x="35" y="67"/>
      <point x="35" y="57" type="curve" smooth="yes"/>
      <point x="35" y="16"/>
      <point x="70" y="-10"/>
      <point x="129" y="-10" type="curve" smooth="yes"/>
      <point x="176" y="-10"/>
      <point x="230" y="3"/>
    </contour>
  </outline>
</glyph>
<glyph name="m" format="2">
  <advance width="743"/>
  <unicode hex="006D"/>
  <outline>
    <contour>
      <point x="740" y="25" type="curve"/>
      <point x="740" y="67" type="line"/>
      <point x="715" y="54"/>
      <point x="678" y="44"/>
      <point x="666" y="44" type="curve" smooth="yes"/>
      <point x="643" y="44"/>
      <point x="638" y="64"/>
      <point x="643" y="90" type="curve" smooth="yes"/>
      <point x="694" y="332" type="line" smooth="yes"/>
      <point x="710" y="403"/>
      <point x="662" y="450"/>
      <point x="598" y="450" type="curve" smooth="yes"/>
      <point x="551" y="450"/>
      <point x="490" y="424"/>
      <point x="443" y="388" type="curve"/>
      <point x="430" y="419"/>
      <point x="401" y="450"/>
      <point x="352" y="450" type="curve" smooth="yes"/>
      <point x="310" y="450"/>
      <point x="262" y="428"/>
      <point x="219" y="398" type="curve"/>
      <point x="230" y="450" type="line"/>
      <point x="168" y="450" type="line"/>
      <point x="19" y="420" type="line"/>
      <point x="19" y="389" type="line"/>
      <point x="95" y="382" type="line"/>
      <point x="16" y="0" type="line"/>
      <point x="135" y="0" type="line"/>
      <point x="199" y="304" type="line"/>
      <point x="223" y="333"/>
      <point x="263" y="379"/>
      <point x="301" y="379" type="curve" smooth="yes"/>
      <point x="340" y="379"/>
      <point x="330" y="331"/>
      <point x="322" y="296" type="curve" smooth="yes"/>
      <point x="261" y="0" type="line"/>
      <point x="379" y="0" type="line"/>
      <point x="444" y="306" type="line"/>
      <point x="457" y="326"/>
      <point x="496" y="379"/>
      <point x="549" y="379" type="curve" smooth="yes"/>
      <point x="573" y="379"/>
      <point x="578" y="351"/>
      <point x="566" y="295" type="curve" smooth="yes"/>
      <point x="517" y="55" type="line" smooth="yes"/>
      <point x="508" y="11"/>
      <point x="553" y="-10"/>
      <point x="608" y="-10" type="curve" smooth="yes"/>
      <point x="654" y="-10"/>
      <point x="695" y="2"/>
    </contour>
  </outline>
</glyph>
<glyph name="n" format="2">
  <advance width="520"/>
  <unicode hex="006E"/>
  <anchor x="381" y="0" name="H"/>
  <anchor x="307" y="483" name="U"/>
  <outline>
    <contour>
      <point x="516" y="20" type="curve"/>
      <point x="514" y="63" type="line"/>
      <point x="487" y="52"/>
      <point x="458" y="43"/>
      <point x="439" y="43" type="curve" smooth="yes"/>
      <point x="431" y="43"/>
      <point x="413" y="49"/>
      <point x="418" y="79" type="curve" smooth="yes"/>
      <point x="467" y="332" type="line" smooth="yes"/>
      <point x="481" y="408"/>
      <point x="458" y="450"/>
      <point x="369" y="450" type="curve" smooth="yes"/>
      <point x="322" y="450"/>
      <point x="268" y="427"/>
      <point x="224" y="397" type="curve"/>
      <point x="235" y="450" type="line"/>
      <point x="172" y="450" type="line"/>
      <point x="25" y="420" type="line"/>
      <point x="25" y="389" type="line"/>
      <point x="100" y="382" type="line"/>
      <point x="21" y="0" type="line"/>
      <point x="141" y="0" type="line"/>
      <point x="205" y="304" type="line"/>
      <point x="243" y="343"/>
      <point x="290" y="378"/>
      <point x="318" y="378" type="curve" smooth="yes"/>
      <point x="337" y="378"/>
      <point x="349" y="364"/>
      <point x="340" y="320" type="curve" smooth="yes"/>
      <point x="285" y="45" type="line" smooth="yes"/>
      <point x="275" y="-1"/>
      <point x="336" y="-10"/>
      <point x="376" y="-10" type="curve" smooth="yes"/>
      <point x="417" y="-10"/>
      <point x="485" y="5"/>
    </contour>
  </outline>
</glyph>
<glyph name="o" format="2">
  <advance width="497"/>
  <unicode hex="006F"/>
  <outline>
    <contour>
      <point x="469" y="272" type="curve" smooth="yes"/>
      <point x="469" y="389"/>
      <point x="398" y="450"/>
      <point x="287" y="450" type="curve" smooth="yes"/>
      <point x="121" y="450"/>
      <point x="29" y="304"/>
      <point x="29" y="163" type="curve" smooth="yes"/>
      <point x="29" y="62"/>
      <point x="85" y="-10"/>
      <point x="208" y="-10" type="curve" smooth="yes"/>
      <point x="372" y="-10"/>
      <point x="469" y="131"/>
    </contour>
    <contour>
      <point x="340" y="276" type="curve" smooth="yes"/>
      <point x="340" y="165"/>
      <point x="282" y="38"/>
      <point x="219" y="38" type="curve" smooth="yes"/>
      <point x="199" y="38"/>
      <point x="157" y="73"/>
      <point x="157" y="166" type="curve" smooth="yes"/>
      <point x="157" y="287"/>
      <point x="223" y="402"/>
      <point x="278" y="402" type="curve" smooth="yes"/>
      <point x="300" y="402"/>
      <point x="340" y="364"/>
    </contour>
  </outline>
</glyph>
<glyph name="p" format="2">
  <advance width="486"/>
  <unicode hex="0070"/>
  <anchor x="8" y="-191" name="H"/>
  <anchor x="264" y="483" name="U"/>
  <outline>
    <contour>
      <point x="457" y="279" type="curve" smooth="yes"/>
      <point x="457" y="361"/>
      <point x="414" y="450"/>
      <point x="320" y="450" type="curve" smooth="yes"/>
      <point x="272" y="450"/>
      <point x="231" y="427"/>
      <point x="212" y="416" type="curve"/>
      <point x="218" y="450" type="line"/>
      <point x="158" y="450" type="line"/>
      <point x="10" y="420" type="line"/>
      <point x="10" y="389" type="line"/>
      <point x="84" y="381" type="line"/>
      <point x="-17" y="-136" type="line" smooth="yes"/>
      <point x="-18" y="-145"/>
      <point x="-23" y="-151"/>
      <point x="-32" y="-152" type="curve"/>
      <point x="-47" y="-153"/>
      <point x="-72" y="-155"/>
      <point x="-86" y="-156" type="curve"/>
      <point x="-86" y="-197" type="line"/>
      <point x="178" y="-197" type="line"/>
      <point x="178" y="-156" type="line"/>
      <point x="148" y="-153"/>
      <point x="124" y="-152"/>
      <point x="116" y="-151" type="curve" smooth="yes"/>
      <point x="106" y="-150"/>
      <point x="100" y="-145"/>
      <point x="102" y="-136" type="curve" smooth="yes"/>
      <point x="129" y="-3" type="line"/>
      <point x="141" y="-7"/>
      <point x="158" y="-10"/>
      <point x="180" y="-10" type="curve" smooth="yes"/>
      <point x="351" y="-10"/>
      <point x="457" y="135"/>
    </contour>
    <contour>
      <point x="332" y="276" type="curve" smooth="yes"/>
      <point x="332" y="170"/>
      <point x="272" y="36"/>
      <point x="197" y="36" type="curve" smooth="yes"/>
      <point x="181" y="36"/>
      <point x="156" y="52"/>
      <point x="142" y="61" type="curve"/>
      <point x="197" y="338" type="line"/>
      <point x="214" y="354"/>
      <point x="252" y="387"/>
      <point x="278" y="387" type="curve" smooth="yes"/>
      <point x="325" y="387"/>
      <point x="332" y="326"/>
    </contour>
  </outline>
</glyph>
<glyph name="q" format="2">
  <advance width="512"/>
  <unicode hex="0071"/>
  <anchor x="336" y="483" name="U"/>
  <outline>
    <contour>
      <point x="484" y="450" type="line"/>
      <point x="396" y="450" type="line"/>
      <point x="382" y="433" type="line"/>
      <point x="361" y="442"/>
      <point x="333" y="450"/>
      <point x="304" y="450" type="curve" smooth="yes"/>
      <point x="127" y="450"/>
      <point x="30" y="288"/>
      <point x="30" y="153" type="curve" smooth="yes"/>
      <point x="30" y="50"/>
      <point x="77" y="-12"/>
      <point x="173" y="-12" type="curve" smooth="yes"/>
      <point x="206" y="-12"/>
      <point x="243" y="0"/>
      <point x="279" y="19" type="curve"/>
      <point x="247" y="-136" type="line" smooth="yes"/>
      <point x="245" y="-145"/>
      <point x="241" y="-150"/>
      <point x="232" y="-151" type="curve"/>
      <point x="232" y="-151"/>
      <point x="193" y="-155"/>
      <point x="177" y="-156" type="curve"/>
      <point x="177" y="-197" type="line"/>
      <point x="442" y="-197" type="line"/>
      <point x="442" y="-156" type="line"/>
      <point x="401" y="-152"/>
      <point x="377" y="-151"/>
      <point x="377" y="-151" type="curve"/>
      <point x="367" y="-151"/>
      <point x="365" y="-145"/>
      <point x="367" y="-136" type="curve" smooth="yes"/>
    </contour>
    <contour>
      <point x="344" y="351" type="curve"/>
      <point x="295" y="103" type="line"/>
      <point x="270" y="81"/>
      <point x="245" y="50"/>
      <point x="209" y="50" type="curve" smooth="yes"/>
      <point x="165" y="50"/>
      <point x="153" y="92"/>
      <point x="153" y="157" type="curve" smooth="yes"/>
      <point x="153" y="301"/>
      <point x="239" y="400"/>
      <point x="315" y="400" type="curve" smooth="yes"/>
      <point x="328" y="400"/>
      <point x="347" y="363"/>
    </contour>
  </outline>
</glyph>
<glyph name="r" format="2">
  <advance width="383"/>
  <unicode hex="0072"/>
  <anchor x="85" y="0" name="H"/>
  <anchor x="234" y="439" name="U"/>
  <outline>
    <contour>
      <point x="410" y="373" type="curve"/>
      <point x="384" y="384"/>
      <point x="345" y="411"/>
      <point x="325" y="411" type="curve" smooth="yes"/>
      <point x="287" y="411"/>
      <point x="249" y="391"/>
      <point x="192" y="306" type="curve"/>
      <point x="195" y="328"/>
      <point x="199" y="357"/>
      <point x="199" y="369" type="curve" smooth="yes"/>
      <point x="199" y="402"/>
      <point x="193" y="411"/>
      <point x="177" y="411" type="curve" smooth="yes"/>
      <point x="154" y="411"/>
      <point x="58" y="373"/>
      <point x="9" y="351" type="curve"/>
      <point x="17" y="317" type="line"/>
      <point x="26" y="320"/>
      <point x="50" y="328"/>
      <point x="58" y="328" type="curve" smooth="yes"/>
      <point x="68" y="328"/>
      <point x="76" y="325"/>
      <point x="76" y="298" type="curve" smooth="yes"/>
      <point x="76" y="245"/>
      <point x="57" y="124"/>
      <point x="31" y="0" type="curve"/>
      <point x="50" y="-18" type="line"/>
      <point x="64" y="-10"/>
      <point x="141" y="24"/>
      <point x="161" y="32" type="curve"/>
      <point x="159" y="79"/>
      <point x="168" y="124"/>
      <point x="181" y="168" type="curve" smooth="yes"/>
      <point x="205" y="252"/>
      <point x="250" y="304"/>
      <point x="281" y="304" type="curve" smooth="yes"/>
      <point x="298" y="304"/>
      <point x="319" y="270"/>
      <point x="341" y="270" type="curve" smooth="yes"/>
      <point x="352" y="270"/>
      <point x="395" y="354"/>
    </contour>
  </outline>
</glyph>
<glyph name="s" format="2">
  <advance width="373"/>
  <unicode hex="0073"/>
  <anchor x="142" y="0" name="H"/>
  <anchor x="245" y="483" name="U"/>
  <outline>
    <contour>
      <point x="354" y="380" type="curve" smooth="yes"/>
      <point x="354" y="403"/>
      <point x="319" y="450"/>
      <point x="244" y="450" type="curve" smooth="yes"/>
      <point x="148" y="450"/>
      <point x="62" y="395"/>
      <point x="62" y="311" type="curve" smooth="yes"/>
      <point x="62" y="266"/>
      <point x="99" y="226"/>
      <point x="137" y="198" type="curve" smooth="yes"/>
      <point x="181" y="164"/>
      <point x="211" y="139"/>
      <point x="211" y="102" type="curve" smooth="yes"/>
      <point x="211" y="60"/>
      <point x="193" y="33"/>
      <point x="157" y="33" type="curve" smooth="yes"/>
      <point x="133" y="33"/>
      <point x="96" y="43"/>
      <point x="83" y="61" type="curve"/>
      <point x="99" y="114" type="line"/>
      <point x="88" y="127"/>
      <point x="70" y="135"/>
      <point x="43" y="135" type="curve" smooth="yes"/>
      <point x="19" y="135"/>
      <point x="-6" y="106"/>
      <point x="-6" y="74" type="curve" smooth="yes"/>
      <point x="-6" y="31"/>
      <point x="36" y="-10"/>
      <point x="130" y="-10" type="curve" smooth="yes"/>
      <point x="265" y="-10"/>
      <point x="331" y="63"/>
      <point x="331" y="133" type="curve" smooth="yes"/>
      <point x="331" y="177"/>
      <point x="292" y="212"/>
      <point x="251" y="243" type="curve" smooth="yes"/>
      <point x="213" y="273"/>
      <point x="171" y="307"/>
      <point x="171" y="348" type="curve" smooth="yes"/>
      <point x="171" y="388"/>
      <point x="186" y="400"/>
      <point x="209" y="400" type="curve" smooth="yes"/>
      <point x="219" y="400"/>
      <point x="228" y="398"/>
      <point x="232" y="396" type="curve"/>
      <point x="279" y="318" type="line"/>
      <point x="333" y="322"/>
      <point x="354" y="340"/>
    </contour>
  </outline>
</glyph>
<glyph name="t" format="2">
  <advance width="309"/>
  <unicode hex="0074"/>
  <anchor x="128" y="0" name="H"/>
  <anchor x="228" y="598" name="U"/>
  <outline>
    <contour>
      <point x="353" y="376" type="line"/>
      <point x="353" y="425" type="line"/>
      <point x="228" y="425" type="line"/>
      <point x="247" y="527" type="line"/>
      <point x="157" y="527" type="line"/>
      <point x="111" y="434" type="line"/>
      <point x="35" y="404" type="line"/>
      <point x="35" y="367" type="line"/>
      <point x="99" y="374" type="line"/>
      <point x="44" y="106" type="line" smooth="yes"/>
      <point x="42" y="93"/>
      <point x="41" y="81"/>
      <point x="41" y="70" type="curve" smooth="yes"/>
      <point x="41" y="23"/>
      <point x="74" y="-10"/>
      <point x="144" y="-10" type="curve" smooth="yes"/>
      <point x="200" y="-10"/>
      <point x="290" y="24"/>
      <point x="310" y="33" type="curve"/>
      <point x="310" y="82" type="line"/>
      <point x="281" y="72"/>
      <point x="225" y="51"/>
      <point x="198" y="51" type="curve" smooth="yes"/>
      <point x="170" y="51"/>
      <point x="156" y="70"/>
      <point x="163" y="97" type="curve"/>
      <point x="219" y="376" type="line"/>
    </contour>
  </outline>
</glyph>
<glyph name="u" format="2">
  <advance width="516"/>
  <unicode hex="0075"/>
  <outline>
    <contour>
      <point x="514" y="25" type="curve"/>
      <point x="514" y="75" type="line"/>
      <point x="460" y="46"/>
      <point x="448" y="43"/>
      <point x="439" y="43" type="curve" smooth="yes"/>
      <point x="420" y="43"/>
      <point x="408" y="56"/>
      <point x="415" y="90" type="curve" smooth="yes"/>
      <point x="489" y="439" type="line"/>
      <point x="370" y="439" type="line"/>
      <point x="299" y="106" type="line"/>
      <point x="267" y="76"/>
      <point x="232" y="52"/>
      <point x="191" y="52" type="curve" smooth="yes"/>
      <point x="169" y="52"/>
      <point x="156" y="77"/>
      <point x="162" y="105" type="curve" smooth="yes"/>
      <point x="235" y="450" type="line"/>
      <point x="173" y="450" type="line"/>
      <point x="25" y="420" type="line"/>
      <point x="25" y="389" type="line"/>
      <point x="100" y="381" type="line"/>
      <point x="42" y="105" type="line" smooth="yes"/>
      <point x="31" y="56"/>
      <point x="63" y="-10"/>
      <point x="152" y="-10" type="curve" smooth="yes"/>
      <point x="211" y="-10"/>
      <point x="256" y="4"/>
      <point x="296" y="31" type="curve"/>
      <point x="298" y="18"/>
      <point x="310" y="-10"/>
      <point x="372" y="-10" type="curve" smooth="yes"/>
      <point x="424" y="-10"/>
      <point x="490" y="11"/>
    </contour>
  </outline>
</glyph>
<glyph name="v" format="2">
  <advance width="457"/>
  <unicode hex="0076"/>
  <outline>
    <contour>
      <point x="462" y="392" type="curve" smooth="yes"/>
      <point x="462" y="427"/>
      <point x="430" y="450"/>
      <point x="388" y="450" type="curve" smooth="yes"/>
      <point x="359" y="450"/>
      <point x="332" y="441"/>
      <point x="316" y="426" type="curve"/>
      <point x="341" y="312" type="line"/>
      <point x="318" y="255"/>
      <point x="279" y="209"/>
      <point x="235" y="150" type="curve"/>
      <point x="210" y="382" type="line" smooth="yes"/>
      <point x="206" y="427"/>
      <point x="171" y="449"/>
      <point x="109" y="450" type="curve"/>
      <point x="2" y="418" type="line"/>
      <point x="2" y="386" type="line"/>
      <point x="33" y="385"/>
      <point x="64" y="383"/>
      <point x="64" y="383" type="curve"/>
      <point x="80" y="383"/>
      <point x="81" y="381"/>
      <point x="87" y="368" type="curve" smooth="yes"/>
      <point x="106" y="320"/>
      <point x="125" y="69"/>
      <point x="125" y="61" type="curve" smooth="yes"/>
      <point x="126" y="42"/>
      <point x="119" y="19"/>
      <point x="104" y="-10" type="curve"/>
      <point x="192" y="-10" type="line"/>
      <point x="250" y="53"/>
      <point x="361" y="177"/>
      <point x="442" y="324" type="curve" smooth="yes"/>
      <point x="449" y="335"/>
      <point x="462" y="361"/>
    </contour>
  </outline>
</glyph>
<glyph name="w" format="2">
  <advance width="675"/>
  <unicode hex="0077"/>
  <anchor x="370" y="483" name="U"/>
  <outline>
    <contour>
      <point x="679" y="393" type="curve" smooth="yes"/>
      <point x="679" y="408"/>
      <point x="655" y="450"/>
      <point x="606" y="450" type="curve" smooth="yes"/>
      <point x="569" y="450"/>
      <point x="551" y="430"/>
      <point x="546" y="423" type="curve"/>
      <point x="580" y="327" type="line"/>
      <point x="550" y="262"/>
      <point x="493" y="181"/>
      <point x="452" y="122" type="curve"/>
      <point x="431" y="439" type="line"/>
      <point x="328" y="428" type="line"/>
      <point x="290" y="341"/>
      <point x="247" y="247"/>
      <point x="206" y="167" type="curve"/>
      <point x="188" y="439" type="line"/>
      <point x="124" y="450" type="line"/>
      <point x="3" y="417" type="line"/>
      <point x="3" y="388" type="line"/>
      <point x="72" y="381" type="line"/>
      <point x="96" y="13" type="line"/>
      <point x="86" y="-10" type="line"/>
      <point x="179" y="-10" type="line"/>
      <point x="222" y="54"/>
      <point x="279" y="153"/>
      <point x="325" y="246" type="curve"/>
      <point x="343" y="-10" type="line"/>
      <point x="432" y="-10" type="line"/>
      <point x="455" y="16"/>
      <point x="679" y="293"/>
    </contour>
  </outline>
</glyph>
<glyph name="x" format="2">
  <advance width="518"/>
  <unicode hex="0078"/>
  <anchor x="348" y="0" name="H"/>
  <anchor x="315" y="483" name="U"/>
  <outline>
    <contour>
      <point x="527" y="393" type="curve" smooth="yes"/>
      <point x="527" y="426"/>
      <point x="490" y="450"/>
      <point x="453" y="450" type="curve" smooth="yes"/>
      <point x="390" y="450"/>
      <point x="329" y="370"/>
      <point x="287" y="306" type="curve"/>
      <point x="261" y="394"/>
      <point x="231" y="450"/>
      <point x="175" y="450" type="curve" smooth="yes"/>
      <point x="163" y="450"/>
      <point x="69" y="422"/>
      <point x="47" y="413" type="curve"/>
      <point x="47" y="386" type="line"/>
      <point x="136" y="375" type="line" smooth="yes"/>
      <point x="150" y="373"/>
      <point x="193" y="245"/>
      <point x="201" y="210" type="curve"/>
      <point x="173" y="140"/>
      <point x="127" y="87"/>
      <point x="95" y="60" type="curve"/>
      <point x="61" y="113" type="line"/>
      <point x="-6" y="113"/>
      <point x="-16" y="71"/>
      <point x="-16" y="43" type="curve" smooth="yes"/>
      <point x="-16" y="7"/>
      <point x="25" y="-10"/>
      <point x="66" y="-10" type="curve" smooth="yes"/>
      <point x="145" y="-10"/>
      <point x="212" y="116"/>
      <point x="225" y="139" type="curve"/>
      <point x="244" y="77"/>
      <point x="285" y="-10"/>
      <point x="343" y="-10" type="curve" smooth="yes"/>
      <point x="395" y="-10"/>
      <point x="431" y="-3"/>
      <point x="473" y="20" type="curve"/>
      <point x="473" y="72" type="line"/>
      <point x="433" y="45"/>
      <point x="413" y="45"/>
      <point x="403" y="45" type="curve" smooth="yes"/>
      <point x="382" y="45"/>
      <point x="375" y="76"/>
      <point x="359" y="112" type="curve" smooth="yes"/>
      <point x="342" y="149"/>
      <point x="322" y="208"/>
      <point x="315" y="230" type="curve"/>
      <point x="343" y="297"/>
      <point x="395" y="350"/>
      <point x="424" y="371" type="curve"/>
      <point x="464" y="324" type="line"/>
      <point x="525" y="324"/>
      <point x="527" y="370"/>
    </contour>
  </outline>
</glyph>
<glyph name="y" format="2">
  <advance width="488"/>
  <unicode hex="0079"/>
  <outline>
    <contour>
      <point x="514" y="399" type="line"/>
      <point x="514" y="423" type="line"/>
      <point x="429" y="450" type="line"/>
      <point x="386" y="450" type="line"/>
      <point x="262" y="178" type="line"/>
      <point x="248" y="248"/>
      <point x="232" y="320"/>
      <point x="220" y="361" type="curve" smooth="yes"/>
      <point x="195" y="446"/>
      <point x="170" y="450"/>
      <point x="130" y="450" type="curve" smooth="yes"/>
      <point x="111" y="450"/>
      <point x="23" y="424"/>
      <point x="2" y="416" type="curve"/>
      <point x="2" y="388" type="line"/>
      <point x="97" y="381" type="line"/>
      <point x="106" y="381"/>
      <point x="118" y="289"/>
      <point x="136" y="206" type="curve" smooth="yes"/>
      <point x="155" y="121"/>
      <point x="171" y="33"/>
      <point x="174" y="18" type="curve"/>
      <point x="124" y="-72"/>
      <point x="79" y="-122"/>
      <point x="38" y="-131" type="curve"/>
      <point x="0" y="-62" type="line"/>
      <point x="-55" y="-64"/>
      <point x="-72" y="-108"/>
      <point x="-72" y="-137" type="curve" smooth="yes"/>
      <point x="-72" y="-163"/>
      <point x="-51" y="-206"/>
      <point x="21" y="-206" type="curve" smooth="yes"/>
      <point x="130" y="-206"/>
      <point x="205" y="-116"/>
      <point x="265" y="-12" type="curve" smooth="yes"/>
      <point x="322" y="84"/>
      <point x="368" y="195"/>
      <point x="394" y="252" type="curve" smooth="yes"/>
      <point x="410" y="289"/>
      <point x="453" y="357"/>
      <point x="468" y="370" type="curve"/>
    </contour>
  </outline>
</glyph>
<glyph name="z" format="2">
  <advance width="442"/>
  <unicode hex="007A"/>
  <anchor x="177" y="0" name="H"/>
  <anchor x="259" y="483" name="U"/>
  <outline>
    <contour>
      <point x="448" y="423" type="line"/>
      <point x="349" y="473" type="line"/>
      <point x="324" y="416" type="line"/>
      <point x="320" y="412"/>
      <point x="314" y="411"/>
      <point x="305" y="411" type="curve" smooth="yes"/>
      <point x="294" y="411"/>
      <point x="243" y="450"/>
      <point x="182" y="450" type="curve" smooth="yes"/>
      <point x="98" y="450"/>
      <point x="26" y="379"/>
      <point x="26" y="322" type="curve" smooth="yes"/>
      <point x="26" y="297"/>
      <point x="43" y="255"/>
      <point x="82" y="255" type="curve" smooth="yes"/>
      <point x="112" y="255"/>
      <point x="145" y="280"/>
      <point x="151" y="290" type="curve"/>
      <point x="97" y="347" type="line"/>
      <point x="106" y="360"/>
      <point x="143" y="373"/>
      <point x="155" y="373" type="curve" smooth="yes"/>
      <point x="176" y="373"/>
      <point x="194" y="361"/>
      <point x="225" y="344" type="curve"/>
      <point x="282" y="356" type="line"/>
      <point x="-14" y="14" type="line"/>
      <point x="76" y="-35" type="line"/>
      <point x="109" y="22" type="line" smooth="yes"/>
      <point x="113" y="27"/>
      <point x="120" y="27"/>
      <point x="128" y="27" type="curve" smooth="yes"/>
      <point x="140" y="27"/>
      <point x="190" y="-10"/>
      <point x="251" y="-10" type="curve" smooth="yes"/>
      <point x="335" y="-10"/>
      <point x="407" y="59"/>
      <point x="407" y="116" type="curve" smooth="yes"/>
      <point x="407" y="141"/>
      <point x="390" y="183"/>
      <point x="352" y="183" type="curve" smooth="yes"/>
      <point x="322" y="183"/>
      <point x="288" y="158"/>
      <point x="282" y="149" type="curve"/>
      <point x="336" y="91" type="line"/>
      <point x="328" y="78"/>
      <point x="291" y="65"/>
      <point x="279" y="65" type="curve" smooth="yes"/>
      <point x="258" y="65"/>
      <point x="240" y="77"/>
      <point x="207" y="94" type="curve"/>
      <point x="151" y="82" type="line"/>
    </contour>
  </outline>
</glyph>
<glyph name="braceleft" format="2">
  <advance width="445"/>
  <unicode hex="007B"/>
  <outline>
    <contour>
      <point x="457" y="635" type="line"/>
      <point x="437" y="635"/>
      <point x="326" y="638"/>
      <point x="273" y="598" type="curve" smooth="yes"/>
      <point x="177" y="525"/>
      <point x="213" y="367"/>
      <point x="150" y="314" type="curve" smooth="yes"/>
      <point x="108" y="279"/>
      <point x="46" y="289"/>
      <point x="46" y="289" type="curve"/>
      <point x="36" y="235" type="line"/>
      <point x="36" y="235"/>
      <point x="102" y="245"/>
      <point x="130" y="210" type="curve" smooth="yes"/>
      <point x="172" y="157"/>
      <point x="72" y="0"/>
      <point x="140" y="-72" type="curve" smooth="yes"/>
      <point x="177" y="-113"/>
      <point x="289" y="-109"/>
      <point x="310" y="-109" type="curve"/>
      <point x="320" y="-60" type="line"/>
      <point x="320" y="-60"/>
      <point x="262" y="-62"/>
      <point x="240" y="-36" type="curve" smooth="yes"/>
      <point x="195" y="17"/>
      <point x="286" y="152"/>
      <point x="226" y="222" type="curve" smooth="yes"/>
      <point x="192" y="262"/>
      <point x="137" y="262"/>
      <point x="137" y="262" type="curve"/>
      <point x="137" y="262"/>
      <point x="192" y="261"/>
      <point x="243" y="302" type="curve" smooth="yes"/>
      <point x="330" y="371"/>
      <point x="294" y="508"/>
      <point x="358" y="561" type="curve" smooth="yes"/>
      <point x="391" y="588"/>
      <point x="449" y="585"/>
      <point x="449" y="585" type="curve"/>
    </contour>
  </outline>
</glyph>
<glyph name="bar" format="2">
  <advance width="358"/>
  <unicode hex="007C"/>
  <outline>
    <contour>
      <point x="217" y="-232" type="line"/>
      <point x="217" y="716" type="line"/>
      <point x="140" y="716" type="line"/>
      <point x="140" y="-232" type="line"/>
    </contour>
  </outline>
</glyph>
<glyph name="braceright" format="2">
  <advance width="445"/>
  <unicode hex="007D"/>
  <outline>
    <contour>
      <point x="418" y="289" type="line"/>
      <point x="418" y="289"/>
      <point x="352" y="279"/>
      <point x="324" y="314" type="curve" smooth="yes"/>
      <point x="282" y="367"/>
      <point x="382" y="525"/>
      <point x="315" y="598" type="curve" smooth="yes"/>
      <point x="278" y="638"/>
      <point x="165" y="635"/>
      <point x="145" y="635" type="curve"/>
      <point x="134" y="585" type="line"/>
      <point x="134" y="585"/>
      <point x="193" y="588"/>
      <point x="214" y="561" type="curve" smooth="yes"/>
      <point x="258" y="509"/>
      <point x="167" y="372"/>
      <point x="227" y="302" type="curve" smooth="yes"/>
      <point x="261" y="261"/>
      <point x="317" y="262"/>
      <point x="317" y="262" type="curve"/>
      <point x="317" y="262"/>
      <point x="261" y="262"/>
      <point x="211" y="222" type="curve" smooth="yes"/>
      <point x="124" y="152"/>
      <point x="161" y="16"/>
      <point x="97" y="-36" type="curve" smooth="yes"/>
      <point x="63" y="-62"/>
      <point x="7" y="-60"/>
      <point x="7" y="-60" type="curve"/>
      <point x="-2" y="-109" type="line"/>
      <point x="18" y="-109"/>
      <point x="129" y="-113"/>
      <point x="182" y="-72" type="curve" smooth="yes"/>
      <point x="278" y="0"/>
      <point x="241" y="156"/>
      <point x="304" y="210" type="curve" smooth="yes"/>
      <point x="346" y="245"/>
      <point x="408" y="235"/>
      <point x="408" y="235" type="curve"/>
    </contour>
  </outline>
</glyph>
<glyph name="exclamdown" format="2">
  <advance width="305"/>
  <unicode hex="00A1"/>
  <outline>
    <contour>
      <point x="250" y="374" type="curve" smooth="yes"/>
      <point x="250" y="414"/>
      <point x="219" y="450"/>
      <point x="176" y="450" type="curve" smooth="yes"/>
      <point x="137" y="450"/>
      <point x="107" y="417"/>
      <point x="107" y="377" type="curve" smooth="yes"/>
      <point x="107" y="339"/>
      <point x="136" y="304"/>
      <point x="175" y="304" type="curve" smooth="yes"/>
      <point x="214" y="304"/>
      <point x="250" y="334"/>
    </contour>
    <contour>
      <point x="181" y="251" type="line"/>
      <point x="133" y="251" type="line"/>
      <point x="91" y="127"/>
      <point x="11" y="-98"/>
      <point x="11" y="-121" type="curve" smooth="yes"/>
      <point x="11" y="-162"/>
      <point x="37" y="-179"/>
      <point x="72" y="-179" type="curve" smooth="yes"/>
      <point x="113" y="-179"/>
      <point x="158" y="-156"/>
      <point x="160" y="-106" type="curve" smooth="yes"/>
    </contour>
  </outline>
</glyph>
<glyph name="cent" format="2">
  <advance width="538"/>
  <unicode hex="00A2"/>
  <outline>
    <contour>
      <point x="505" y="420" type="line"/>
      <point x="454" y="435"/>
      <point x="416" y="445"/>
      <point x="372" y="449" type="curve"/>
      <point x="388" y="532" type="line"/>
      <point x="318" y="532" type="line"/>
      <point x="302" y="447" type="line"/>
      <point x="134" y="428"/>
      <point x="36" y="301"/>
      <point x="36" y="177" type="curve" smooth="yes"/>
      <point x="36" y="96"/>
      <point x="81" y="7"/>
      <point x="213" y="-7" type="curve"/>
      <point x="195" y="-98" type="line"/>
      <point x="264" y="-98" type="line"/>
      <point x="282" y="-10" type="line"/>
      <point x="339" y="-6"/>
      <point x="388" y="7"/>
      <point x="422" y="18" type="curve"/>
      <point x="445" y="141" type="line"/>
      <point x="384" y="141" type="line"/>
      <point x="370" y="108"/>
      <point x="373" y="51"/>
      <point x="338" y="45" type="curve"/>
      <point x="331" y="43"/>
      <point x="310" y="38"/>
      <point x="291" y="37" type="curve"/>
      <point x="362" y="401" type="line"/>
      <point x="383" y="398"/>
      <point x="407" y="391"/>
      <point x="413" y="388" type="curve"/>
      <point x="435" y="383"/>
      <point x="420" y="306"/>
      <point x="420" y="301" type="curve"/>
      <point x="481" y="301" type="line"/>
    </contour>
    <contour>
      <point x="291" y="390" type="curve"/>
      <point x="224" y="48" type="line"/>
      <point x="184" y="65"/>
      <point x="152" y="104"/>
      <point x="152" y="169" type="curve" smooth="yes"/>
      <point x="152" y="285"/>
      <point x="219" y="362"/>
    </contour>
  </outline>
</glyph>
<glyph name="sterling" format="2">
  <advance width="538"/>
  <unicode hex="00A3"/>
  <outline>
    <contour>
      <point x="550" y="544" type="curve" smooth="yes"/>
      <point x="550" y="595"/>
      <point x="481" y="618"/>
      <point x="420" y="618" type="curve" smooth="yes"/>
      <point x="208" y="618"/>
      <point x="156" y="389"/>
      <point x="150" y="322" type="curve"/>
      <point x="79" y="322" type="line"/>
      <point x="79" y="268" type="line"/>
      <point x="142" y="268" type="line"/>
      <point x="134" y="225"/>
      <point x="127" y="181"/>
      <point x="106" y="137" type="curve" smooth="yes"/>
      <point x="85" y="97"/>
      <point x="54" y="71"/>
      <point x="-2" y="59" type="curve"/>
      <point x="-2" y="0" type="line"/>
      <point x="468" y="0" type="line"/>
      <point x="468" y="79" type="line"/>
      <point x="214" y="79" type="line" smooth="yes"/>
      <point x="194" y="79"/>
      <point x="164" y="77"/>
      <point x="139" y="70" type="curve"/>
      <point x="210" y="121"/>
      <point x="252" y="190"/>
      <point x="267" y="268" type="curve"/>
      <point x="442" y="268" type="line"/>
      <point x="442" y="322" type="line"/>
      <point x="279" y="322" type="line"/>
      <point x="286" y="368"/>
      <point x="306" y="551"/>
      <point x="423" y="558" type="curve"/>
      <point x="461" y="468" type="line"/>
      <point x="518" y="476"/>
      <point x="550" y="498"/>
    </contour>
  </outline>
</glyph>
<glyph name="currency" format="2">
  <advance width="425"/>
  <unicode hex="00A4"/>
  <outline>
    <contour>
      <point x="228" y="367" type="curve"/>
      <point x="283" y="365"/>
      <point x="312" y="314"/>
      <point x="306" y="264" type="curve" smooth="yes"/>
      <point x="299" y="211"/>
      <point x="253" y="161"/>
      <point x="199" y="161" type="curve" smooth="yes"/>
      <point x="144" y="161"/>
      <point x="114" y="215"/>
      <point x="120" y="264" type="curve" smooth="yes"/>
      <point x="127" y="317"/>
      <point x="174" y="367"/>
    </contour>
    <contour>
      <point x="68" y="263" type="curve"/>
      <point x="58" y="180"/>
      <point x="105" y="102"/>
      <point x="192" y="102" type="curve" smooth="yes"/>
      <point x="279" y="102"/>
      <point x="348" y="183"/>
      <point x="359" y="263" type="curve" smooth="yes"/>
      <point x="370" y="343"/>
      <point x="319" y="427"/>
      <point x="236" y="427" type="curve" smooth="yes"/>
      <point x="147" y="427"/>
      <point x="79" y="342"/>
    </contour>
    <contour>
      <point x="126" y="197" type="line"/>
      <point x="107" y="196" type="line"/>
      <point x="13" y="105" type="line"/>
      <point x="16" y="92"/>
      <point x="21" y="78"/>
      <point x="25" y="67" type="curve"/>
      <point x="43" y="65" type="line"/>
      <point x="137" y="156" type="line"/>
    </contour>
    <contour>
      <point x="162" y="355" type="line"/>
      <point x="164" y="376" type="line"/>
      <point x="98" y="462" type="line"/>
      <point x="85" y="457"/>
      <point x="72" y="450"/>
      <point x="61" y="443" type="curve"/>
      <point x="57" y="423" type="line"/>
      <point x="123" y="336" type="line"/>
    </contour>
    <contour>
      <point x="366" y="84" type="line"/>
      <point x="369" y="105" type="line"/>
      <point x="302" y="193" type="line"/>
      <point x="290" y="187"/>
      <point x="276" y="180"/>
      <point x="265" y="174" type="curve"/>
      <point x="261" y="153" type="line"/>
      <point x="327" y="66" type="line"/>
    </contour>
    <contour>
      <point x="400" y="462" type="line"/>
      <point x="382" y="462" type="line"/>
      <point x="286" y="370" type="line"/>
      <point x="290" y="358"/>
      <point x="294" y="343"/>
      <point x="299" y="332" type="curve"/>
      <point x="317" y="330" type="line"/>
      <point x="411" y="422" type="line"/>
    </contour>
  </outline>
</glyph>
<glyph name="yen" format="2">
  <advance width="425"/>
  <unicode hex="00A5"/>
  <outline>
    <contour>
      <point x="491" y="529" type="line"/>
      <point x="317" y="529" type="line"/>
      <point x="312" y="492" type="line"/>
      <point x="353" y="486"/>
      <point x="363" y="479"/>
      <point x="353" y="463" type="curve"/>
      <point x="256" y="304" type="line"/>
      <point x="229" y="388"/>
      <point x="202" y="453"/>
      <point x="170" y="511" type="curve" smooth="yes"/>
      <point x="163" y="525"/>
      <point x="145" y="533"/>
      <point x="129" y="533" type="curve" smooth="yes"/>
      <point x="107" y="533"/>
      <point x="42" y="524"/>
      <point x="9" y="519" type="curve"/>
      <point x="6" y="483" type="line"/>
      <point x="51" y="483"/>
      <point x="58" y="476"/>
      <point x="66" y="463" type="curve" smooth="yes"/>
      <point x="96" y="408"/>
      <point x="134" y="316"/>
      <point x="159" y="225" type="curve"/>
      <point x="158" y="220" type="line"/>
      <point x="45" y="220" type="line"/>
      <point x="40" y="211"/>
      <point x="27" y="182"/>
      <point x="23" y="174" type="curve"/>
      <point x="31" y="163" type="line"/>
      <point x="150" y="163" type="line"/>
      <point x="137" y="68" type="line" smooth="yes"/>
      <point x="136" y="59"/>
      <point x="121" y="47"/>
      <point x="70" y="36" type="curve"/>
      <point x="65" y="0" type="line"/>
      <point x="307" y="0" type="line"/>
      <point x="312" y="36" type="line"/>
      <point x="262" y="47"/>
      <point x="251" y="60"/>
      <point x="252" y="68" type="curve"/>
      <point x="265" y="163" type="line"/>
      <point x="367" y="163" type="line"/>
      <point x="390" y="210" type="line"/>
      <point x="381" y="220" type="line"/>
      <point x="273" y="220" type="line"/>
      <point x="273" y="223" type="line"/>
      <point x="422" y="463" type="line"/>
      <point x="432" y="478"/>
      <point x="448" y="485"/>
      <point x="486" y="492" type="curve"/>
    </contour>
  </outline>
</glyph>
<glyph name="brokenbar" format="2">
  <advance width="230"/>
  <unicode hex="00A6"/>
  <outline>
    <contour>
      <point x="209" y="688" type="line"/>
      <point x="191" y="702" type="line"/>
      <point x="174" y="698"/>
      <point x="145" y="686"/>
      <point x="127" y="676" type="curve"/>
      <point x="78" y="328" type="line"/>
      <point x="96" y="314" type="line"/>
      <point x="110" y="318"/>
      <point x="148" y="331"/>
      <point x="160" y="341" type="curve"/>
    </contour>
    <contour>
      <point x="144" y="222" type="line"/>
      <point x="125" y="237" type="line"/>
      <point x="108" y="232"/>
      <point x="79" y="220"/>
      <point x="63" y="210" type="curve"/>
      <point x="14" y="-132" type="line"/>
      <point x="31" y="-147" type="line"/>
      <point x="44" y="-143"/>
      <point x="84" y="-128"/>
      <point x="94" y="-120" type="curve"/>
    </contour>
  </outline>
</glyph>
<glyph name="section" format="2">
  <advance width="486"/>
  <unicode hex="00A7"/>
  <outline>
    <contour>
      <point x="485" y="620" type="line"/>
      <point x="446" y="637"/>
      <point x="390" y="645"/>
      <point x="343" y="645" type="curve" smooth="yes"/>
      <point x="218" y="645"/>
      <point x="117" y="594"/>
      <point x="117" y="490" type="curve" smooth="yes"/>
      <point x="117" y="450"/>
      <point x="144" y="420"/>
      <point x="184" y="396" type="curve"/>
      <point x="107" y="362"/>
      <point x="53" y="309"/>
      <point x="53" y="231" type="curve" smooth="yes"/>
      <point x="53" y="188"/>
      <point x="72" y="158"/>
      <point x="100" y="134" type="curve" smooth="yes"/>
      <point x="168" y="79"/>
      <point x="261" y="67"/>
      <point x="261" y="4" type="curve" smooth="yes"/>
      <point x="261" y="-51"/>
      <point x="195" y="-73"/>
      <point x="178" y="-73" type="curve" smooth="yes"/>
      <point x="170" y="-73"/>
      <point x="126" y="-71"/>
      <point x="100" y="-55" type="curve"/>
      <point x="103" y="29" type="line"/>
      <point x="32" y="29" type="line"/>
      <point x="10" y="-93" type="line"/>
      <point x="53" y="-113"/>
      <point x="102" y="-126"/>
      <point x="162" y="-126" type="curve" smooth="yes"/>
      <point x="284" y="-126"/>
      <point x="382" y="-59"/>
      <point x="382" y="36" type="curve" smooth="yes"/>
      <point x="382" y="77"/>
      <point x="354" y="108"/>
      <point x="312" y="131" type="curve"/>
      <point x="385" y="163"/>
      <point x="449" y="226"/>
      <point x="449" y="297" type="curve" smooth="yes"/>
      <point x="449" y="340"/>
      <point x="428" y="369"/>
      <point x="400" y="392" type="curve" smooth="yes"/>
      <point x="339" y="442"/>
      <point x="240" y="462"/>
      <point x="240" y="519" type="curve" smooth="yes"/>
      <point x="240" y="574"/>
      <point x="304" y="595"/>
      <point x="320" y="595" type="curve" smooth="yes"/>
      <point x="328" y="595"/>
      <point x="371" y="591"/>
      <point x="396" y="575" type="curve"/>
      <point x="393" y="498" type="line"/>
      <point x="461" y="498" type="line"/>
    </contour>
    <contour>
      <point x="325" y="274" type="curve" smooth="yes"/>
      <point x="325" y="231"/>
      <point x="295" y="192"/>
      <point x="251" y="163" type="curve"/>
      <point x="188" y="199"/>
      <point x="174" y="221"/>
      <point x="174" y="260" type="curve" smooth="yes"/>
      <point x="174" y="293"/>
      <point x="194" y="340"/>
      <point x="246" y="366" type="curve"/>
      <point x="306" y="337"/>
      <point x="325" y="308"/>
    </contour>
  </outline>
</glyph>
<glyph name="copyright" format="2">
  <advance width="753"/>
  <unicode hex="00A9"/>
  <outline>
    <contour>
      <point x="742" y="315" type="curve" smooth="yes"/>
      <point x="742" y="508"/>
      <point x="584" y="664"/>
      <point x="395" y="664" type="curve" smooth="yes"/>
      <point x="202" y="664"/>
      <point x="45" y="507"/>
      <point x="45" y="315" type="curve" smooth="yes"/>
      <point x="45" y="121"/>
      <point x="202" y="-35"/>
      <point x="393" y="-35" type="curve" smooth="yes"/>
      <point x="586" y="-35"/>
      <point x="742" y="121"/>
    </contour>
    <contour>
      <point x="699" y="315" type="curve" smooth="yes"/>
      <point x="699" y="146"/>
      <point x="563" y="7"/>
      <point x="394" y="7" type="curve" smooth="yes"/>
      <point x="225" y="7"/>
      <point x="89" y="145"/>
      <point x="89" y="313" type="curve" smooth="yes"/>
      <point x="89" y="486"/>
      <point x="227" y="622"/>
      <point x="395" y="622" type="curve" smooth="yes"/>
      <point x="563" y="622"/>
      <point x="699" y="485"/>
    </contour>
    <contour>
      <point x="547" y="125" type="curve"/>
      <point x="547" y="237" type="line"/>
      <point x="496" y="237" type="line"/>
      <point x="484" y="160" type="line"/>
      <point x="474" y="155"/>
      <point x="453" y="147"/>
      <point x="430" y="147" type="curve" smooth="yes"/>
      <point x="349" y="147"/>
      <point x="300" y="218"/>
      <point x="300" y="313" type="curve" smooth="yes"/>
      <point x="300" y="391"/>
      <point x="337" y="481"/>
      <point x="432" y="481" type="curve" smooth="yes"/>
      <point x="457" y="481"/>
      <point x="476" y="472"/>
      <point x="484" y="465" type="curve"/>
      <point x="496" y="393" type="line"/>
      <point x="547" y="393" type="line"/>
      <point x="547" y="502" type="line"/>
      <point x="527" y="512"/>
      <point x="479" y="526"/>
      <point x="420" y="526" type="curve" smooth="yes"/>
      <point x="281" y="526"/>
      <point x="198" y="431"/>
      <point x="198" y="315" type="curve" smooth="yes"/>
      <point x="198" y="181"/>
      <point x="288" y="102"/>
      <point x="416" y="102" type="curve" smooth="yes"/>
      <point x="472" y="102"/>
      <point x="524" y="115"/>
    </contour>
  </outline>
</glyph>
<glyph name="ordfeminine" format="2">
  <advance width="332"/>
  <unicode hex="00AA"/>
  <outline>
    <contour>
      <point x="378" y="360" type="curve"/>
      <point x="378" y="387" type="line"/>
      <point x="372" y="385"/>
      <point x="330" y="375"/>
      <point x="327" y="375" type="curve" smooth="yes"/>
      <point x="313" y="375"/>
      <point x="311" y="380"/>
      <point x="311" y="396" type="curve"/>
      <point x="349" y="575" type="line"/>
      <point x="351" y="579"/>
      <point x="359" y="596"/>
      <point x="364" y="607" type="curve"/>
      <point x="301" y="607" type="line"/>
      <point x="297" y="602" type="line"/>
      <point x="284" y="609"/>
      <point x="266" y="614"/>
      <point x="249" y="614" type="curve" smooth="yes"/>
      <point x="123" y="614"/>
      <point x="66" y="517"/>
      <point x="66" y="436" type="curve" smooth="yes"/>
      <point x="66" y="396"/>
      <point x="91" y="338"/>
      <point x="164" y="338" type="curve" smooth="yes"/>
      <point x="191" y="338"/>
      <point x="219" y="350"/>
      <point x="240" y="362" type="curve"/>
      <point x="247" y="346"/>
      <point x="264" y="338"/>
      <point x="289" y="338" type="curve" smooth="yes"/>
      <point x="319" y="338"/>
      <point x="352" y="351"/>
    </contour>
    <contour>
      <point x="328" y="312" type="line"/>
      <point x="45" y="312" type="line"/>
      <point x="36" y="268" type="line"/>
      <point x="319" y="268" type="line"/>
    </contour>
    <contour>
      <point x="267" y="557" type="curve" smooth="yes"/>
      <point x="240" y="424"/>
      <point x="245" y="452"/>
      <point x="236" y="410" type="curve"/>
      <point x="228" y="403"/>
      <point x="207" y="378"/>
      <point x="183" y="378" type="curve" smooth="yes"/>
      <point x="147" y="378"/>
      <point x="149" y="411"/>
      <point x="149" y="439" type="curve" smooth="yes"/>
      <point x="149" y="502"/>
      <point x="182" y="583"/>
      <point x="258" y="583" type="curve" smooth="yes"/>
      <point x="264" y="583"/>
      <point x="268" y="560"/>
    </contour>
  </outline>
</glyph>
<glyph name="guillemetleft" format="2">
  <advance width="371"/>
  <unicode hex="00AB"/>
  <outline>
    <contour>
      <point x="110" y="0" type="line"/>
      <point x="170" y="0" type="line"/>
      <point x="111" y="216" type="line"/>
      <point x="258" y="433" type="line"/>
      <point x="198" y="433" type="line"/>
      <point x="25" y="239" type="line"/>
      <point x="15" y="193" type="line"/>
    </contour>
    <contour>
      <point x="263" y="0" type="line"/>
      <point x="324" y="0" type="line"/>
      <point x="265" y="216" type="line"/>
      <point x="412" y="433" type="line"/>
      <point x="351" y="433" type="line"/>
      <point x="178" y="239" type="line"/>
      <point x="169" y="193" type="line"/>
    </contour>
  </outline>
</glyph>
<glyph name="registered" format="2">
  <advance width="309"/>
  <unicode hex="00AE"/>
  <outline>
    <contour>
      <point x="334" y="476" type="curve" smooth="yes"/>
      <point x="347" y="569"/>
      <point x="298" y="637"/>
      <point x="214" y="637" type="curve" smooth="yes"/>
      <point x="129" y="637"/>
      <point x="63" y="567"/>
      <point x="50" y="476" type="curve" smooth="yes"/>
      <point x="38" y="383"/>
      <point x="86" y="315"/>
      <point x="171" y="315" type="curve" smooth="yes"/>
      <point x="255" y="315"/>
      <point x="322" y="383"/>
    </contour>
    <contour>
      <point x="300" y="476" type="curve" smooth="yes"/>
      <point x="290" y="406"/>
      <point x="247" y="348"/>
      <point x="176" y="348" type="curve" smooth="yes"/>
      <point x="105" y="348"/>
      <point x="75" y="406"/>
      <point x="85" y="476" type="curve" smooth="yes"/>
      <point x="94" y="545"/>
      <point x="137" y="604"/>
      <point x="208" y="604" type="curve" smooth="yes"/>
      <point x="279" y="604"/>
      <point x="309" y="545"/>
    </contour>
    <contour>
      <point x="259" y="521" type="curve" smooth="yes"/>
      <point x="262" y="544"/>
      <point x="246" y="569"/>
      <point x="198" y="569" type="curve" smooth="yes"/>
      <point x="176" y="569"/>
      <point x="155" y="565"/>
      <point x="139" y="561" type="curve"/>
      <point x="138" y="544" type="line"/>
      <point x="155" y="547"/>
      <point x="177" y="549"/>
      <point x="191" y="549" type="curve" smooth="yes"/>
      <point x="217" y="549"/>
      <point x="225" y="534"/>
      <point x="223" y="517" type="curve" smooth="yes"/>
      <point x="220" y="493"/>
      <point x="206" y="488"/>
      <point x="184" y="488" type="curve" smooth="yes"/>
      <point x="179" y="488"/>
      <point x="176" y="489"/>
      <point x="170" y="490" type="curve"/>
      <point x="169" y="470" type="line"/>
      <point x="174" y="468"/>
      <point x="179" y="468"/>
      <point x="183" y="468" type="curve" smooth="yes"/>
      <point x="221" y="468"/>
      <point x="254" y="486"/>
    </contour>
    <contour>
      <point x="267" y="404" type="line"/>
      <point x="266" y="412" type="line"/>
      <point x="254" y="407"/>
      <point x="249" y="408"/>
      <point x="246" y="414" type="curve"/>
      <point x="205" y="482" type="line"/>
      <point x="183" y="474" type="line"/>
      <point x="215" y="392" type="line" smooth="yes"/>
      <point x="217" y="389"/>
      <point x="221" y="384"/>
      <point x="226" y="384" type="curve" smooth="yes"/>
      <point x="232" y="384"/>
      <point x="256" y="398"/>
      <point x="266" y="403" type="curve" smooth="yes"/>
    </contour>
    <contour>
      <point x="181" y="387" type="line"/>
      <point x="182" y="399" type="line"/>
      <point x="171" y="402"/>
      <point x="166" y="406"/>
      <point x="167" y="408" type="curve" smooth="yes"/>
      <point x="188" y="559" type="line"/>
      <point x="155" y="559" type="line"/>
      <point x="134" y="408" type="line" smooth="yes"/>
      <point x="134" y="405"/>
      <point x="129" y="402"/>
      <point x="118" y="399" type="curve"/>
      <point x="116" y="387" type="line"/>
    </contour>
  </outline>
</glyph>
<glyph name="macron" format="2">
  <advance width="412"/>
  <unicode hex="00AF"/>
  <outline>
    <contour>
      <point x="441" y="566" type="curve"/>
      <point x="428" y="581" type="line"/>
      <point x="95" y="581" type="line"/>
      <point x="89" y="569"/>
      <point x="69" y="535"/>
      <point x="65" y="523" type="curve"/>
      <point x="76" y="508" type="line"/>
      <point x="410" y="508" type="line"/>
      <point x="416" y="518"/>
      <point x="437" y="553"/>
    </contour>
  </outline>
</glyph>
<glyph name="degree" format="2">
  <advance width="299"/>
  <unicode hex="00B0"/>
  <outline>
    <contour>
      <point x="300" y="471" type="curve" smooth="yes"/>
      <point x="300" y="515"/>
      <point x="274" y="555"/>
      <point x="223" y="555" type="curve" smooth="yes"/>
      <point x="159" y="555"/>
      <point x="82" y="484"/>
      <point x="82" y="403" type="curve" smooth="yes"/>
      <point x="82" y="364"/>
      <point x="102" y="320"/>
      <point x="159" y="320" type="curve" smooth="yes"/>
      <point x="221" y="320"/>
      <point x="300" y="384"/>
    </contour>
    <contour>
      <point x="185" y="387" type="curve" smooth="yes"/>
      <point x="167" y="387"/>
      <point x="151" y="401"/>
      <point x="151" y="428" type="curve" smooth="yes"/>
      <point x="151" y="462"/>
      <point x="176" y="488"/>
      <point x="199" y="488" type="curve" smooth="yes"/>
      <point x="221" y="488"/>
      <point x="232" y="466"/>
      <point x="232" y="447" type="curve" smooth="yes"/>
      <point x="232" y="418"/>
      <point x="213" y="387"/>
    </contour>
  </outline>
</glyph>
<glyph name="plusminus" format="2">
  <advance width="366"/>
  <unicode hex="00B1"/>
  <outline>
    <contour>
      <point x="246" y="453" type="line"/>
      <point x="233" y="468" type="line"/>
      <point x="220" y="464"/>
      <point x="188" y="454"/>
      <point x="177" y="450" type="curve"/>
      <point x="135" y="154" type="line"/>
      <point x="148" y="140" type="line"/>
      <point x="162" y="143"/>
      <point x="192" y="152"/>
      <point x="204" y="158" type="curve"/>
    </contour>
    <contour>
      <point x="318" y="99" type="curve"/>
      <point x="306" y="114" type="line"/>
      <point x="27" y="114" type="line"/>
      <point x="21" y="102"/>
      <point x="4" y="73"/>
      <point x="0" y="61" type="curve"/>
      <point x="11" y="46" type="line"/>
      <point x="290" y="46" type="line"/>
      <point x="296" y="55"/>
      <point x="313" y="86"/>
    </contour>
    <contour>
      <point x="349" y="323" type="curve"/>
      <point x="337" y="338" type="line"/>
      <point x="56" y="338" type="line"/>
      <point x="50" y="326"/>
      <point x="33" y="297"/>
      <point x="29" y="285" type="curve"/>
      <point x="40" y="270" type="line"/>
      <point x="321" y="270" type="line"/>
      <point x="326" y="279"/>
      <point x="344" y="310"/>
    </contour>
  </outline>
</glyph>
<glyph name="twosuperior" format="2">
  <advance width="350"/>
  <unicode hex="00B2"/>
  <outline>
    <contour>
      <point x="391" y="633" type="curve" smooth="yes"/>
      <point x="391" y="689"/>
      <point x="346" y="715"/>
      <point x="270" y="715" type="curve" smooth="yes"/>
      <point x="178" y="715"/>
      <point x="114" y="682"/>
      <point x="114" y="633" type="curve" smooth="yes"/>
      <point x="114" y="615"/>
      <point x="132" y="600"/>
      <point x="158" y="600" type="curve" smooth="yes"/>
      <point x="184" y="600"/>
      <point x="190" y="610"/>
      <point x="198" y="614" type="curve"/>
      <point x="210" y="670" type="line"/>
      <point x="217" y="674"/>
      <point x="235" y="680"/>
      <point x="251" y="680" type="curve" smooth="yes"/>
      <point x="269" y="680"/>
      <point x="299" y="669"/>
      <point x="299" y="627" type="curve" smooth="yes"/>
      <point x="299" y="549"/>
      <point x="219" y="492"/>
      <point x="49" y="382" type="curve"/>
      <point x="41" y="344" type="line"/>
      <point x="346" y="344" type="line"/>
      <point x="365" y="439" type="line"/>
      <point x="320" y="439" type="line"/>
      <point x="300" y="394" type="line"/>
      <point x="151" y="394" type="line"/>
      <point x="225" y="442"/>
      <point x="391" y="532"/>
    </contour>
  </outline>
</glyph>
<glyph name="threesuperior" format="2">
  <advance width="350"/>
  <unicode hex="00B3"/>
  <outline>
    <contour>
      <point x="389" y="637" type="curve" smooth="yes"/>
      <point x="389" y="685"/>
      <point x="353" y="715"/>
      <point x="271" y="715" type="curve" smooth="yes"/>
      <point x="188" y="715"/>
      <point x="119" y="685"/>
      <point x="119" y="643" type="curve" smooth="yes"/>
      <point x="119" y="623"/>
      <point x="142" y="606"/>
      <point x="159" y="606" type="curve" smooth="yes"/>
      <point x="172" y="606"/>
      <point x="192" y="614"/>
      <point x="200" y="618" type="curve"/>
      <point x="209" y="668" type="line"/>
      <point x="216" y="673"/>
      <point x="231" y="682"/>
      <point x="251" y="682" type="curve" smooth="yes"/>
      <point x="260" y="682"/>
      <point x="298" y="673"/>
      <point x="298" y="630" type="curve" smooth="yes"/>
      <point x="298" y="578"/>
      <point x="246" y="547"/>
      <point x="175" y="551" type="curve"/>
      <point x="169" y="509" type="line"/>
      <point x="202" y="513"/>
      <point x="212" y="515"/>
      <point x="223" y="515" type="curve" smooth="yes"/>
      <point x="229" y="515"/>
      <point x="276" y="511"/>
      <point x="276" y="460" type="curve" smooth="yes"/>
      <point x="276" y="406"/>
      <point x="225" y="369"/>
      <point x="183" y="369" type="curve" smooth="yes"/>
      <point x="171" y="369"/>
      <point x="153" y="376"/>
      <point x="149" y="377" type="curve"/>
      <point x="140" y="424" type="line"/>
      <point x="132" y="427"/>
      <point x="123" y="436"/>
      <point x="105" y="436" type="curve" smooth="yes"/>
      <point x="74" y="436"/>
      <point x="59" y="407"/>
      <point x="59" y="396" type="curve" smooth="yes"/>
      <point x="59" y="372"/>
      <point x="92" y="335"/>
      <point x="177" y="335" type="curve" smooth="yes"/>
      <point x="292" y="335"/>
      <point x="365" y="403"/>
      <point x="365" y="468" type="curve" smooth="yes"/>
      <point x="365" y="507"/>
      <point x="338" y="529"/>
      <point x="286" y="538" type="curve"/>
      <point x="359" y="560"/>
      <point x="389" y="601"/>
    </contour>
  </outline>
</glyph>
<glyph name="mu" format="2">
  <advance width="524"/>
  <unicode hex="00B5"/>
  <outline>
    <contour>
      <point x="502" y="106" type="curve"/>
      <point x="472" y="106" type="line"/>
      <point x="464" y="86"/>
      <point x="450" y="49"/>
      <point x="424" y="49" type="curve" smooth="yes"/>
      <point x="407" y="49"/>
      <point x="412" y="86"/>
      <point x="413" y="97" type="curve" smooth="yes"/>
      <point x="481" y="439" type="line"/>
      <point x="367" y="439" type="line"/>
      <point x="302" y="112" type="line"/>
      <point x="276" y="89"/>
      <point x="244" y="54"/>
      <point x="206" y="54" type="curve" smooth="yes"/>
      <point x="182" y="54"/>
      <point x="170" y="87"/>
      <point x="170" y="107" type="curve" smooth="yes"/>
      <point x="170" y="120"/>
      <point x="172" y="134"/>
      <point x="175" y="146" type="curve" smooth="yes"/>
      <point x="232" y="439" type="line"/>
      <point x="120" y="439" type="line"/>
      <point x="44" y="59" type="line" smooth="yes"/>
      <point x="36" y="16"/>
      <point x="26" y="-27"/>
      <point x="10" y="-68" type="curve" smooth="yes"/>
      <point x="-4" y="-103"/>
      <point x="-25" y="-111"/>
      <point x="-25" y="-153" type="curve" smooth="yes"/>
      <point x="-25" y="-178"/>
      <point x="0" y="-199"/>
      <point x="23" y="-199" type="curve" smooth="yes"/>
      <point x="58" y="-199"/>
      <point x="97" y="-167"/>
      <point x="97" y="-131" type="curve" smooth="yes"/>
      <point x="97" y="-70"/>
      <point x="86" y="-39"/>
      <point x="99" y="24" type="curve"/>
      <point x="111" y="11"/>
      <point x="145" y="-10"/>
      <point x="162" y="-10" type="curve" smooth="yes"/>
      <point x="224" y="-10"/>
      <point x="261" y="16"/>
      <point x="299" y="61" type="curve"/>
      <point x="305" y="26"/>
      <point x="329" y="-10"/>
      <point x="369" y="-10" type="curve" smooth="yes"/>
      <point x="445" y="-10"/>
      <point x="483" y="36"/>
    </contour>
  </outline>
</glyph>
<glyph name="paragraph" format="2">
  <advance width="500"/>
  <unicode hex="00B6"/>
  <outline>
    <contour>
      <point x="518" y="553" type="line"/>
      <point x="493" y="553" type="line"/>
      <point x="493" y="553"/>
      <point x="306" y="566"/>
      <point x="260" y="566" type="curve" smooth="yes"/>
      <point x="133" y="566"/>
      <point x="45" y="496"/>
      <point x="31" y="396" type="curve" smooth="yes"/>
      <point x="16" y="286"/>
      <point x="94" y="226"/>
      <point x="211" y="226" type="curve" smooth="yes"/>
      <point x="226" y="226"/>
      <point x="237" y="227"/>
      <point x="246" y="229" type="curve"/>
      <point x="208" y="-46" type="line"/>
      <point x="207" y="-54"/>
      <point x="188" y="-65"/>
      <point x="151" y="-73" type="curve"/>
      <point x="145" y="-109" type="line"/>
      <point x="427" y="-109" type="line"/>
      <point x="432" y="-73" type="line"/>
      <point x="395" y="-65"/>
      <point x="381" y="-53"/>
      <point x="382" y="-46" type="curve" smooth="yes"/>
      <point x="455" y="489" type="line" smooth="yes"/>
      <point x="457" y="498"/>
      <point x="476" y="508"/>
      <point x="513" y="517" type="curve"/>
    </contour>
    <contour>
      <point x="236" y="281" type="line" smooth="yes"/>
      <point x="163" y="281"/>
      <point x="141" y="348"/>
      <point x="150" y="412" type="curve" smooth="yes"/>
      <point x="159" y="477"/>
      <point x="217" y="512"/>
      <point x="264" y="512" type="curve" smooth="yes"/>
      <point x="270" y="512"/>
      <point x="277" y="512"/>
      <point x="286" y="511" type="curve"/>
      <point x="254" y="281" type="line"/>
    </contour>
    <contour>
      <point x="386" y="499" type="curve"/>
      <point x="312" y="-46" type="line" smooth="yes"/>
      <point x="311" y="-52"/>
      <point x="300" y="-58"/>
      <point x="293" y="-59" type="curve"/>
      <point x="288" y="-58"/>
      <point x="279" y="-52"/>
      <point x="280" y="-46" type="curve" smooth="yes"/>
      <point x="355" y="504" type="line"/>
      <point x="366" y="503"/>
      <point x="376" y="501"/>
    </contour>
  </outline>
</glyph>
<glyph name="periodcentered" format="2">
  <advance width="219"/>
  <unicode hex="00B7"/>
  <outline>
    <contour>
      <point x="183" y="297" type="curve" smooth="yes"/>
      <point x="183" y="326"/>
      <point x="164" y="348"/>
      <point x="125" y="348" type="curve" smooth="yes"/>
      <point x="70" y="348"/>
      <point x="37" y="299"/>
      <point x="37" y="261" type="curve" smooth="yes"/>
      <point x="37" y="230"/>
      <point x="55" y="208"/>
      <point x="96" y="208" type="curve" smooth="yes"/>
      <point x="153" y="208"/>
      <point x="183" y="257"/>
    </contour>
  </outline>
</glyph>
<glyph name="cedilla" format="2">
  <advance width="142"/>
  <unicode hex="00B8"/>
  <outline>
    <contour>
      <point x="104" y="-97" type="curve" smooth="yes"/>
      <point x="104" y="-68"/>
      <point x="87" y="-41"/>
      <point x="48" y="-40" type="curve"/>
      <point x="50" y="-34"/>
      <point x="60" y="8"/>
      <point x="61" y="21" type="curve"/>
      <point x="14" y="22" type="line"/>
      <point x="8" y="-9"/>
      <point x="-6" y="-58"/>
      <point x="-27" y="-94" type="curve"/>
      <point x="-13" y="-93"/>
      <point x="0" y="-102"/>
      <point x="0" y="-113" type="curve" smooth="yes"/>
      <point x="0" y="-134"/>
      <point x="-33" y="-147"/>
      <point x="-78" y="-130" type="curve"/>
      <point x="-77" y="-164" type="line"/>
      <point x="15" y="-207"/>
      <point x="104" y="-159"/>
    </contour>
  </outline>
</glyph>
<glyph name="onesuperior" format="2">
  <advance width="297"/>
  <unicode hex="00B9"/>
  <anchor x="199" y="615" name="U"/>
  <outline>
    <contour>
      <point x="271" y="291" type="line"/>
      <point x="215" y="298"/>
      <point x="203" y="308"/>
      <point x="203" y="315" type="curve" smooth="yes"/>
      <point x="246" y="583" type="line"/>
      <point x="235" y="595" type="line"/>
      <point x="204" y="584"/>
      <point x="112" y="556"/>
      <point x="78" y="550" type="curve"/>
      <point x="82" y="526" type="line"/>
      <point x="134" y="536"/>
      <point x="152" y="534"/>
      <point x="155" y="530" type="curve" smooth="yes"/>
      <point x="159" y="525"/>
      <point x="159" y="518"/>
      <point x="156" y="504" type="curve" smooth="yes"/>
      <point x="127" y="315" type="line" smooth="yes"/>
      <point x="125" y="308"/>
      <point x="106" y="298"/>
      <point x="45" y="291" type="curve"/>
      <point x="41" y="267" type="line"/>
      <point x="267" y="267" type="line"/>
    </contour>
  </outline>
</glyph>
<glyph name="ordmasculine" format="2">
  <advance width="322"/>
  <unicode hex="00BA"/>
  <outline>
    <contour>
      <point x="352" y="508" type="curve" smooth="yes"/>
      <point x="352" y="578"/>
      <point x="304" y="614"/>
      <point x="232" y="614" type="curve" smooth="yes"/>
      <point x="125" y="614"/>
      <point x="64" y="526"/>
      <point x="64" y="442" type="curve" smooth="yes"/>
      <point x="64" y="382"/>
      <point x="100" y="338"/>
      <point x="181" y="338" type="curve" smooth="yes"/>
      <point x="287" y="338"/>
      <point x="352" y="424"/>
    </contour>
    <contour>
      <point x="301" y="312" type="line"/>
      <point x="36" y="312" type="line"/>
      <point x="27" y="268" type="line"/>
      <point x="293" y="268" type="line"/>
    </contour>
    <contour>
      <point x="267" y="510" type="curve" smooth="yes"/>
      <point x="267" y="443"/>
      <point x="229" y="368"/>
      <point x="188" y="368" type="curve" smooth="yes"/>
      <point x="174" y="368"/>
      <point x="148" y="388"/>
      <point x="148" y="444" type="curve" smooth="yes"/>
      <point x="148" y="517"/>
      <point x="190" y="585"/>
      <point x="225" y="585" type="curve" smooth="yes"/>
      <point x="241" y="585"/>
      <point x="267" y="563"/>
    </contour>
  </outline>
</glyph>
<glyph name="guillemetright" format="2">
  <advance width="438"/>
  <unicode hex="00BB"/>
  <outline>
    <contour>
      <point x="238" y="219" type="curve"/>
      <point x="96" y="410" type="line"/>
      <point x="67" y="388" type="line"/>
      <point x="85" y="326"/>
      <point x="102" y="264"/>
      <point x="120" y="203" type="curve"/>
      <point x="18" y="20" type="line"/>
      <point x="39" y="-1" type="line"/>
      <point x="233" y="187" type="line"/>
      <point x="235" y="198"/>
      <point x="236" y="209"/>
    </contour>
    <contour>
      <point x="410" y="219" type="curve"/>
      <point x="268" y="410" type="line"/>
      <point x="239" y="388" type="line"/>
      <point x="256" y="326"/>
      <point x="274" y="264"/>
      <point x="292" y="203" type="curve"/>
      <point x="189" y="20" type="line"/>
      <point x="211" y="-1" type="line"/>
      <point x="404" y="187" type="line"/>
      <point x="406" y="198"/>
      <point x="408" y="209"/>
    </contour>
  </outline>
</glyph>
<glyph name="guillemotright" format="2">
  <advance width="371"/>
  <unicode hex="00BB"/>
  <outline>
    <contour>
      <point x="261" y="433" type="line"/>
      <point x="201" y="433" type="line"/>
      <point x="260" y="217" type="line"/>
      <point x="113" y="0" type="line"/>
      <point x="174" y="0" type="line"/>
      <point x="346" y="194" type="line"/>
      <point x="355" y="239" type="line"/>
    </contour>
    <contour>
      <point x="108" y="433" type="line"/>
      <point x="47" y="433" type="line"/>
      <point x="106" y="217" type="line"/>
      <point x="-40" y="0" type="line"/>
      <point x="20" y="0" type="line"/>
      <point x="193" y="194" type="line"/>
      <point x="202" y="239" type="line"/>
    </contour>
  </outline>
</glyph>
<glyph name="onequarter" format="2">
  <advance width="531"/>
  <unicode hex="00BC"/>
  <outline>
    <contour>
      <point x="541" y="530" type="line"/>
      <point x="533" y="542" type="line"/>
      <point x="520" y="540"/>
      <point x="485" y="533"/>
      <point x="474" y="528" type="curve"/>
      <point x="21" y="0" type="line"/>
      <point x="29" y="-13" type="line"/>
      <point x="44" y="-9"/>
      <point x="76" y="-5"/>
      <point x="90" y="1" type="curve"/>
    </contour>
    <contour>
      <point x="488" y="94" type="curve"/>
      <point x="483" y="101" type="line"/>
      <point x="449" y="101" type="line"/>
      <point x="474" y="253" type="line"/>
      <point x="465" y="262" type="line"/>
      <point x="449" y="257"/>
      <point x="420" y="250"/>
      <point x="404" y="245" type="curve"/>
      <point x="266" y="78" type="line"/>
      <point x="275" y="69" type="line"/>
      <point x="384" y="69" type="line"/>
      <point x="378" y="32" type="line" smooth="yes"/>
      <point x="377" y="27"/>
      <point x="368" y="23"/>
      <point x="326" y="17" type="curve"/>
      <point x="323" y="0" type="line"/>
      <point x="466" y="0" type="line"/>
      <point x="468" y="17" type="line"/>
      <point x="443" y="22"/>
      <point x="437" y="26"/>
      <point x="438" y="30" type="curve" smooth="yes"/>
      <point x="444" y="69" type="line"/>
      <point x="459" y="69" type="line"/>
      <point x="466" y="74"/>
      <point x="480" y="85"/>
    </contour>
    <contour>
      <point x="389" y="101" type="line"/>
      <point x="323" y="101" type="line"/>
      <point x="406" y="202" type="line"/>
    </contour>
    <contour>
      <point x="239" y="279" type="line"/>
      <point x="242" y="299" type="line"/>
      <point x="196" y="304"/>
      <point x="186" y="312"/>
      <point x="187" y="318" type="curve" smooth="yes"/>
      <point x="222" y="533" type="line"/>
      <point x="212" y="542" type="line"/>
      <point x="188" y="533"/>
      <point x="112" y="511"/>
      <point x="84" y="506" type="curve"/>
      <point x="88" y="487" type="line"/>
      <point x="130" y="495"/>
      <point x="145" y="493"/>
      <point x="148" y="490" type="curve" smooth="yes"/>
      <point x="151" y="486"/>
      <point x="150" y="480"/>
      <point x="148" y="469" type="curve" smooth="yes"/>
      <point x="124" y="318" type="line" smooth="yes"/>
      <point x="123" y="312"/>
      <point x="108" y="304"/>
      <point x="58" y="299" type="curve"/>
      <point x="54" y="279" type="line"/>
    </contour>
  </outline>
</glyph>
<glyph name="onehalf" format="2">
  <advance width="816"/>
  <unicode hex="00BD"/>
  <outline>
    <contour>
      <point x="771" y="284" type="curve" smooth="yes"/>
      <point x="771" y="346"/>
      <point x="712" y="369"/>
      <point x="659" y="369" type="curve" smooth="yes"/>
      <point x="604" y="369"/>
      <point x="501" y="346"/>
      <point x="501" y="275" type="curve" smooth="yes"/>
      <point x="501" y="252"/>
      <point x="519" y="244"/>
      <point x="539" y="244" type="curve" smooth="yes"/>
      <point x="552" y="244"/>
      <point x="567" y="249"/>
      <point x="580" y="254" type="curve"/>
      <point x="595" y="327" type="line"/>
      <point x="605" y="330"/>
      <point x="614" y="333"/>
      <point x="626" y="333" type="curve" smooth="yes"/>
      <point x="660" y="333"/>
      <point x="682" y="312"/>
      <point x="682" y="278" type="curve" smooth="yes"/>
      <point x="682" y="177"/>
      <point x="524" y="93"/>
      <point x="450" y="44" type="curve"/>
      <point x="442" y="0" type="line"/>
      <point x="729" y="0" type="line"/>
      <point x="749" y="106" type="line"/>
      <point x="711" y="106" type="line"/>
      <point x="692" y="57" type="line"/>
      <point x="529" y="57" type="line"/>
      <point x="607" y="98"/>
      <point x="771" y="181"/>
    </contour>
    <contour>
      <point x="704" y="625" type="line"/>
      <point x="638" y="625" type="line"/>
      <point x="116" y="0" type="line"/>
      <point x="182" y="0" type="line"/>
    </contour>
    <contour>
      <point x="294" y="637" type="line"/>
      <point x="254" y="637" type="line"/>
      <point x="108" y="600" type="line"/>
      <point x="108" y="569" type="line"/>
      <point x="199" y="581" type="line"/>
      <point x="141" y="307" type="line" smooth="yes"/>
      <point x="140" y="304"/>
      <point x="135" y="299"/>
      <point x="130" y="299" type="curve" smooth="yes"/>
      <point x="71" y="296" type="line"/>
      <point x="71" y="266" type="line"/>
      <point x="279" y="266" type="line"/>
      <point x="279" y="296" type="line"/>
      <point x="235" y="299" type="line" smooth="yes"/>
      <point x="228" y="300"/>
      <point x="223" y="303"/>
      <point x="224" y="306" type="curve" smooth="yes"/>
    </contour>
  </outline>
</glyph>
<glyph name="threequarters" format="2">
  <advance width="816"/>
  <unicode hex="00BE"/>
  <outline>
    <contour>
      <point x="765" y="140" type="line"/>
      <point x="699" y="140" type="line"/>
      <point x="744" y="365" type="line"/>
      <point x="681" y="365" type="line"/>
      <point x="445" y="142" type="line"/>
      <point x="436" y="96" type="line"/>
      <point x="616" y="96" type="line"/>
      <point x="594" y="-16" type="line"/>
      <point x="668" y="-16" type="line"/>
      <point x="691" y="96" type="line"/>
      <point x="756" y="96" type="line"/>
    </contour>
    <contour>
      <point x="730" y="625" type="line"/>
      <point x="664" y="625" type="line"/>
      <point x="144" y="0" type="line"/>
      <point x="209" y="0" type="line"/>
    </contour>
    <contour>
      <point x="365" y="559" type="curve" smooth="yes"/>
      <point x="365" y="618"/>
      <point x="298" y="634"/>
      <point x="250" y="634" type="curve" smooth="yes"/>
      <point x="204" y="634"/>
      <point x="104" y="613"/>
      <point x="104" y="550" type="curve" smooth="yes"/>
      <point x="104" y="528"/>
      <point x="124" y="520"/>
      <point x="144" y="520" type="curve" smooth="yes"/>
      <point x="154" y="520"/>
      <point x="165" y="522"/>
      <point x="176" y="527" type="curve"/>
      <point x="188" y="594" type="line"/>
      <point x="199" y="596"/>
      <point x="207" y="598"/>
      <point x="217" y="598" type="curve" smooth="yes"/>
      <point x="248" y="598"/>
      <point x="279" y="582"/>
      <point x="279" y="547" type="curve" smooth="yes"/>
      <point x="279" y="481"/>
      <point x="214" y="466"/>
      <point x="161" y="469" type="curve"/>
      <point x="152" y="429" type="line"/>
      <point x="193" y="434"/>
      <point x="259" y="435"/>
      <point x="259" y="378" type="curve" smooth="yes"/>
      <point x="259" y="333"/>
      <point x="214" y="293"/>
      <point x="169" y="293" type="curve" smooth="yes"/>
      <point x="156" y="293"/>
      <point x="144" y="297"/>
      <point x="131" y="300" type="curve"/>
      <point x="124" y="361" type="line"/>
      <point x="116" y="365"/>
      <point x="108" y="367"/>
      <point x="100" y="367" type="curve" smooth="yes"/>
      <point x="73" y="367"/>
      <point x="50" y="350"/>
      <point x="50" y="321" type="curve" smooth="yes"/>
      <point x="50" y="272"/>
      <point x="121" y="260"/>
      <point x="157" y="260" type="curve" smooth="yes"/>
      <point x="231" y="260"/>
      <point x="345" y="296"/>
      <point x="345" y="387" type="curve" smooth="yes"/>
      <point x="345" y="438"/>
      <point x="288" y="456"/>
      <point x="246" y="456" type="curve"/>
      <point x="301" y="461"/>
      <point x="365" y="498"/>
    </contour>
    <contour>
      <point x="654" y="286" type="line"/>
      <point x="624" y="140" type="line"/>
      <point x="501" y="140" type="line"/>
    </contour>
  </outline>
</glyph>
<glyph name="questiondown" format="2">
  <advance width="469"/>
  <unicode hex="00BF"/>
  <outline>
    <contour>
      <point x="381" y="374" type="curve" smooth="yes"/>
      <point x="381" y="415"/>
      <point x="349" y="450"/>
      <point x="307" y="450" type="curve" smooth="yes"/>
      <point x="268" y="450"/>
      <point x="239" y="416"/>
      <point x="239" y="377" type="curve" smooth="yes"/>
      <point x="239" y="340"/>
      <point x="268" y="304"/>
      <point x="306" y="304" type="curve" smooth="yes"/>
      <point x="345" y="304"/>
      <point x="381" y="334"/>
    </contour>
    <contour>
      <point x="372" y="-57" type="curve" smooth="yes"/>
      <point x="372" y="-29"/>
      <point x="347" y="-14"/>
      <point x="322" y="-14" type="curve" smooth="yes"/>
      <point x="295" y="-14" type="line"/>
      <point x="295" y="-14"/>
      <point x="244" y="-103"/>
      <point x="232" y="-124" type="curve"/>
      <point x="177" y="-124"/>
      <point x="134" y="-98"/>
      <point x="134" y="-38" type="curve" smooth="yes"/>
      <point x="134" y="51"/>
      <point x="213" y="124"/>
      <point x="296" y="141" type="curve"/>
      <point x="321" y="261" type="line"/>
      <point x="260" y="261" type="line"/>
      <point x="244" y="184" type="line"/>
      <point x="135" y="163"/>
      <point x="7" y="81"/>
      <point x="7" y="-41" type="curve" smooth="yes"/>
      <point x="7" y="-138"/>
      <point x="96" y="-179"/>
      <point x="181" y="-179" type="curve" smooth="yes"/>
      <point x="251" y="-179"/>
      <point x="372" y="-146"/>
    </contour>
  </outline>
</glyph>
<glyph name="AE" format="2">
  <advance width="880"/>
  <unicode hex="00C6"/>
  <anchor x="579" y="659" name="U"/>
  <outline>
    <contour>
      <point x="913" y="603" type="line"/>
      <point x="359" y="603" type="line"/>
      <point x="359" y="558" type="line"/>
      <point x="377" y="557"/>
      <point x="401" y="555"/>
      <point x="401" y="555" type="curve"/>
      <point x="413" y="554"/>
      <point x="420" y="547"/>
      <point x="413" y="540" type="curve" smooth="yes"/>
      <point x="18" y="64" type="line" smooth="yes"/>
      <point x="7" y="51"/>
      <point x="5" y="49"/>
      <point x="-5" y="48" type="curve"/>
      <point x="-5" y="48"/>
      <point x="-26" y="46"/>
      <point x="-47" y="44" type="curve"/>
      <point x="-47" y="0" type="line"/>
      <point x="195" y="0" type="line"/>
      <point x="195" y="44" type="line"/>
      <point x="144" y="49" type="line" smooth="yes"/>
      <point x="142" y="49"/>
      <point x="126" y="57"/>
      <point x="131" y="64" type="curve" smooth="yes"/>
      <point x="265" y="225" type="line"/>
      <point x="442" y="225" type="line"/>
      <point x="409" y="63" type="line" smooth="yes"/>
      <point x="406" y="46"/>
      <point x="425" y="52"/>
      <point x="337" y="44" type="curve"/>
      <point x="337" y="0" type="line"/>
      <point x="814" y="0" type="line"/>
      <point x="845" y="156" type="line"/>
      <point x="774" y="156" type="line"/>
      <point x="746" y="66" type="line" smooth="yes"/>
      <point x="743" y="59"/>
      <point x="729" y="54"/>
      <point x="720" y="54" type="curve" smooth="yes"/>
      <point x="536" y="54" type="line"/>
      <point x="582" y="286" type="line"/>
      <point x="678" y="286" type="line" smooth="yes"/>
      <point x="687" y="286"/>
      <point x="700" y="280"/>
      <point x="699" y="273" type="curve"/>
      <point x="688" y="206" type="line"/>
      <point x="754" y="206" type="line"/>
      <point x="796" y="417" type="line"/>
      <point x="729" y="417" type="line"/>
      <point x="711" y="354" type="line" smooth="yes"/>
      <point x="709" y="345"/>
      <point x="695" y="341"/>
      <point x="686" y="341" type="curve" smooth="yes"/>
      <point x="593" y="341" type="line"/>
      <point x="634" y="549" type="line"/>
      <point x="791" y="549" type="line" smooth="yes"/>
      <point x="802" y="549"/>
      <point x="812" y="547"/>
      <point x="812" y="538" type="curve" smooth="yes"/>
      <point x="812" y="461" type="line"/>
      <point x="885" y="461" type="line"/>
    </contour>
    <contour>
      <point x="494" y="496" type="line"/>
      <point x="452" y="280" type="line"/>
      <point x="311" y="280" type="line"/>
    </contour>
  </outline>
</glyph>
<glyph name="Eth" format="2">
  <advance width="641"/>
  <unicode hex="00D0"/>
  <outline>
    <component base="D"/>
    <contour>
      <point x="18" y="288" type="line"/>
      <point x="351" y="288" type="line"/>
      <point x="351" y="345" type="line"/>
      <point x="18" y="345" type="line"/>
    </contour>
  </outline>
</glyph>
<glyph name="Oslash" format="2">
  <advance width="676"/>
  <unicode hex="00D8"/>
  <outline>
    <contour>
      <point x="659" y="375" type="curve" smooth="yes"/>
      <point x="659" y="451"/>
      <point x="628" y="524"/>
      <point x="564" y="569" type="curve"/>
      <point x="612" y="641" type="line"/>
      <point x="540" y="686" type="line"/>
      <point x="486" y="606" type="line"/>
      <point x="460" y="613"/>
      <point x="430" y="618"/>
      <point x="396" y="618" type="curve" smooth="yes"/>
      <point x="174" y="618"/>
      <point x="43" y="424"/>
      <point x="43" y="236" type="curve" smooth="yes"/>
      <point x="43" y="159"/>
      <point x="70" y="93"/>
      <point x="120" y="48" type="curve"/>
      <point x="62" y="-39" type="line"/>
      <point x="127" y="-86" type="line"/>
      <point x="188" y="6" type="line"/>
      <point x="223" y="-7"/>
      <point x="262" y="-14"/>
      <point x="306" y="-14" type="curve" smooth="yes"/>
      <point x="542" y="-14"/>
      <point x="659" y="190"/>
    </contour>
    <contour>
      <point x="446" y="544" type="curve"/>
      <point x="191" y="156" type="line"/>
      <point x="186" y="178"/>
      <point x="182" y="202"/>
      <point x="182" y="229" type="curve" smooth="yes"/>
      <point x="182" y="391"/>
      <point x="281" y="564"/>
      <point x="388" y="564" type="curve" smooth="yes"/>
      <point x="408" y="564"/>
      <point x="428" y="558"/>
    </contour>
    <contour>
      <point x="519" y="375" type="curve" smooth="yes"/>
      <point x="519" y="218"/>
      <point x="419" y="41"/>
      <point x="313" y="41" type="curve" smooth="yes"/>
      <point x="287" y="41"/>
      <point x="260" y="53"/>
      <point x="236" y="76" type="curve"/>
      <point x="501" y="474" type="line"/>
      <point x="512" y="447"/>
      <point x="519" y="413"/>
    </contour>
  </outline>
</glyph>
<glyph name="Thorn" format="2">
  <advance width="547"/>
  <unicode hex="00DE"/>
  <outline>
    <contour>
      <point x="528" y="345" type="curve" smooth="yes"/>
      <point x="528" y="426"/>
      <point x="475" y="492"/>
      <point x="304" y="492" type="curve" smooth="yes"/>
      <point x="271" y="492" type="line"/>
      <point x="280" y="540" type="line" smooth="yes"/>
      <point x="282" y="550"/>
      <point x="288" y="553"/>
      <point x="298" y="554" type="curve"/>
      <point x="298" y="554"/>
      <point x="325" y="556"/>
      <point x="354" y="558" type="curve"/>
      <point x="354" y="603" type="line"/>
      <point x="84" y="603" type="line"/>
      <point x="84" y="558" type="line"/>
      <point x="108" y="556"/>
      <point x="134" y="554"/>
      <point x="134" y="554" type="curve"/>
      <point x="150" y="553"/>
      <point x="154" y="551"/>
      <point x="152" y="540" type="curve" smooth="yes"/>
      <point x="58" y="63" type="line" smooth="yes"/>
      <point x="56" y="53"/>
      <point x="52" y="50"/>
      <point x="40" y="49" type="curve"/>
      <point x="40" y="49"/>
      <point x="12" y="47"/>
      <point x="-15" y="44" type="curve"/>
      <point x="-15" y="0" type="line"/>
      <point x="256" y="0" type="line"/>
      <point x="256" y="44" type="line"/>
      <point x="231" y="47"/>
      <point x="204" y="49"/>
      <point x="204" y="49" type="curve"/>
      <point x="193" y="50"/>
      <point x="185" y="52"/>
      <point x="187" y="62" type="curve" smooth="yes"/>
      <point x="195" y="111" type="line"/>
      <point x="209" y="111"/>
      <point x="225" y="110"/>
      <point x="235" y="110" type="curve" smooth="yes"/>
      <point x="415" y="110"/>
      <point x="528" y="206"/>
    </contour>
    <contour>
      <point x="396" y="331" type="curve" smooth="yes"/>
      <point x="396" y="262"/>
      <point x="362" y="218"/>
      <point x="319" y="192" type="curve" smooth="yes"/>
      <point x="282" y="170"/>
      <point x="242" y="164"/>
      <point x="206" y="166" type="curve"/>
      <point x="261" y="441" type="line"/>
      <point x="266" y="442"/>
      <point x="285" y="442"/>
      <point x="289" y="442" type="curve" smooth="yes"/>
      <point x="350" y="442"/>
      <point x="396" y="402"/>
    </contour>
  </outline>
</glyph>
<glyph name="germandbls" format="2">
  <advance width="511"/>
  <unicode hex="00DF"/>
  <anchor x="272" y="720" name="U"/>
  <outline>
    <contour>
      <point x="492" y="538" type="curve" smooth="yes"/>
      <point x="492" y="599"/>
      <point x="435" y="667"/>
      <point x="338" y="667" type="curve" smooth="yes"/>
      <point x="290" y="667"/>
      <point x="241" y="650"/>
      <point x="207" y="626" type="curve" smooth="yes"/>
      <point x="133" y="572"/>
      <point x="82" y="491"/>
      <point x="70" y="395" type="curve"/>
      <point x="31" y="61" type="line"/>
      <point x="21" y="-35"/>
      <point x="-15" y="-139"/>
      <point x="-74" y="-172" type="curve"/>
      <point x="-54" y="-213" type="line"/>
      <point x="32" y="-160"/>
      <point x="136" y="-44"/>
      <point x="152" y="84" type="curve"/>
      <point x="190" y="418" type="line"/>
      <point x="201" y="515"/>
      <point x="230" y="600"/>
      <point x="304" y="600" type="curve" smooth="yes"/>
      <point x="335" y="600"/>
      <point x="377" y="558"/>
      <point x="377" y="506" type="curve" smooth="yes"/>
      <point x="377" y="395"/>
      <point x="243" y="400"/>
      <point x="243" y="293" type="curve" smooth="yes"/>
      <point x="243" y="199"/>
      <point x="381" y="200"/>
      <point x="381" y="102" type="curve" smooth="yes"/>
      <point x="381" y="53"/>
      <point x="350" y="42"/>
      <point x="325" y="42" type="curve" smooth="yes"/>
      <point x="280" y="42"/>
      <point x="253" y="141"/>
      <point x="242" y="141" type="curve" smooth="yes"/>
      <point x="229" y="141"/>
      <point x="189" y="61"/>
      <point x="189" y="50" type="curve" smooth="yes"/>
      <point x="189" y="24"/>
      <point x="255" y="-18"/>
      <point x="304" y="-18" type="curve" smooth="yes"/>
      <point x="402" y="-18"/>
      <point x="493" y="64"/>
      <point x="493" y="136" type="curve" smooth="yes"/>
      <point x="493" y="236"/>
      <point x="354" y="257"/>
      <point x="354" y="321" type="curve" smooth="yes"/>
      <point x="354" y="397"/>
      <point x="492" y="395"/>
    </contour>
  </outline>
</glyph>
<glyph name="ae" format="2">
  <advance width="706"/>
  <unicode hex="00E6"/>
  <anchor x="330" y="0" name="H"/>
  <anchor x="429" y="483" name="U"/>
  <outline>
    <contour>
      <point x="691" y="356" type="curve" smooth="yes"/>
      <point x="691" y="383"/>
      <point x="674" y="450"/>
      <point x="586" y="450" type="curve" smooth="yes"/>
      <point x="553" y="450"/>
      <point x="495" y="438"/>
      <point x="455" y="404" type="curve"/>
      <point x="468" y="439" type="line"/>
      <point x="373" y="439" type="line"/>
      <point x="364" y="420" type="line"/>
      <point x="351" y="433"/>
      <point x="331" y="450"/>
      <point x="306" y="450" type="curve" smooth="yes"/>
      <point x="115" y="450"/>
      <point x="29" y="287"/>
      <point x="29" y="153" type="curve" smooth="yes"/>
      <point x="29" y="86"/>
      <point x="67" y="-10"/>
      <point x="177" y="-10" type="curve" smooth="yes"/>
      <point x="230" y="-10"/>
      <point x="280" y="10"/>
      <point x="319" y="46" type="curve"/>
      <point x="341" y="0"/>
      <point x="381" y="-10"/>
      <point x="457" y="-10" type="curve" smooth="yes"/>
      <point x="543" y="-10"/>
      <point x="622" y="42"/>
      <point x="656" y="77" type="curve"/>
      <point x="656" y="163" type="line"/>
      <point x="560" y="79"/>
      <point x="529" y="50"/>
      <point x="490" y="50" type="curve" smooth="yes"/>
      <point x="420" y="50"/>
      <point x="408" y="97"/>
      <point x="408" y="135" type="curve" smooth="yes"/>
      <point x="408" y="158"/>
      <point x="409" y="172"/>
      <point x="416" y="198" type="curve"/>
      <point x="537" y="207"/>
      <point x="691" y="262"/>
    </contour>
    <contour>
      <point x="577" y="356" type="curve" smooth="yes"/>
      <point x="577" y="300"/>
      <point x="487" y="257"/>
      <point x="423" y="243" type="curve"/>
      <point x="430" y="322"/>
      <point x="497" y="396"/>
      <point x="544" y="396" type="curve" smooth="yes"/>
      <point x="572" y="396"/>
      <point x="577" y="377"/>
    </contour>
    <contour>
      <point x="334" y="354" type="line"/>
      <point x="288" y="108" type="line"/>
      <point x="273" y="89"/>
      <point x="238" y="55"/>
      <point x="206" y="55" type="curve" smooth="yes"/>
      <point x="148" y="55"/>
      <point x="152" y="118"/>
      <point x="152" y="159" type="curve" smooth="yes"/>
      <point x="152" y="257"/>
      <point x="199" y="388"/>
      <point x="304" y="399" type="curve"/>
    </contour>
  </outline>
</glyph>
<glyph name="eth" format="2">
  <advance width="432"/>
  <unicode hex="00F0"/>
  <anchor x="290" y="694" name="U"/>
  <outline>
    <contour>
      <point x="453" y="566" type="line"/>
      <point x="453" y="586" type="line"/>
      <point x="440" y="591"/>
      <point x="420" y="597"/>
      <point x="397" y="600" type="curve"/>
      <point x="99" y="463" type="line"/>
      <point x="101" y="443" type="line"/>
      <point x="117" y="437"/>
      <point x="138" y="432"/>
      <point x="157" y="430" type="curve"/>
    </contour>
    <contour>
      <point x="406" y="310" type="curve" smooth="yes"/>
      <point x="406" y="411"/>
      <point x="377" y="527"/>
      <point x="237" y="619" type="curve"/>
      <point x="106" y="565" type="line"/>
      <point x="106" y="525" type="line"/>
      <point x="164" y="534"/>
      <point x="195" y="529"/>
      <point x="235" y="490" type="curve" smooth="yes"/>
      <point x="281" y="445"/>
      <point x="303" y="359"/>
      <point x="303" y="279" type="curve" smooth="yes"/>
      <point x="303" y="200"/>
      <point x="280" y="43"/>
      <point x="199" y="43" type="curve" smooth="yes"/>
      <point x="165" y="43"/>
      <point x="128" y="98"/>
      <point x="128" y="178" type="curve" smooth="yes"/>
      <point x="128" y="254"/>
      <point x="147" y="349"/>
      <point x="212" y="349" type="curve" smooth="yes"/>
      <point x="254" y="349"/>
      <point x="312" y="282"/>
      <point x="301" y="192" type="curve"/>
      <point x="320" y="293" type="line"/>
      <point x="323" y="347"/>
      <point x="283" y="411"/>
      <point x="230" y="411" type="curve" smooth="yes"/>
      <point x="110" y="411"/>
      <point x="14" y="296"/>
      <point x="14" y="146" type="curve" smooth="yes"/>
      <point x="14" y="54"/>
      <point x="63" y="-18"/>
      <point x="163" y="-18" type="curve" smooth="yes"/>
      <point x="296" y="-18"/>
      <point x="406" y="125"/>
    </contour>
  </outline>
</glyph>
<glyph name="oslash" format="2">
  <advance width="497"/>
  <unicode hex="00F8"/>
  <outline>
    <contour>
      <point x="469" y="272" type="curve" smooth="yes"/>
      <point x="469" y="339"/>
      <point x="448" y="387"/>
      <point x="408" y="415" type="curve"/>
      <point x="448" y="477" type="line"/>
      <point x="397" y="506" type="line"/>
      <point x="356" y="441" type="line"/>
      <point x="335" y="446"/>
      <point x="313" y="450"/>
      <point x="287" y="450" type="curve" smooth="yes"/>
      <point x="121" y="450"/>
      <point x="29" y="304"/>
      <point x="29" y="163" type="curve" smooth="yes"/>
      <point x="29" y="103"/>
      <point x="48" y="54"/>
      <point x="90" y="22" type="curve"/>
      <point x="42" y="-54" type="line"/>
      <point x="88" y="-84" type="line"/>
      <point x="141" y="-1" type="line"/>
      <point x="161" y="-7"/>
      <point x="183" y="-10"/>
      <point x="208" y="-10" type="curve" smooth="yes"/>
      <point x="372" y="-10"/>
      <point x="469" y="131"/>
    </contour>
    <contour>
      <point x="315" y="376" type="curve"/>
      <point x="160" y="131" type="line"/>
      <point x="158" y="142"/>
      <point x="157" y="153"/>
      <point x="157" y="166" type="curve" smooth="yes"/>
      <point x="157" y="287"/>
      <point x="223" y="402"/>
      <point x="278" y="402" type="curve" smooth="yes"/>
      <point x="288" y="402"/>
      <point x="302" y="394"/>
    </contour>
    <contour>
      <point x="340" y="276" type="curve" smooth="yes"/>
      <point x="340" y="165"/>
      <point x="282" y="38"/>
      <point x="219" y="38" type="curve" smooth="yes"/>
      <point x="209" y="38"/>
      <point x="195" y="46"/>
      <point x="183" y="64" type="curve"/>
      <point x="338" y="306" type="line"/>
      <point x="340" y="297"/>
      <point x="340" y="286"/>
    </contour>
  </outline>
</glyph>
<glyph name="thorn" format="2">
  <advance width="486"/>
  <unicode hex="00FE"/>
  <anchor x="294" y="676" name="U"/>
  <outline>
    <contour>
      <point x="457" y="279" type="curve" smooth="yes"/>
      <point x="457" y="361"/>
      <point x="414" y="450"/>
      <point x="320" y="450" type="curve" smooth="yes"/>
      <point x="272" y="450"/>
      <point x="231" y="427"/>
      <point x="212" y="416" type="curve"/>
      <point x="259" y="663" type="line"/>
      <point x="199" y="663" type="line"/>
      <point x="50" y="634" type="line"/>
      <point x="50" y="602" type="line"/>
      <point x="125" y="595" type="line"/>
      <point x="-17" y="-136" type="line" smooth="yes"/>
      <point x="-18" y="-145"/>
      <point x="-23" y="-151"/>
      <point x="-32" y="-152" type="curve"/>
      <point x="-32" y="-152"/>
      <point x="-67" y="-154"/>
      <point x="-86" y="-156" type="curve"/>
      <point x="-86" y="-197" type="line"/>
      <point x="178" y="-197" type="line"/>
      <point x="178" y="-156" type="line"/>
      <point x="136" y="-152"/>
      <point x="116" y="-151"/>
      <point x="116" y="-151" type="curve"/>
      <point x="106" y="-151"/>
      <point x="100" y="-145"/>
      <point x="102" y="-136" type="curve" smooth="yes"/>
      <point x="129" y="-3" type="line"/>
      <point x="141" y="-7"/>
      <point x="158" y="-10"/>
      <point x="180" y="-10" type="curve" smooth="yes"/>
      <point x="351" y="-10"/>
      <point x="457" y="135"/>
    </contour>
    <contour>
      <point x="332" y="276" type="curve" smooth="yes"/>
      <point x="332" y="170"/>
      <point x="272" y="36"/>
      <point x="197" y="36" type="curve" smooth="yes"/>
      <point x="181" y="36"/>
      <point x="156" y="52"/>
      <point x="142" y="61" type="curve"/>
      <point x="197" y="338" type="line"/>
      <point x="214" y="354"/>
      <point x="252" y="387"/>
      <point x="278" y="387" type="curve" smooth="yes"/>
      <point x="325" y="387"/>
      <point x="332" y="326"/>
    </contour>
  </outline>
</glyph>
<glyph name="OE" format="2">
  <advance width="942"/>
  <unicode hex="0152"/>
  <outline>
    <contour>
      <point x="972" y="603" type="line"/>
      <point x="570" y="603" type="line"/>
      <point x="562" y="558" type="line"/>
      <point x="528" y="593"/>
      <point x="477" y="618"/>
      <point x="395" y="618" type="curve" smooth="yes"/>
      <point x="171" y="618"/>
      <point x="43" y="416"/>
      <point x="43" y="237" type="curve" smooth="yes"/>
      <point x="43" y="84"/>
      <point x="147" y="-14"/>
      <point x="306" y="-14" type="curve" smooth="yes"/>
      <point x="367" y="-14"/>
      <point x="417" y="7"/>
      <point x="463" y="45" type="curve"/>
      <point x="452" y="0" type="line"/>
      <point x="876" y="0" type="line"/>
      <point x="907" y="156" type="line"/>
      <point x="837" y="156" type="line"/>
      <point x="807" y="66" type="line" smooth="yes"/>
      <point x="805" y="59"/>
      <point x="791" y="54"/>
      <point x="783" y="54" type="curve" smooth="yes"/>
      <point x="590" y="54" type="line"/>
      <point x="637" y="286" type="line"/>
      <point x="738" y="286" type="line" smooth="yes"/>
      <point x="747" y="286"/>
      <point x="760" y="280"/>
      <point x="759" y="273" type="curve" smooth="yes"/>
      <point x="749" y="206" type="line"/>
      <point x="816" y="206" type="line"/>
      <point x="858" y="417" type="line"/>
      <point x="791" y="417" type="line"/>
      <point x="772" y="354" type="line"/>
      <point x="771" y="345"/>
      <point x="757" y="341"/>
      <point x="748" y="341" type="curve" smooth="yes"/>
      <point x="647" y="341" type="line"/>
      <point x="688" y="550" type="line"/>
      <point x="850" y="550" type="line" smooth="yes"/>
      <point x="860" y="550"/>
      <point x="870" y="547"/>
      <point x="870" y="538" type="curve" smooth="yes"/>
      <point x="870" y="461" type="line"/>
      <point x="943" y="461" type="line"/>
    </contour>
    <contour>
      <point x="519" y="375" type="curve" smooth="yes"/>
      <point x="519" y="213"/>
      <point x="418" y="41"/>
      <point x="313" y="41" type="curve" smooth="yes"/>
      <point x="258" y="41"/>
      <point x="182" y="97"/>
      <point x="182" y="228" type="curve" smooth="yes"/>
      <point x="182" y="392"/>
      <point x="285" y="564"/>
      <point x="388" y="564" type="curve" smooth="yes"/>
      <point x="438" y="564"/>
      <point x="519" y="515"/>
    </contour>
  </outline>
</glyph>
<glyph name="oe" format="2">
  <advance width="709"/>
  <unicode hex="0153"/>
  <anchor x="349" y="0" name="H"/>
  <anchor x="426" y="483" name="U"/>
  <outline>
    <contour>
      <point x="693" y="346" type="curve" smooth="yes"/>
      <point x="693" y="385"/>
      <point x="662" y="450"/>
      <point x="582" y="450" type="curve" smooth="yes"/>
      <point x="518" y="450"/>
      <point x="451" y="420"/>
      <point x="417" y="378" type="curve"/>
      <point x="389" y="420"/>
      <point x="340" y="450"/>
      <point x="285" y="450" type="curve" smooth="yes"/>
      <point x="110" y="450"/>
      <point x="29" y="292"/>
      <point x="29" y="163" type="curve" smooth="yes"/>
      <point x="29" y="61"/>
      <point x="89" y="-10"/>
      <point x="207" y="-10" type="curve" smooth="yes"/>
      <point x="274" y="-10"/>
      <point x="322" y="8"/>
      <point x="359" y="52" type="curve"/>
      <point x="386" y="12"/>
      <point x="424" y="-10"/>
      <point x="483" y="-10" type="curve" smooth="yes"/>
      <point x="565" y="-10"/>
      <point x="630" y="29"/>
      <point x="682" y="76" type="curve"/>
      <point x="682" y="168" type="line"/>
      <point x="598" y="91"/>
      <point x="557" y="52"/>
      <point x="513" y="52" type="curve" smooth="yes"/>
      <point x="465" y="52"/>
      <point x="436" y="93"/>
      <point x="436" y="161" type="curve" smooth="yes"/>
      <point x="436" y="169"/>
      <point x="437" y="185"/>
      <point x="438" y="197" type="curve"/>
      <point x="521" y="204"/>
      <point x="693" y="235"/>
    </contour>
    <contour>
      <point x="585" y="346" type="curve" smooth="yes"/>
      <point x="585" y="284"/>
      <point x="497" y="252"/>
      <point x="446" y="243" type="curve"/>
      <point x="465" y="315"/>
      <point x="501" y="398"/>
      <point x="557" y="398" type="curve" smooth="yes"/>
      <point x="588" y="398"/>
      <point x="585" y="359"/>
    </contour>
    <contour>
      <point x="331" y="266" type="curve" smooth="yes"/>
      <point x="331" y="159"/>
      <point x="279" y="38"/>
      <point x="216" y="38" type="curve" smooth="yes"/>
      <point x="170" y="38"/>
      <point x="153" y="92"/>
      <point x="153" y="166" type="curve" smooth="yes"/>
      <point x="153" y="284"/>
      <point x="217" y="401"/>
      <point x="271" y="401" type="curve" smooth="yes"/>
      <point x="322" y="401"/>
      <point x="331" y="333"/>
    </contour>
  </outline>
</glyph>
